{
.appVersion = "3221";
.formatVersion = 3;
DisplayStrings = (
"oooooo
ononnoonono
a) a aah naan abott abduct action admit aeon after again ahoy ajust faker alike logjam an ape aorta aqua arc applejack basketball expatriot autumn gavel awe axe says bedazzle  

b) b bad dribble ribcage cabdriver bed obfuscate hobgoblins bhindi bicycle bjorn liebknecht bliss crabmill snubnose boss subpoena subquality brick absolute debt butter obvious bwana subxhosa by jekabzeel  

c) c cab ecbolic lucca anecdote cedar flicflac marcgravia cheese oscillate acjo chicken cliff acme picnic cobbler pincpinc lacquer crime tropics object cute mechanicville arcticward cx cypriot czech

d) d darling db adcraft nodded deep boldface porridge dharma dime django maidkin coddle adman wednesday done dpt. pdq drink kids burkhardt dunes medvedev dwiggins dx dynamoe adzuki 

 e) e easy treble mechanic educate effort ego meh ein applejack lekker eleven empathy end georges pepe eq inquieries estimate adieu ever ewer expert eye bezier  

f) f famous offbow briefcase halfdressed fey off puffball sgraffito offhand offkey safflower afghan sulfhydryl finally fjord kafka fly fm dwarfness for rafpin fq free elfship left doffs lift fun fv halfway fx iffy ufza 

g) g games bagboy eggcup swingdevil general jugful ghost gift logjam figking glimer ogmane gnosis gonzo bagpipe gq great frogs sgt. guns gv legwork gx gyms zigzag  

h) h hail hægra hunchback ahchoo baghdad there reproachful sahgum brouhha high mahjong archknave ehler rhythm john horn jodhpur earthquake hrumpf baths right hub ahven hwang hx physic mahzor ovoid hawaii bakerij  

i) i india iæ jiblet chicken minnie if iggy hiho sikh will crimp in olio oedipus piquant shirt island italian xiu civil taiwan pixies riyal grizzled  

j) j jam jæger jb abjurer jc jd  djebles jenny jf fjordix gjetost jg jh jiggled fajitas jk jl jm jn joana enjoy basenji jp jq jr alforja outjuts js jt juicing jv jw jinx jy skyjack jz jazz  


glyphs = (
{
glyphname = A;
layers = (
{
anchors = (
{
name = bottom;
pos = (668,0);
},
{
name = ogonek;
pos = (1249,10);
},
{
name = top;
pos = (879,2008);
}
);
layerId = m01;
shapes = (
{
closed = 1;
nodes = (
(126,-7,o),
(157,24,o),
(177,70,cs),
(586,1024,l),
(1046,1024,l),
(1178,74,ls),
(1185,25,o),
(1192,-3,o),
(1245,1,cs),
(1295,5,o),
(1304,36,o),
(1296,88,cs),
(1023,1946,ls),
(1017,1987,o),
(1006,2008,o),
(958,2008,cs),
(914,2008,o),
(898,1990,o),
(878,1944,cs),
(65,108,ls),
(36,43,o),
(46,14,o),
(86,3,cs)
);
},
{
closed = 1;
nodes = (
(933,1832,l),
(1030,1135,l),
(634,1135,l)
);
}
);
vertWidth = 0;
width = 1450;
},
{
anchors = (
{
name = bottom;
pos = (693,0);
},
{
name = ogonek;
pos = (1294,10);
},
{
name = top;
pos = (904,2008);
}
);
layerId = m002;
shapes = (
{
closed = 1;
nodes = (
(190,-17,o),
(286,10,o),
(324,101,cs),
(633,835,l),
(1009,835,l),
(1096,151,ls),
(1111,36,o),
(1172,-5,o),
(1271,0,cs),
(1357,4,o),
(1400,81,o),
(1383,187,cs),
(1112,1912,ls),
(1102,1974,o),
(1050,2008,o),
(964,2008,cs),
(868,2008,o),
(842,1974,o),
(810,1904,cs),
(43,203,ls),
(3,114,o),
(47,38,o),
(120,9,cs)
);
},
{
closed = 1;
nodes = (
(921,1520,l),
(977,1082,l),
(737,1082,l)
);
}
);
vertWidth = 0;
width = 1500;
}
);
unicode = 65;
},
{
glyphname = B;
layers = (
{
anchors = (
{
name = bottom;
pos = (696,0);
},
{
name = center;
pos = (802,1004);
},
{
name = top;
pos = (907,2008);
}
);
layerId = m01;
shapes = (
{
closed = 1;
nodes = (
(923,0,o),
(1359,208,o),
(1397,564,cs),
(1425,828,o),
(1250,1017,o),
(907,1082,c),
(1312,1170,o),
(1372,1309,o),
(1400,1525,cs),
(1441,1837,o),
(1094,2044,o),
(428,2002,cs),
(381,1999,o),
(361,1983,o),
(356,1933,cs),
(161,79,ls),
(156,33,o),
(182,0,o),
(221,0,cs)
);
},
{
closed = 1;
nodes = (
(385,1024,l),
(957,1073,o),
(1303,863,o),
(1273,583,cs),
(1242,296,o),
(891,115,o),
(290,113,c)
);
},
{
closed = 1;
nodes = (
(477,1893,l),
(1020,1932,o),
(1299,1740,o),
(1274,1534,cs),
(1246,1301,o),
(1131,1162,o),
(397,1135,c)
);
}
);
vertWidth = 0;
width = 1505;
},
{
anchors = (
{
name = bottom;
pos = (726,0);
},
{
name = center;
pos = (832,1004);
},
{
name = top;
pos = (937,2008);
}
);
layerId = m002;
shapes = (
{
closed = 1;
nodes = (
(999,0,o),
(1471,213,o),
(1510,581,cs),
(1535,817,o),
(1406,990,o),
(1146,1080,c),
(1436,1175,o),
(1491,1314,o),
(1511,1492,cs),
(1551,1852,o),
(1177,2049,o),
(467,2002,cs),
(365,1997,o),
(311,1981,o),
(298,1854,cs),
(120,164,ls),
(110,70,o),
(172,0,o),
(265,0,cs)
);
},
{
closed = 1;
nodes = (
(494,890,l),
(963,900,o),
(1218,804,o),
(1194,622,cs),
(1168,429,o),
(888,307,o),
(431,299,c)
);
},
{
closed = 1;
nodes = (
(581,1721,l),
(989,1750,o),
(1225,1604,o),
(1208,1479,cs),
(1185,1310,o),
(1091,1185,o),
(521,1152,c)
);
}
);
vertWidth = 0;
width = 1566;
}
);
metricLeft = H;
unicode = 66;
},
{
glyphname = C;
layers = (
{
anchors = (
{
name = bottom;
pos = (614,0);
},
{
name = top;
pos = (825,2008);
}
);
layerId = m01;
shapes = (
{
closed = 1;
nodes = (
(1023,-20,o),
(1259,185,o),
(1351,376,cs),
(1391,452,o),
(1395,483,o),
(1352,506,cs),
(1310,527,o),
(1283,503,o),
(1247,434,cs),
(1168,278,o),
(994,93,o),
(738,93,cs),
(423,93,o),
(298,469,o),
(403,1036,cs),
(497,1558,o),
(741,1896,o),
(1047,1896,cs),
(1201,1896,o),
(1326,1782,o),
(1389,1734,cs),
(1419,1711,o),
(1463,1693,o),
(1495,1732,cs),
(1528,1771,o),
(1511,1804,o),
(1484,1828,cs),
(1399,1906,o),
(1274,2009,o),
(1037,2009,cs),
(680,2009,o),
(390,1648,o),
(277,1048,cs),
(153,395,o),
(331,-20,o),
(751,-20,cs)
);
}
);
vertWidth = 0;
width = 1341;
},
{
anchors = (
{
name = bottom;
pos = (698,0);
},
{
name = top;
pos = (909,2008);
}
);
layerId = m002;
shapes = (
{
closed = 1;
nodes = (
(1126,-20,o),
(1383,165,o),
(1487,355,cs),
(1558,485,o),
(1511,586,o),
(1435,625,cs),
(1357,667,o),
(1287,636,o),
(1248,555,cs),
(1178,404,o),
(1030,253,o),
(793,253,cs),
(561,253,o),
(468,505,o),
(533,1022,cs),
(587,1475,o),
(777,1749,o),
(1110,1749,cs),
(1230,1749,o),
(1357,1661,o),
(1422,1614,cs),
(1490,1567,o),
(1568,1578,o),
(1617,1663,cs),
(1669,1757,o),
(1630,1848,o),
(1573,1890,cs),
(1495,1947,o),
(1277,2028,o),
(1089,2028,cs),
(606,2028,o),
(312,1688,o),
(221,1059,cs),
(125,408,o),
(317,-20,o),
(788,-20,cs)
);
}
);
vertWidth = 0;
width = 1509;
}
);
unicode = 67;
},
{
glyphname = D;
layers = (
{
anchors = (
{
name = bottom;
pos = (676,0);
},
{
name = center;
pos = (782,1004);
},
{
name = top;
pos = (887,2008);
}
);
layerId = m01;
shapes = (
{
closed = 1;
nodes = (
(421,0,ls),
(1028,0,o),
(1358,401,o),
(1430,1053,cs),
(1494,1621,o),
(1178,2008,o),
(605,2008,cs),
(433,2008,ls),
(373,2008,o),
(362,1985,o),
(357,1938,cs),
(160,66,ls),
(156,26,o),
(176,0,o),
(223,0,cs)
);
},
{
closed = 1;
nodes = (
(476,1898,l),
(626,1898,ls),
(1096,1898,o),
(1362,1539,o),
(1309,1062,cs),
(1241,463,o),
(958,113,o),
(410,113,cs),
(289,113,l)
);
}
);
vertWidth = 0;
width = 1466;
},
{
anchors = (
{
name = bottom;
pos = (725,0);
},
{
name = center;
pos = (831,1004);
},
{
name = top;
pos = (936,2008);
}
);
layerId = m002;
shapes = (
{
closed = 1;
nodes = (
(502,0,ls),
(1097,0,o),
(1487,398,o),
(1555,1038,cs),
(1615,1615,o),
(1261,2008,o),
(668,2008,cs),
(450,2008,ls),
(356,2008,o),
(309,1966,o),
(301,1881,cs),
(119,151,ls),
(109,68,o),
(174,0,o),
(268,0,cs)
);
},
{
closed = 1;
nodes = (
(598,1737,l),
(634,1737,ls),
(1048,1737,o),
(1298,1511,o),
(1256,1048,cs),
(1209,536,o),
(926,276,o),
(483,276,cs),
(442,276,l)
);
}
);
vertWidth = 0;
width = 1563;
}
);
metricLeft = H;
unicode = 68;
},
{
glyphname = E;
layers = (
{
anchors = (
{
name = bottom;
pos = (635,0);
},
{
name = ogonek;
pos = (1189,10);
},
{
name = top;
pos = (846,2008);
},
{
name = topleft;
pos = (174,2008);
}
);
layerId = m01;
shapes = (
{
closed = 1;
nodes = (
(1193,0,ls),
(1246,0,o),
(1261,25,o),
(1261,60,cs),
(1261,92,o),
(1247,113,o),
(1193,113,cs),
(289,113,l),
(385,1024,l),
(1223,1024,ls),
(1276,1024,o),
(1299,1051,o),
(1299,1082,cs),
(1299,1113,o),
(1283,1135,o),
(1229,1135,cs),
(397,1135,l),
(477,1898,l),
(1392,1898,ls),
(1447,1898,o),
(1461,1920,o),
(1461,1953,cs),
(1461,1985,o),
(1447,2008,o),
(1392,2008,cs),
(433,2008,ls),
(372,2008,o),
(362,1985,o),
(357,1938,cs),
(160,66,ls),
(156,25,o),
(175,0,o),
(223,0,cs)
);
}
);
vertWidth = 0;
width = 1383;
},
{
anchors = (
{
name = bottom;
pos = (714,0);
},
{
name = ogonek;
pos = (1331,10);
},
{
name = top;
pos = (925,2008);
},
{
name = topleft;
pos = (174,2008);
}
);
layerId = m002;
shapes = (
{
closed = 1;
nodes = (
(1270,0,ls),
(1361,0,o),
(1413,81,o),
(1413,161,cs),
(1413,234,o),
(1356,278,o),
(1257,278,cs),
(443,278,l),
(507,890,l),
(1278,890,ls),
(1376,890,o),
(1436,949,o),
(1436,1022,cs),
(1436,1103,o),
(1369,1152,o),
(1275,1152,cs),
(535,1152,l),
(596,1730,l),
(1452,1730,ls),
(1543,1730,o),
(1600,1792,o),
(1600,1873,cs),
(1600,1951,o),
(1535,2008,o),
(1439,2008,cs),
(458,2008,ls),
(362,2008,o),
(310,1974,o),
(302,1888,cs),
(120,153,ls),
(110,68,o),
(149,0,o),
(242,0,cs)
);
}
);
vertWidth = 0;
width = 1541;
}
);
metricLeft = H;
unicode = 69;
},
{
glyphname = F;
layers = (
{
anchors = (
{
name = bottom;
pos = (625,0);
},
{
name = top;
pos = (836,2008);
}
);
layerId = m01;
shapes = (
{
closed = 1;
nodes = (
(277,0,o),
(283,33,o),
(286,65,cs),
(387,1024,l),
(1200,1024,ls),
(1254,1024,o),
(1273,1051,o),
(1273,1082,cs),
(1273,1113,o),
(1255,1135,o),
(1200,1135,cs),
(398,1135,l),
(479,1898,l),
(1392,1898,ls),
(1447,1898,o),
(1461,1920,o),
(1461,1953,cs),
(1461,1985,o),
(1447,2008,o),
(1392,2008,cs),
(433,2008,ls),
(372,2008,o),
(362,1985,o),
(357,1938,cs),
(160,66,ls),
(156,25,o),
(175,0,o),
(223,0,cs)
);
}
);
vertWidth = 0;
width = 1363;
},
{
anchors = (
{
name = bottom;
pos = (688,0);
},
{
name = top;
pos = (899,2008);
}
);
layerId = m002;
shapes = (
{
closed = 1;
nodes = (
(368,0,o),
(420,65,o),
(430,159,cs),
(507,890,l),
(1247,890,ls),
(1346,890,o),
(1390,949,o),
(1390,1022,cs),
(1390,1103,o),
(1325,1152,o),
(1232,1152,cs),
(534,1152,l),
(595,1730,l),
(1409,1730,ls),
(1502,1730,o),
(1567,1776,o),
(1567,1868,cs),
(1567,1953,o),
(1502,2008,o),
(1406,2008,cs),
(451,2008,ls),
(355,2008,o),
(310,1972,o),
(301,1886,cs),
(121,166,ls),
(112,83,o),
(154,0,o),
(240,0,cs)
);
}
);
vertWidth = 0;
width = 1489;
}
);
metricLeft = H;
unicode = 70;
},
{
glyphname = G;
layers = (
{
anchors = (
{
name = bottom;
pos = (785,0);
},
{
name = top;
pos = (996,2008);
}
);
layerId = m01;
shapes = (
{
closed = 1;
nodes = (
(947,-20,o),
(1177,234,o),
(1364,699,c),
(1302,95,ls),
(1296,33,o),
(1302,2,o),
(1353,0,cs),
(1411,-2,o),
(1419,36,o),
(1426,98,cs),
(1523,1016,ls),
(1528,1059,o),
(1500,1082,o),
(1453,1082,cs),
(1407,1082,o),
(1396,1061,o),
(1386,1020,c),
(1193,432,o),
(906,93,o),
(704,93,cs),
(418,93,o),
(301,469,o),
(393,1035,cs),
(485,1566,o),
(742,1896,o),
(1076,1896,cs),
(1298,1896,o),
(1396,1779,o),
(1469,1708,cs),
(1501,1677,o),
(1536,1662,o),
(1563,1686,cs),
(1593,1714,o),
(1587,1742,o),
(1558,1780,cs),
(1481,1877,o),
(1303,2009,o),
(1097,2009,cs),
(696,2009,o),
(383,1647,o),
(272,1050,cs),
(153,396,o),
(303,-20,o),
(678,-20,cs)
);
}
);
vertWidth = 0;
width = 1683;
},
{
anchors = (
{
name = bottom;
pos = (816,0);
},
{
name = top;
pos = (1027,2008);
}
);
layerId = m002;
shapes = (
{
closed = 1;
nodes = (
(943,-20,o),
(1118,204,o),
(1264,464,c),
(1230,151,ls),
(1220,55,o),
(1287,0,o),
(1391,0,cs),
(1498,0,o),
(1535,55,o),
(1543,130,cs),
(1633,988,ls),
(1643,1085,o),
(1612,1152,o),
(1489,1152,cs),
(1372,1152,o),
(1350,1116,o),
(1191,838,cs),
(1095,671,o),
(853,259,o),
(733,259,cs),
(577,259,o),
(520,528,o),
(577,1017,cs),
(627,1428,o),
(736,1749,o),
(1087,1749,cs),
(1261,1749,o),
(1342,1710,o),
(1389,1614,cs),
(1436,1518,o),
(1480,1479,o),
(1584,1505,cs),
(1667,1528,o),
(1677,1611,o),
(1654,1687,cs),
(1586,1900,o),
(1371,2028,o),
(1087,2028,cs),
(593,2028,o),
(359,1641,o),
(273,1056,cs),
(179,429,o),
(270,-20,o),
(715,-20,cs)
);
}
);
vertWidth = 0;
width = 1746;
}
);
metricRight = H;
unicode = 71;
},
{
glyphname = H;
layers = (
{
anchors = (
{
name = bottom;
pos = (738,0);
},
{
name = center;
pos = (844,1004);
},
{
name = top;
pos = (949,2008);
},
{
name = topleft;
pos = (174,2008);
}
);
layerId = m01;
shapes = (
{
closed = 1;
nodes = (
(278,0,o),
(283,34,o),
(286,65,cs),
(387,1024,l),
(1301,1024,l),
(1200,67,ls),
(1196,33,o),
(1207,0,o),
(1265,0,cs),
(1315,0,o),
(1325,28,o),
(1328,55,cs),
(1526,1937,ls),
(1531,1984,o),
(1516,2008,o),
(1463,2008,cs),
(1417,2008,o),
(1401,1982,o),
(1398,1953,cs),
(1312,1135,l),
(399,1135,l),
(482,1929,ls),
(488,1982,o),
(475,2008,o),
(433,2008,cs),
(380,2008,o),
(362,1983,o),
(357,1938,cs),
(160,66,ls),
(156,26,o),
(176,0,o),
(223,0,cs)
);
}
);
vertWidth = 0;
width = 1589;
},
{
anchors = (
{
name = bottom;
pos = (776,0);
},
{
name = center;
pos = (882,1004);
},
{
name = top;
pos = (987,2008);
},
{
name = topleft;
pos = (174,2008);
}
);
layerId = m002;
shapes = (
{
closed = 1;
nodes = (
(379,0,o),
(421,62,o),
(428,125,cs),
(509,890,l),
(1235,890,l),
(1157,151,ls),
(1148,62,o),
(1204,0,o),
(1305,0,cs),
(1394,0,o),
(1454,52,o),
(1461,114,cs),
(1644,1852,ls),
(1654,1951,o),
(1590,2008,o),
(1494,2008,cs),
(1408,2008,o),
(1348,1961,o),
(1341,1894,cs),
(1262,1152,l),
(536,1152,l),
(609,1844,ls),
(620,1953,o),
(564,2008,o),
(473,2008,cs),
(390,2008,o),
(310,1969,o),
(301,1881,cs),
(119,151,ls),
(110,65,o),
(174,0,o),
(272,0,cs)
);
}
);
vertWidth = 0;
width = 1666;
}
);
unicode = 72;
},
{
glyphname = I;
layers = (
{
anchors = (
{
name = bottom;
pos = (231,0);
},
{
name = ogonek;
pos = (462,10);
},
{
name = top;
pos = (442,2008);
},
{
name = topleft;
pos = (174,2008);
}
);
layerId = m01;
shapes = (
{
closed = 1;
nodes = (
(428,0,ls),
(481,0,o),
(489,22,o),
(489,55,cs),
(489,89,o),
(472,113,o),
(421,113,cs),
(354,113,l),
(546,1898,l),
(626,1898,ls),
(679,1898,o),
(687,1919,o),
(687,1953,cs),
(687,1984,o),
(671,2008,o),
(616,2008,cs),
(343,2008,ls),
(291,2008,o),
(280,1986,o),
(280,1953,cs),
(280,1921,o),
(298,1898,o),
(351,1898,cs),
(418,1898,l),
(228,113,l),
(145,113,ls),
(92,113,o),
(82,91,o),
(82,55,cs),
(82,24,o),
(100,0,o),
(153,0,cs)
);
}
);
vertWidth = 0;
width = 575;
},
{
anchors = (
{
name = bottom;
pos = (399,0);
},
{
name = ogonek;
pos = (765,10);
},
{
name = top;
pos = (610,2008);
},
{
name = topleft;
pos = (174,2008);
}
);
layerId = m002;
shapes = (
{
closed = 1;
nodes = (
(653,0,ls),
(765,0,o),
(833,55,o),
(833,143,cs),
(833,226,o),
(775,278,o),
(682,278,cs),
(630,278,l),
(785,1730,l),
(841,1730,ls),
(950,1730,o),
(1020,1787,o),
(1020,1873,cs),
(1020,1956,o),
(960,2008,o),
(867,2008,cs),
(450,2008,ls),
(339,2008,o),
(271,1953,o),
(271,1868,cs),
(271,1782,o),
(331,1730,o),
(422,1730,cs),
(476,1730,l),
(321,278,l),
(266,278,ls),
(154,278,o),
(86,224,o),
(86,135,cs),
(86,52,o),
(143,0,o),
(237,0,cs)
);
}
);
vertWidth = 0;
width = 912;
}
);
unicode = 73;
},
{
glyphname = J;
layers = (
{
anchors = (
{
name = bottom;
pos = (430,0);
},
{
name = top;
pos = (641,2008);
}
);
layerId = m01;
shapes = (
{
closed = 1;
nodes = (
(639,0,o),
(788,183,o),
(833,637,cs),
(959,1898,l),
(1050,1898,ls),
(1101,1898,o),
(1108,1918,o),
(1108,1953,cs),
(1108,1985,o),
(1094,2008,o),
(1039,2008,cs),
(764,2008,ls),
(714,2008,o),
(703,1986,o),
(703,1953,cs),
(703,1921,o),
(720,1898,o),
(774,1898,cs),
(837,1898,l),
(706,633,ls),
(668,265,o),
(546,113,o),
(337,113,cs),
(200,113,o),
(118,209,o),
(54,289,cs),
(23,329,o),
(-9,336,o),
(-37,307,cs),
(-68,277,o),
(-62,243,o),
(-36,210,cs),
(52,97,o),
(173,0,o),
(337,0,cs)
);
}
);
vertWidth = 0;
width = 974;
},
{
anchors = (
{
name = bottom;
pos = (570,0);
},
{
name = top;
pos = (781,2008);
}
);
layerId = m002;
shapes = (
{
closed = 1;
nodes = (
(750,0,o),
(976,166,o),
(1023,596,cs),
(1146,1730,l),
(1202,1730,ls),
(1314,1730,o),
(1382,1787,o),
(1382,1873,cs),
(1382,1956,o),
(1324,2008,o),
(1231,2008,cs),
(815,2008,ls),
(703,2008,o),
(635,1953,o),
(635,1868,cs),
(635,1782,o),
(692,1730,o),
(786,1730,cs),
(839,1730,l),
(726,671,ls),
(690,330,o),
(601,276,o),
(487,276,cs),
(404,276,o),
(310,325,o),
(211,424,cs),
(144,492,o),
(47,484,o),
(-15,408,cs),
(-62,354,o),
(-52,257,o),
(-5,208,cs),
(125,73,o),
(279,0,o),
(448,0,cs)
);
}
);
vertWidth = 0;
width = 1254;
}
);
unicode = 74;
},
{
glyphname = K;
layers = (
{
anchors = (
{
name = bottom;
pos = (673,0);
},
{
name = top;
pos = (884,2008);
}
);
layerId = m01;
shapes = (
{
closed = 1;
nodes = (
(1317,0,o),
(1339,22,o),
(1339,55,cs),
(1339,75,o),
(1331,87,o),
(1317,105,cs),
(527,1087,l),
(1483,1886,ls),
(1522,1919,o),
(1537,1944,o),
(1535,1966,cs),
(1533,1990,o),
(1515,2008,o),
(1485,2008,cs),
(1461,2008,o),
(1440,2002,o),
(1406,1973,cs),
(397,1117,l),
(481,1929,ls),
(486,1982,o),
(479,2008,o),
(433,2008,cs),
(379,2008,o),
(362,1984,o),
(357,1938,cs),
(162,82,ls),
(158,40,o),
(180,0,o),
(225,0,cs),
(277,0,o),
(284,42,o),
(288,83,cs),
(392,1064,l),
(1200,54,ls),
(1223,25,o),
(1248,0,o),
(1281,0,cs)
);
}
);
vertWidth = 0;
width = 1460;
},
{
anchors = (
{
name = bottom;
pos = (735,0);
},
{
name = top;
pos = (946,2008);
}
);
layerId = m002;
shapes = (
{
closed = 1;
nodes = (
(1405,0,o),
(1470,70,o),
(1470,143,cs),
(1470,182,o),
(1453,219,o),
(1418,260,cs),
(712,1079,l),
(1572,1737,ls),
(1616,1771,o),
(1647,1813,o),
(1650,1860,cs),
(1653,1933,o),
(1593,2008,o),
(1504,2008,cs),
(1455,2008,o),
(1410,1988,o),
(1366,1951,cs),
(551,1275,l),
(608,1844,ls),
(620,1966,o),
(540,2008,o),
(465,2008,cs),
(384,2008,o),
(310,1969,o),
(301,1881,cs),
(121,166,ls),
(111,75,o),
(183,0,o),
(282,0,cs),
(375,0,o),
(422,60,o),
(430,138,cs),
(507,863,l),
(1177,78,ls),
(1217,31,o),
(1273,0,o),
(1330,0,cs)
);
}
);
vertWidth = 0;
width = 1583;
}
);
metricLeft = H;
unicode = 75;
},
{
glyphname = L;
layers = (
{
anchors = (
{
name = bottom;
pos = (597,0);
},
{
name = center;
pos = (703,1004);
},
{
name = top;
pos = (808,2008);
},
{
name = topright;
pos = (1442,2008);
}
);
layerId = m01;
shapes = (
{
closed = 1;
nodes = (
(1151,0,ls),
(1201,0,o),
(1217,24,o),
(1217,60,cs),
(1217,96,o),
(1200,113,o),
(1149,113,cs),
(292,113,l),
(480,1929,ls),
(486,1983,o),
(481,2008,o),
(433,2008,cs),
(378,2008,o),
(362,1984,o),
(357,1938,cs),
(160,66,ls),
(156,25,o),
(175,0,o),
(223,0,cs)
);
}
);
vertWidth = 0;
width = 1308;
},
{
anchors = (
{
name = bottom;
pos = (676,0);
},
{
name = center;
pos = (782,1004);
},
{
name = top;
pos = (887,2008);
},
{
name = topright;
pos = (1600,2008);
}
);
layerId = m002;
shapes = (
{
closed = 1;
nodes = (
(1227,0,ls),
(1321,0,o),
(1373,68,o),
(1373,143,cs),
(1373,216,o),
(1303,281,o),
(1209,281,cs),
(439,281,l),
(606,1844,ls),
(619,1974,o),
(541,2008,o),
(465,2008,cs),
(374,2008,o),
(309,1969,o),
(301,1881,cs),
(119,151,ls),
(109,65,o),
(158,0,o),
(252,0,cs)
);
}
);
vertWidth = 0;
width = 1466;
}
);
metricLeft = H;
unicode = 76;
},
{
glyphname = M;
layers = (
{
anchors = (
{
name = bottom;
pos = (1227,0);
},
{
name = top;
pos = (1438,2008);
}
);
layerId = m01;
shapes = (
{
closed = 1;
nodes = (
(38,0,o),
(68,17,o),
(94,70,cs),
(899,1750,l),
(1090,61,ls),
(1093,32,o),
(1101,0,o),
(1161,0,cs),
(1210,0,o),
(1233,43,o),
(1244,67,cs),
(2046,1757,l),
(2239,62,ls),
(2242,32,o),
(2254,0,o),
(2308,0,cs),
(2350,0,o),
(2368,23,o),
(2363,64,cs),
(2150,1935,ls),
(2144,1985,o),
(2140,2008,o),
(2066,2008,cs),
(2029,2008,o),
(2012,1970,o),
(1996,1936,cs),
(1191,246,l),
(997,1964,ls),
(995,1984,o),
(978,2008,o),
(932,2008,cs),
(889,2008,o),
(871,1983,o),
(851,1941,cs),
(-30,95,ls),
(-58,37,o),
(-42,0,o),
(8,0,cs)
);
}
);
vertWidth = 0;
width = 2568;
},
{
anchors = (
{
name = bottom;
pos = (1236,0);
},
{
name = top;
pos = (1447,2008);
}
);
layerId = m002;
shapes = (
{
closed = 1;
nodes = (
(177,0,o),
(268,29,o),
(302,101,cs),
(910,1384,l),
(1046,125,ls),
(1053,55,o),
(1105,0,o),
(1196,0,cs),
(1321,0,o),
(1352,60,o),
(1371,96,cs),
(1994,1389,l),
(2117,125,ls),
(2125,60,o),
(2190,0,o),
(2286,0,cs),
(2375,0,o),
(2437,62,o),
(2427,143,cs),
(2239,1873,ls),
(2229,1961,o),
(2213,2008,o),
(2109,2008,cs),
(2013,2008,o),
(1958,1972,o),
(1925,1904,cs),
(1291,598,l),
(1155,1873,ls),
(1144,1961,o),
(1111,2008,o),
(988,2008,cs),
(900,2008,o),
(871,1972,o),
(840,1907,cs),
(3,198,ls),
(-57,70,o),
(39,0,o),
(122,0,cs)
);
}
);
vertWidth = 0;
width = 2586;
}
);
unicode = 77;
},
{
glyphname = N;
layers = (
{
anchors = (
{
name = bottom;
pos = (737,0);
},
{
name = top;
pos = (948,2008);
}
);
layerId = m01;
shapes = (
{
closed = 1;
nodes = (
(278,0,o),
(282,36,o),
(286,73,cs),
(462,1765,l),
(1197,46,ls),
(1210,16,o),
(1235,0,o),
(1269,0,cs),
(1315,0,o),
(1322,17,o),
(1327,65,cs),
(1523,1928,ls),
(1529,1982,o),
(1519,2008,o),
(1473,2008,cs),
(1419,2008,o),
(1402,1984,o),
(1397,1938,cs),
(1224,296,l),
(513,1955,ls),
(499,1988,o),
(479,2008,o),
(428,2008,cs),
(373,2008,o),
(362,1985,o),
(357,1938,cs),
(160,66,ls),
(156,25,o),
(175,0,o),
(223,0,cs)
);
}
);
vertWidth = 0;
width = 1587;
},
{
anchors = (
{
name = bottom;
pos = (776,0);
},
{
name = top;
pos = (987,2008);
}
);
layerId = m002;
shapes = (
{
closed = 1;
nodes = (
(366,0,o),
(424,60,o),
(431,130,cs),
(558,1374,l),
(1170,86,ls),
(1196,31,o),
(1246,0,o),
(1324,0,cs),
(1428,0,o),
(1456,60,o),
(1461,125,cs),
(1641,1844,ls),
(1651,1943,o),
(1599,2018,o),
(1495,2018,cs),
(1409,2018,o),
(1344,1969,o),
(1337,1881,cs),
(1211,683,l),
(624,1920,ls),
(595,1985,o),
(541,2008,o),
(470,2008,cs),
(372,2008,o),
(309,1966,o),
(301,1881,cs),
(122,151,ls),
(112,65,o),
(174,0,o),
(262,0,cs)
);
}
);
vertWidth = 0;
width = 1665;
}
);
metricLeft = H;
metricRight = H;
unicode = 78;
},
{
glyphname = O;
layers = (
{
anchors = (
{
name = bottom;
pos = (677,0);
},
{
name = center;
pos = (783,1004);
},
{
name = ogonek;
pos = (1265,10);
},
{
name = top;
pos = (888,2008);
},
{
name = topleft;
pos = (174,2008);
},
{
name = topright;
pos = (1602,2008);
}
);
layerId = m01;
shapes = (
{
closed = 1;
nodes = (
(1126,-20,o),
(1358,356,o),
(1431,1074,cs),
(1486,1607,o),
(1273,2009,o),
(923,2009,cs),
(533,2009,o),
(298,1639,o),
(228,921,cs),
(171,391,o),
(386,-20,o),
(731,-20,cs)
);
},
{
closed = 1;
nodes = (
(418,1549,o),
(605,1896,o),
(923,1896,cs),
(1188,1896,o),
(1350,1540,o),
(1305,1093,cs),
(1239,448,o),
(1051,93,o),
(733,93,cs),
(469,93,o),
(306,455,o),
(352,905,cs)
);
}
);
vertWidth = 0;
width = 1468;
},
{
anchors = (
{
name = bottom;
pos = (752,0);
},
{
name = center;
pos = (858,1004);
},
{
name = ogonek;
pos = (1400,10);
},
{
name = top;
pos = (963,2008);
},
{
name = topleft;
pos = (174,2008);
},
{
name = topright;
pos = (1752,2008);
}
);
layerId = m002;
shapes = (
{
closed = 1;
nodes = (
(1238,-20,o),
(1537,406,o),
(1604,1046,cs),
(1661,1623,o),
(1409,2028,o),
(1011,2028,cs),
(577,2028,o),
(278,1605,o),
(210,965,cs),
(153,388,o),
(405,-20,o),
(803,-20,cs)
);
},
{
closed = 1;
nodes = (
(559,1431,o),
(738,1749,o),
(985,1749,cs),
(1209,1749,o),
(1339,1464,o),
(1297,1046,cs),
(1256,577,o),
(1076,259,o),
(829,259,cs),
(605,259,o),
(475,544,o),
(517,965,cs)
);
}
);
vertWidth = 0;
width = 1618;
}
);
unicode = 79;
},
{
glyphname = P;
layers = (
{
anchors = (
{
name = bottom;
pos = (652,0);
},
{
name = top;
pos = (863,2008);
}
);
layerId = m01;
shapes = (
{
closed = 1;
nodes = (
(269,0,o),
(282,46,o),
(285,75,cs),
(385,1024,l),
(957,1030,o),
(1393,1165,o),
(1429,1513,cs),
(1462,1837,o),
(1068,2008,o),
(433,2008,cs),
(379,2008,o),
(362,1986,o),
(357,1938,cs),
(161,79,ls),
(157,37,o),
(175,0,o),
(220,0,cs)
);
},
{
closed = 1;
nodes = (
(477,1898,l),
(1006,1892,o),
(1326,1748,o),
(1303,1526,cs),
(1274,1251,o),
(901,1141,o),
(397,1135,c)
);
}
);
vertWidth = 0;
width = 1417;
},
{
anchors = (
{
name = bottom;
pos = (683,0);
},
{
name = top;
pos = (894,2008);
}
);
layerId = m002;
shapes = (
{
closed = 1;
nodes = (
(363,0,o),
(420,52,o),
(427,120,cs),
(501,829,l),
(955,849,o),
(1430,947,o),
(1484,1444,cs),
(1528,1860,o),
(1094,2008,o),
(441,2008,cs),
(361,2008,o),
(310,1969,o),
(301,1881,cs),
(119,148,ls),
(110,65,o),
(155,0,o),
(259,0,cs)
);
},
{
closed = 1;
nodes = (
(596,1727,l),
(1034,1724,o),
(1196,1646,o),
(1175,1459,cs),
(1148,1219,o),
(849,1132,o),
(531,1109,c)
);
}
);
vertWidth = 0;
width = 1479;
}
);
metricLeft = H;
unicode = 80;
},
{
glyphname = Q;
layers = (
{
anchors = (
{
name = bottom;
pos = (545,0);
},
{
name = top;
pos = (756,2008);
}
);
layerId = m01;
shapes = (
{
closed = 1;
nodes = (
(711,-20,o),
(840,47,o),
(942,143,c),
(1054,-9,ls),
(1089,-56,o),
(1128,-69,o),
(1159,-50,cs),
(1193,-26,o),
(1195,12,o),
(1160,59,cs),
(1026,241,l),
(1154,421,o),
(1236,697,o),
(1274,1074,cs),
(1329,1607,o),
(1116,2009,o),
(766,2009,cs),
(376,2009,o),
(141,1639,o),
(71,921,cs),
(14,391,o),
(221,-20,o),
(566,-20,cs)
);
},
{
closed = 1;
nodes = (
(261,1549,o),
(448,1896,o),
(766,1896,cs),
(1031,1896,o),
(1193,1540,o),
(1148,1094,cs),
(1114,760,o),
(1047,509,o),
(947,346,c),
(817,522,ls),
(771,585,o),
(733,602,o),
(698,569,c),
(670,548,o),
(676,505,o),
(713,454,cs),
(870,242,l),
(788,156,o),
(682,93,o),
(568,93,cs),
(304,93,o),
(149,455,o),
(195,905,cs)
);
}
);
vertWidth = 0;
width = 1203;
},
{
anchors = (
{
name = bottom;
pos = (624,0);
},
{
name = top;
pos = (835,2008);
}
);
layerId = m002;
shapes = (
{
closed = 1;
nodes = (
(805,-20,o),
(923,18,o),
(1026,91,c),
(1081,16,ls),
(1141,-66,o),
(1237,-104,o),
(1307,-49,cs),
(1370,5,o),
(1379,87,o),
(1325,161,cs),
(1228,295,l),
(1357,479,o),
(1444,737,o),
(1476,1046,cs),
(1533,1623,o),
(1281,2028,o),
(883,2028,cs),
(449,2028,o),
(150,1605,o),
(82,965,cs),
(25,388,o),
(277,-20,o),
(675,-20,cs)
);
},
{
closed = 1;
nodes = (
(431,1431,o),
(610,1749,o),
(857,1749,cs),
(1081,1749,o),
(1211,1464,o),
(1169,1046,cs),
(1152,847,o),
(1109,675,o),
(1047,544,c),
(990,622,ls),
(925,710,o),
(823,726,o),
(758,674,cs),
(701,624,o),
(691,548,o),
(753,463,cs),
(863,313,l),
(813,276,o),
(759,259,o),
(701,259,cs),
(477,259,o),
(347,544,o),
(389,965,cs)
);
}
);
vertWidth = 0;
width = 1362;
}
);
unicode = 81;
},
{
glyphname = R;
layers = (
{
anchors = (
{
name = bottom;
pos = (632,0);
},
{
name = top;
pos = (843,2008);
}
);
layerId = m01;
shapes = (
{
closed = 1;
nodes = (
(277,0,o),
(283,36,o),
(288,83,cs),
(383,1024,l),
(1107,54,ls),
(1136,16,o),
(1168,0,o),
(1191,0,cs),
(1217,0,o),
(1239,15,o),
(1243,35,cs),
(1249,56,o),
(1242,87,o),
(1210,129,cs),
(531,1041,l),
(1077,1068,o),
(1372,1272,o),
(1396,1517,cs),
(1431,1878,o),
(1091,2008,o),
(431,2008,cs),
(373,2008,o),
(362,1985,o),
(357,1938,cs),
(162,84,ls),
(157,37,o),
(175,0,o),
(222,0,cs)
);
},
{
closed = 1;
nodes = (
(476,1898,l),
(1025,1892,o),
(1307,1779,o),
(1273,1529,cs),
(1243,1307,o),
(914,1120,o),
(393,1135,c)
);
}
);
vertWidth = 0;
width = 1377;
},
{
anchors = (
{
name = bottom;
pos = (710,0);
},
{
name = top;
pos = (921,2008);
}
);
layerId = m002;
shapes = (
{
closed = 1;
nodes = (
(359,0,o),
(415,55,o),
(427,164,cs),
(503,873,l),
(1082,70,ls),
(1130,4,o),
(1189,0,o),
(1228,0,cs),
(1288,0,o),
(1345,29,o),
(1371,81,cs),
(1389,120,o),
(1387,179,o),
(1358,218,cs),
(828,941,l),
(1237,1019,o),
(1526,1212,o),
(1546,1520,cs),
(1572,1922,o),
(1172,2008,o),
(465,2008,cs),
(369,2008,o),
(310,1969,o),
(301,1881,cs),
(123,185,ls),
(112,83,o),
(149,0,o),
(253,0,cs)
);
},
{
closed = 1;
nodes = (
(595,1740,l),
(1092,1737,o),
(1259,1704,o),
(1238,1525,cs),
(1219,1359,o),
(966,1185,o),
(533,1152,c)
);
}
);
vertWidth = 0;
width = 1534;
}
);
metricLeft = H;
unicode = 82;
},
{
glyphname = S;
layers = (
{
anchors = (
{
name = bottom;
pos = (521,0);
},
{
name = top;
pos = (732,2008);
}
);
layerId = m01;
shapes = (
{
closed = 1;
nodes = (
(849,-20,o),
(1102,160,o),
(1137,501,cs),
(1167,794,o),
(984,987,o),
(739,1126,cs),
(485,1273,o),
(319,1399,o),
(338,1583,cs),
(360,1768,o),
(536,1896,o),
(837,1896,cs),
(1000,1896,o),
(1102,1812,o),
(1145,1696,cs),
(1159,1660,o),
(1189,1647,o),
(1226,1658,cs),
(1258,1669,o),
(1264,1705,o),
(1247,1756,cs),
(1199,1898,o),
(1066,2009,o),
(829,2009,cs),
(440,2009,o),
(245,1816,o),
(220,1592,cs),
(198,1353,o),
(394,1180,o),
(636,1043,cs),
(913,885,o),
(1035,734,o),
(1016,522,cs),
(989,241,o),
(765,93,o),
(543,93,cs),
(341,93,o),
(221,181,o),
(195,284,cs),
(184,329,o),
(150,342,o),
(110,331,cs),
(75,320,o),
(69,284,o),
(82,237,cs),
(119,84,o),
(285,-20,o),
(494,-20,cs)
);
}
);
vertWidth = 0;
width = 1156;
},
{
anchors = (
{
name = bottom;
pos = (688,0);
},
{
name = top;
pos = (899,2008);
}
);
layerId = m002;
shapes = (
{
closed = 1;
nodes = (
(1130,-20,o),
(1392,187,o),
(1426,520,cs),
(1465,882,o),
(1231,1082,o),
(1020,1199,cs),
(833,1303,o),
(615,1444,o),
(630,1571,cs),
(643,1688,o),
(771,1752,o),
(961,1752,cs),
(1117,1752,o),
(1226,1679,o),
(1273,1596,cs),
(1317,1513,o),
(1405,1489,o),
(1489,1531,cs),
(1559,1567,o),
(1577,1635,o),
(1546,1708,cs),
(1455,1911,o),
(1288,2028,o),
(1005,2028,cs),
(581,2028,o),
(342,1868,o),
(310,1579,cs),
(279,1282,o),
(620,1069,o),
(820,960,cs),
(1041,843,o),
(1148,702,o),
(1132,531,cs),
(1117,377,o),
(966,277,o),
(737,277,cs),
(544,277,o),
(453,397,o),
(435,462,cs),
(407,560,o),
(313,592,o),
(238,568,cs),
(170,545,o),
(92,469,o),
(128,345,cs),
(175,183,o),
(394,-20,o),
(740,-20,cs)
);
}
);
vertWidth = 0;
width = 1489;
}
);
unicode = 83;
},
{
glyphname = T;
layers = (
{
anchors = (
{
name = bottom;
pos = (668,0);
},
{
name = center;
pos = (774,1004);
},
{
name = top;
pos = (879,2008);
}
);
layerId = m01;
shapes = (
{
closed = 1;
nodes = (
(869,0,o),
(883,43,o),
(888,91,cs),
(1080,1898,l),
(1606,1898,ls),
(1657,1898,o),
(1664,1918,o),
(1664,1953,cs),
(1664,1985,o),
(1650,2008,o),
(1595,2008,cs),
(441,2008,ls),
(388,2008,o),
(378,1986,o),
(378,1953,cs),
(378,1921,o),
(396,1898,o),
(451,1898,cs),
(956,1898,l),
(765,98,ls),
(759,39,o),
(771,0,o),
(817,0,cs)
);
}
);
vertWidth = 0;
width = 1450;
},
{
anchors = (
{
name = bottom;
pos = (718,0);
},
{
name = center;
pos = (824,1004);
},
{
name = top;
pos = (929,2008);
}
);
layerId = m002;
shapes = (
{
closed = 1;
nodes = (
(967,0,o),
(1014,68,o),
(1021,133,cs),
(1185,1730,l),
(1630,1730,ls),
(1729,1730,o),
(1776,1792,o),
(1776,1868,cs),
(1776,1946,o),
(1700,2008,o),
(1609,2008,cs),
(470,2008,ls),
(379,2008,o),
(332,1946,o),
(330,1868,cs),
(327,1792,o),
(395,1730,o),
(493,1730,cs),
(873,1730,l),
(712,151,ls),
(703,65,o),
(769,0,o),
(863,0,cs)
);
}
);
vertWidth = 0;
width = 1550;
}
);
unicode = 84;
},
{
glyphname = U;
layers = (
{
anchors = (
{
name = bottom;
pos = (615,0);
},
{
name = ogonek;
pos = (1153,10);
},
{
name = top;
pos = (939,2008);
},
{
name = topright;
pos = (1477,2008);
}
);
layerId = m01;
shapes = (
{
closed = 1;
nodes = (
(1022,-20,o),
(1306,309,o),
(1350,725,cs),
(1478,1944,ls),
(1482,1985,o),
(1466,2008,o),
(1418,2008,cs),
(1370,2008,o),
(1359,1983,o),
(1355,1949,cs),
(1221,721,ls),
(1183,374,o),
(955,93,o),
(686,93,cs),
(436,93,o),
(279,365,o),
(314,696,cs),
(443,1929,ls),
(447,1971,o),
(426,2008,o),
(388,2008,cs),
(346,2008,o),
(322,1975,o),
(317,1930,cs),
(188,703,ls),
(145,298,o),
(358,-20,o),
(683,-20,cs)
);
}
);
vertWidth = 0;
width = 1343;
},
{
anchors = (
{
name = bottom;
pos = (704,0);
},
{
name = ogonek;
pos = (1313,10);
},
{
name = top;
pos = (1021,2008);
},
{
name = topright;
pos = (1655,2008);
}
);
layerId = m002;
shapes = (
{
closed = 1;
nodes = (
(1156,-20,o),
(1488,325,o),
(1535,772,cs),
(1650,1868,ls),
(1658,1946,o),
(1617,2008,o),
(1500,2008,cs),
(1401,2008,o),
(1352,1943,o),
(1344,1873,cs),
(1225,772,ls),
(1194,481,o),
(1000,258,o),
(774,258,cs),
(587,258,o),
(468,471,o),
(498,744,cs),
(620,1870,ls),
(628,1943,o),
(587,2008,o),
(475,2008,cs),
(366,2008,o),
(315,1943,o),
(308,1873,cs),
(191,754,ls),
(145,315,o),
(392,-20,o),
(771,-20,cs)
);
}
);
vertWidth = 0;
width = 1521;
}
);
unicode = 85;
},
{
glyphname = V;
layers = (
{
anchors = (
{
name = bottom;
pos = (628,0);
},
{
name = top;
pos = (839,2008);
}
);
layerId = m01;
shapes = (
{
closed = 1;
nodes = (
(804,0,o),
(812,24,o),
(830,69,cs),
(1561,1930,ls),
(1583,1985,o),
(1562,2008,o),
(1523,2008,cs),
(1469,2008,o),
(1452,1991,o),
(1433,1943,cs),
(779,285,l),
(524,1948,ls),
(520,1977,o),
(511,2008,o),
(454,2008,cs),
(407,2008,o),
(395,1986,o),
(401,1944,cs),
(682,73,ls),
(687,37,o),
(709,0,o),
(755,0,cs)
);
}
);
vertWidth = 0;
width = 1370;
},
{
anchors = (
{
name = bottom;
pos = (673,0);
},
{
name = top;
pos = (884,2008);
}
);
layerId = m002;
shapes = (
{
closed = 1;
nodes = (
(873,0,o),
(924,52,o),
(949,112,cs),
(1656,1826,ls),
(1700,1932,o),
(1630,2008,o),
(1531,2008,cs),
(1443,2008,o),
(1379,1972,o),
(1354,1909,cs),
(844,620,l),
(665,1886,ls),
(655,1956,o),
(590,2008,o),
(491,2008,cs),
(400,2008,o),
(344,1959,o),
(358,1868,cs),
(631,143,ls),
(643,65,o),
(691,0,o),
(785,0,cs)
);
}
);
vertWidth = 0;
width = 1459;
}
);
unicode = 86;
},
{
glyphname = W;
layers = (
{
anchors = (
{
name = bottom;
pos = (1123,0);
},
{
name = top;
pos = (1469,2008);
}
);
layerId = m01;
shapes = (
{
closed = 1;
nodes = (
(774,0,o),
(786,37,o),
(799,71,cs),
(1451,1771,l),
(1702,65,ls),
(1707,30,o),
(1727,0,o),
(1771,0,cs),
(1819,0,o),
(1827,24,o),
(1845,69,cs),
(2581,1930,ls),
(2603,1985,o),
(2574,2008,o),
(2538,2008,cs),
(2485,2008,o),
(2474,1997,o),
(2453,1942,cs),
(1795,234,l),
(1545,1948,ls),
(1540,1981,o),
(1531,2008,o),
(1469,2008,cs),
(1427,2008,o),
(1404,1977,o),
(1392,1945,cs),
(740,245,l),
(494,1948,ls),
(490,1978,o),
(480,2008,o),
(423,2008,cs),
(377,2008,o),
(365,1986,o),
(371,1944,cs),
(652,73,ls),
(659,28,o),
(687,0,o),
(722,0,cs)
);
}
);
vertWidth = 0;
width = 2359;
},
{
anchors = (
{
name = bottom;
pos = (1196,0);
},
{
name = top;
pos = (1531,2008);
}
);
layerId = m002;
shapes = (
{
closed = 1;
nodes = (
(865,0,o),
(919,43,o),
(956,133,cs),
(1486,1455,l),
(1679,135,ls),
(1692,47,o),
(1752,0,o),
(1835,0,cs),
(1913,0,o),
(1965,44,o),
(2002,133,cs),
(2704,1826,ls),
(2735,1901,o),
(2688,2008,o),
(2571,2008,cs),
(2473,2008,o),
(2419,1947,o),
(2402,1904,cs),
(1881,570,l),
(1695,1886,ls),
(1684,1961,o),
(1635,2008,o),
(1531,2008,cs),
(1430,2008,o),
(1391,1958,o),
(1365,1891,cs),
(852,565,l),
(668,1886,ls),
(658,1956,o),
(595,2008,o),
(496,2008,cs),
(405,2008,o),
(344,1959,o),
(358,1868,cs),
(631,135,ls),
(645,47,o),
(707,0,o),
(790,0,cs)
);
}
);
vertWidth = 0;
width = 2505;
}
);
unicode = 87;
},
{
glyphname = X;
layers = (
{
anchors = (
{
name = bottom;
pos = (528,0);
},
{
name = top;
pos = (739,2008);
}
);
layerId = m01;
shapes = (
{
closed = 1;
nodes = (
(42,-7,o),
(82,-5,o),
(107,33,cs),
(668,886,l),
(1045,54,ls),
(1068,3,o),
(1109,-8,o),
(1143,9,cs),
(1168,23,o),
(1183,49,o),
(1165,89,cs),
(758,994,l),
(1351,1900,ls),
(1378,1941,o),
(1370,1974,o),
(1348,1991,cs),
(1319,2014,o),
(1272,2012,o),
(1246,1972,cs),
(698,1129,l),
(327,1957,ls),
(305,2007,o),
(252,2015,o),
(223,2003,cs),
(194,1991,o),
(186,1967,o),
(210,1914,cs),
(608,1020,l),
(0,95,ls),
(-20,64,o),
(-13,35,o),
(12,16,cs)
);
}
);
vertWidth = 0;
width = 1170;
},
{
anchors = (
{
name = bottom;
pos = (585,0);
},
{
name = top;
pos = (796,2008);
}
);
layerId = m002;
shapes = (
{
closed = 1;
nodes = (
(102,-10,o),
(226,-24,o),
(273,49,cs),
(693,707,l),
(970,86,ls),
(1009,-3,o),
(1140,-18,o),
(1210,18,cs),
(1272,52,o),
(1298,112,o),
(1264,187,cs),
(913,971,l),
(1465,1787,ls),
(1514,1860,o),
(1491,1925,o),
(1433,1974,cs),
(1374,2024,o),
(1251,2026,o),
(1202,1951,cs),
(775,1279,l),
(487,1925,ls),
(448,2011,o),
(337,2023,o),
(271,2000,cs),
(189,1971,o),
(156,1907,o),
(201,1810,cs),
(556,1014,l),
(11,213,ls),
(-31,148,o),
(-18,88,o),
(39,39,cs)
);
}
);
vertWidth = 0;
width = 1284;
}
);
unicode = 88;
},
{
glyphname = Y;
layers = (
{
anchors = (
{
name = bottom;
pos = (673,0);
},
{
name = top;
pos = (1095,2008);
},
{
name = topleft;
pos = (174,2008);
}
);
layerId = m01;
shapes = (
{
closed = 1;
nodes = (
(364,1987,o),
(359,1958,o),
(380,1913,cs),
(879,827,l),
(454,96,ls),
(435,63,o),
(436,36,o),
(461,17,cs),
(491,-6,o),
(534,-8,o),
(556,30,cs),
(1649,1900,ls),
(1673,1941,o),
(1666,1977,o),
(1627,1998,cs),
(1594,2015,o),
(1568,2006,o),
(1543,1964,cs),
(957,963,l),
(498,1953,ls),
(481,1989,o),
(457,2019,o),
(410,2002,cs)
);
}
);
vertWidth = 0;
width = 1459;
},
{
anchors = (
{
name = bottom;
pos = (709,0);
},
{
name = top;
pos = (1121,2008);
},
{
name = topleft;
pos = (174,2008);
}
);
layerId = m002;
shapes = (
{
closed = 1;
nodes = (
(351,1963,o),
(335,1878,o),
(368,1805,cs),
(804,870,l),
(420,231,ls),
(381,166,o),
(397,78,o),
(454,29,cs),
(517,-21,o),
(647,-5,o),
(691,68,cs),
(1716,1787,ls),
(1760,1860,o),
(1736,1946,o),
(1658,1992,cs),
(1593,2026,o),
(1489,2008,o),
(1440,1927,cs),
(984,1169,l),
(657,1920,ls),
(626,1990,o),
(544,2028,o),
(446,1995,cs)
);
}
);
vertWidth = 0;
width = 1532;
}
);
unicode = 89;
},
{
glyphname = Z;
layers = (
{
anchors = (
{
name = bottom;
pos = (623,0);
},
{
name = center;
pos = (729,1004);
},
{
name = top;
pos = (834,2008);
}
);
layerId = m01;
shapes = (
{
closed = 1;
nodes = (
(1141,0,ls),
(1193,0,o),
(1204,26,o),
(1201,62,cs),
(1198,94,o),
(1187,113,o),
(1133,113,cs),
(204,113,l),
(1401,1904,ls),
(1440,1963,o),
(1400,2008,o),
(1352,2008,cs),
(317,2008,ls),
(264,2008,o),
(251,1981,o),
(254,1949,cs),
(256,1915,o),
(272,1898,o),
(327,1898,cs),
(1258,1898,l),
(53,97,ls),
(21,49,o),
(47,0,o),
(111,0,cs)
);
}
);
vertWidth = 0;
width = 1359;
},
{
anchors = (
{
name = bottom;
pos = (682,0);
},
{
name = center;
pos = (788,1004);
},
{
name = top;
pos = (893,2008);
}
);
layerId = m002;
shapes = (
{
closed = 1;
nodes = (
(1195,0,ls),
(1294,0,o),
(1341,60,o),
(1341,133,cs),
(1341,216,o),
(1278,278,o),
(1185,278,cs),
(465,278,l),
(1497,1782,ls),
(1562,1878,o),
(1515,2008,o),
(1382,2008,cs),
(378,2008,ls),
(285,2008,o),
(230,1946,o),
(235,1868,cs),
(241,1792,o),
(300,1730,o),
(399,1730,cs),
(1101,1730,l),
(72,216,ls),
(14,130,o),
(66,0,o),
(202,0,cs)
);
}
);
vertWidth = 0;
width = 1477;
}
);
unicode = 90;
},
{
color = 10;
glyphname = A.ss02;
layers = (
{
layerId = m01;
shapes = (
{
closed = 1;
nodes = (
(1065,1971,o),
(1045,2008,o),
(981,2008,cs),
(924,2008,o),
(896,1979,o),
(878,1939,cs),
(67,129,ls),
(33,53,o),
(53,19,o),
(106,4,cs),
(162,-10,o),
(202,19,o),
(225,71,cs),
(629,999,l),
(1050,999,l),
(1184,85,ls),
(1191,34,o),
(1202,-6,o),
(1276,0,cs),
(1344,6,o),
(1361,47,o),
(1352,105,cs),
(1071,1935,ls)
);
},
{
closed = 1;
nodes = (
(615,1019,l),
(207,79,ls),
(187,32,o),
(155,12,o),
(112,24,cs),
(70,35,o),
(55,55,o),
(85,121,cs),
(896,1931,ls),
(913,1968,o),
(934,1988,o),
(981,1988,cs),
(1032,1988,o),
(1046,1964,o),
(1051,1931,cs),
(1332,103,ls),
(1340,50,o),
(1327,24,o),
(1274,20,cs),
(1218,16,o),
(1211,38,o),
(1204,87,cs),
(1068,1019,l)
);
},
{
closed = 1;
nodes = (
(944,1727,l),
(1027,1160,l),
(698,1160,l)
);
},
{
closed = 1;
nodes = (
(1051,1140,l),
(958,1773,ls),
(955,1791,o),
(951,1792,o),
(942,1771,cs),
(668,1140,l)
);
}
);
vertWidth = 0;
width = 1504;
},
{
layerId = m002;
shapes = (
{
closed = 1;
nodes = (
(1144,1968,o),
(1078,2008,o),
(984,2008,cs),
(877,2008,o),
(836,1966,o),
(812,1912,cs),
(45,211,ls),
(0,111,o),
(53,49,o),
(136,16,cs),
(215,-13,o),
(319,-9,o),
(362,93,cs),
(658,795,l),
(1012,795,l),
(1094,148,ls),
(1110,23,o),
(1181,-15,o),
(1292,3,cs),
(1390,18,o),
(1441,74,o),
(1423,190,cs),
(1152,1915,ls)
);
},
{
closed = 1;
nodes = (
(632,835,l),
(326,109,ls),
(291,26,o),
(213,30,o),
(150,54,cs),
(84,80,o),
(45,115,o),
(81,195,cs),
(848,1896,ls),
(870,1944,o),
(898,1968,o),
(984,1968,cs),
(1064,1968,o),
(1107,1942,o),
(1112,1909,cs),
(1383,184,ls),
(1399,85,o),
(1363,54,o),
(1286,43,cs),
(1196,28,o),
(1148,46,o),
(1134,154,cs),
(1048,835,l)
);
},
{
closed = 1;
nodes = (
(931,1444,l),
(976,1082,l),
(779,1082,l)
);
},
{
closed = 1;
nodes = (
(1022,1042,l),
(963,1503,ls),
(953,1585,o),
(947,1586,o),
(913,1505,cs),
(719,1042,l)
);
}
);
vertWidth = 0;
width = 1539;
}
);
},
{
color = 10;
glyphname = B.ss02;
layers = (
{
layerId = m01;
shapes = (
{
closed = 1;
nodes = (
(158,50,o),
(195,0,o),
(249,0,cs),
(956,0,o),
(1409,204,o),
(1451,587,cs),
(1479,846,o),
(1329,1019,o),
(1044,1100,c),
(1372,1195,o),
(1430,1355,o),
(1451,1522,cs),
(1493,1844,o),
(1126,2043,o),
(449,2001,cs),
(393,1998,o),
(361,1971,o),
(354,1909,cs),
(164,107,ls)
);
},
{
closed = 1;
nodes = (
(380,1960,o),
(402,1978,o),
(451,1981,cs),
(1119,2023,o),
(1473,1831,o),
(1432,1524,cs),
(1409,1354,o),
(1352,1201,o),
(1002,1110,cs),
(972,1102,o),
(973,1098,o),
(1001,1091,cs),
(1304,1017,o),
(1460,849,o),
(1431,589,cs),
(1390,220,o),
(952,20,o),
(249,20,cs),
(207,20,o),
(179,57,o),
(184,105,cs),
(374,1907,ls)
);
},
{
closed = 1;
nodes = (
(918,146,o),
(1267,315,o),
(1297,610,cs),
(1325,894,o),
(985,1073,o),
(418,1025,c),
(324,143,l)
);
},
{
closed = 1;
nodes = (
(984,1049,o),
(1303,879,o),
(1277,612,cs),
(1249,333,o),
(922,170,o),
(346,163,c),
(436,1007,l)
);
},
{
closed = 1;
nodes = (
(1156,1169,o),
(1272,1340,o),
(1298,1535,cs),
(1323,1727,o),
(1044,1916,o),
(505,1879,c),
(430,1142,l)
);
},
{
closed = 1;
nodes = (
(1042,1892,o),
(1300,1713,o),
(1278,1537,cs),
(1254,1351,o),
(1145,1193,o),
(452,1162,c),
(523,1861,l)
);
}
);
vertWidth = 0;
width = 1556;
},
{
layerId = m002;
shapes = (
{
closed = 1;
nodes = (
(112,82,o),
(183,1,o),
(288,1,cs),
(1029,1,o),
(1508,197,o),
(1549,575,cs),
(1572,780,o),
(1459,975,o),
(1225,1071,c),
(1480,1170,o),
(1530,1288,o),
(1551,1477,cs),
(1593,1865,o),
(1204,2049,o),
(484,2001,cs),
(379,1996,o),
(311,1978,o),
(296,1835,cs),
(123,187,ls)
);
},
{
closed = 1;
nodes = (
(348,1945,o),
(386,1956,o),
(486,1961,cs),
(1190,2008,o),
(1550,1841,o),
(1510,1481,cs),
(1489,1291,o),
(1441,1180,o),
(1163,1091,cs),
(1110,1074,o),
(1114,1069,o),
(1164,1051,cs),
(1415,960,o),
(1532,781,o),
(1510,579,cs),
(1471,227,o),
(1018,41,o),
(288,41,cs),
(204,41,o),
(154,98,o),
(163,183,cs),
(336,1831,ls)
);
},
{
closed = 1;
nodes = (
(910,304,o),
(1207,409,o),
(1235,615,cs),
(1259,792,o),
(986,938,o),
(499,925,c),
(433,300,l)
);
},
{
closed = 1;
nodes = (
(986,892,o),
(1214,760,o),
(1195,621,cs),
(1171,446,o),
(916,352,o),
(477,340,c),
(535,885,l)
);
},
{
closed = 1;
nodes = (
(1124,1161,o),
(1222,1267,o),
(1245,1464,cs),
(1263,1621,o),
(1011,1754,o),
(578,1719,c),
(520,1130,l)
);
},
{
closed = 1;
nodes = (
(1007,1705,o),
(1220,1593,o),
(1205,1468,cs),
(1184,1290,o),
(1104,1207,o),
(564,1172,c),
(614,1681,l)
);
}
);
vertWidth = 0;
width = 1605;
}
);
metricLeft = H.ss02;
},
{
color = 10;
glyphname = C.ss02;
layers = (
{
layerId = m01;
shapes = (
{
closed = 1;
nodes = (
(1034,-20,o),
(1277,195,o),
(1373,389,cs),
(1414,471,o),
(1423,521,o),
(1364,553,cs),
(1304,582,o),
(1263,544,o),
(1225,471,cs),
(1148,319,o),
(983,143,o),
(738,143,cs),
(443,143,o),
(324,474,o),
(428,1031,cs),
(520,1546,o),
(756,1865,o),
(1047,1865,cs),
(1191,1865,o),
(1310,1756,o),
(1374,1708,cs),
(1408,1682,o),
(1471,1657,o),
(1515,1710,cs),
(1558,1762,o),
(1532,1813,o),
(1501,1840,cs),
(1416,1919,o),
(1283,2028,o),
(1037,2028,cs),
(667,2028,o),
(367,1659,o),
(252,1053,cs),
(126,389,o),
(314,-20,o),
(751,-20,cs)
);
},
{
closed = 1;
nodes = (
(327,0,o),
(147,394,o),
(272,1049,cs),
(385,1650,o),
(678,2008,o),
(1037,2008,cs),
(1275,2008,o),
(1402,1903,o),
(1487,1826,cs),
(1515,1801,o),
(1534,1764,o),
(1499,1722,cs),
(1465,1681,o),
(1417,1700,o),
(1386,1724,cs),
(1322,1772,o),
(1199,1885,o),
(1047,1885,cs),
(745,1885,o),
(502,1555,o),
(408,1035,cs),
(303,469,o),
(428,123,o),
(738,123,cs),
(992,123,o),
(1164,307,o),
(1243,461,cs),
(1279,531,o),
(1309,558,o),
(1354,535,cs),
(1400,510,o),
(1393,476,o),
(1355,399,cs),
(1260,208,o),
(1025,0,o),
(751,0,cs)
);
}
);
vertWidth = 0;
width = 1512;
},
{
layerId = m002;
shapes = (
{
closed = 1;
nodes = (
(1154,-20,o),
(1418,170,o),
(1525,365,cs),
(1602,507,o),
(1549,619,o),
(1464,663,cs),
(1375,711,o),
(1293,674,o),
(1250,584,cs),
(1181,436,o),
(1042,293,o),
(813,293,cs),
(595,293,o),
(508,507,o),
(573,1020,cs),
(626,1468,o),
(807,1709,o),
(1130,1709,cs),
(1244,1709,o),
(1365,1625,o),
(1430,1578,cs),
(1507,1525,o),
(1599,1537,o),
(1654,1633,cs),
(1712,1738,o),
(1668,1840,o),
(1605,1886,cs),
(1524,1945,o),
(1301,2028,o),
(1109,2028,cs),
(615,2028,o),
(313,1699,o),
(221,1062,cs),
(124,402,o),
(321,-20,o),
(808,-20,cs)
);
},
{
closed = 1;
nodes = (
(350,20,o),
(166,411,o),
(261,1056,cs),
(351,1679,o),
(635,1988,o),
(1109,1988,cs),
(1293,1988,o),
(1505,1909,o),
(1581,1854,cs),
(1634,1815,o),
(1667,1738,o),
(1620,1653,cs),
(1576,1576,o),
(1515,1568,o),
(1454,1610,cs),
(1388,1657,o),
(1256,1749,o),
(1130,1749,cs),
(784,1749,o),
(588,1485,o),
(533,1024,cs),
(467,498,o),
(565,253,o),
(813,253,cs),
(1060,253,o),
(1214,411,o),
(1286,566,cs),
(1322,641,o),
(1376,665,o),
(1446,627,cs),
(1516,591,o),
(1556,506,o),
(1489,385,cs),
(1388,199,o),
(1140,20,o),
(808,20,cs)
);
}
);
vertWidth = 0;
width = 1598;
}
);
},
{
color = 10;
glyphname = D.ss02;
layers = (
{
layerId = m01;
shapes = (
{
closed = 1;
nodes = (
(1069,1,o),
(1406,390,o),
(1480,1050,cs),
(1546,1631,o),
(1214,2008,o),
(628,2008,cs),
(456,2008,ls),
(379,2008,o),
(360,1968,o),
(355,1916,cs),
(163,95,ls),
(157,42,o),
(191,1,o),
(251,1,cs),
(449,1,ls)
);
},
{
closed = 1;
nodes = (
(202,21,o),
(179,50,o),
(184,93,cs),
(375,1914,ls),
(380,1961,o),
(392,1988,o),
(456,1988,cs),
(628,1988,ls),
(1203,1988,o),
(1525,1623,o),
(1460,1052,cs),
(1387,399,o),
(1058,21,o),
(449,21,cs),
(251,21,ls)
);
},
{
closed = 1;
nodes = (
(438,144,ls),
(983,144,o),
(1261,466,o),
(1329,1063,cs),
(1382,1537,o),
(1116,1868,o),
(649,1868,cs),
(504,1868,l),
(322,144,l)
);
},
{
closed = 1;
nodes = (
(522,1848,l),
(649,1848,ls),
(1104,1848,o),
(1361,1529,o),
(1309,1065,cs),
(1242,475,o),
(972,164,o),
(438,164,cs),
(345,164,l)
);
}
);
vertWidth = 0;
width = 1527;
},
{
layerId = m002;
shapes = (
{
closed = 1;
nodes = (
(1130,0,o),
(1526,387,o),
(1595,1036,cs),
(1656,1625,o),
(1291,2008,o),
(686,2008,cs),
(468,2008,ls),
(364,2008,o),
(309,1958,o),
(299,1863,cs),
(121,173,ls),
(111,78,o),
(185,0,o),
(290,0,cs),
(524,0,ls)
);
},
{
closed = 1;
nodes = (
(205,40,o),
(153,95,o),
(161,169,cs),
(339,1859,ls),
(347,1936,o),
(382,1968,o),
(468,1968,cs),
(686,1968,ls),
(1270,1968,o),
(1614,1608,o),
(1555,1040,cs),
(1488,407,o),
(1111,40,o),
(524,40,cs),
(290,40,ls)
);
},
{
closed = 1;
nodes = (
(505,276,ls),
(958,276,o),
(1248,524,o),
(1296,1046,cs),
(1339,1522,o),
(1077,1737,o),
(652,1737,cs),
(596,1737,l),
(442,276,l)
);
},
{
closed = 1;
nodes = (
(631,1697,l),
(652,1697,ls),
(1058,1697,o),
(1297,1503,o),
(1256,1050,cs),
(1210,546,o),
(940,316,o),
(505,316,cs),
(486,316,l)
);
}
);
vertWidth = 0;
width = 1683;
}
);
metricLeft = H.ss02;
},
{
color = 10;
glyphname = E.ss02;
layers = (
{
layerId = m01;
shapes = (
{
closed = 1;
nodes = (
(1290,0,o),
(1315,42,o),
(1315,85,cs),
(1315,126,o),
(1290,163,o),
(1221,163,cs),
(346,163,l),
(434,999,l),
(1248,999,ls),
(1313,999,o),
(1349,1040,o),
(1349,1082,cs),
(1349,1122,o),
(1323,1162,o),
(1254,1162,cs),
(451,1162,l),
(524,1848,l),
(1415,1848,ls),
(1485,1848,o),
(1509,1887,o),
(1509,1928,cs),
(1509,1968,o),
(1485,2008,o),
(1415,2008,cs),
(456,2008,ls),
(378,2008,o),
(360,1967,o),
(355,1916,cs),
(163,94,ls),
(157,41,o),
(190,0,o),
(251,0,cs),
(1221,0,ls)
);
},
{
closed = 1;
nodes = (
(201,20,o),
(178,49,o),
(183,92,cs),
(375,1914,ls),
(380,1961,o),
(392,1988,o),
(456,1988,cs),
(1415,1988,ls),
(1472,1988,o),
(1489,1961,o),
(1489,1928,cs),
(1489,1894,o),
(1473,1868,o),
(1415,1868,cs),
(505,1868,l),
(429,1142,l),
(1254,1142,ls),
(1311,1142,o),
(1329,1115,o),
(1329,1082,cs),
(1329,1050,o),
(1303,1019,o),
(1248,1019,cs),
(416,1019,l),
(323,143,l),
(1221,143,ls),
(1278,143,o),
(1295,119,o),
(1295,85,cs),
(1295,49,o),
(1277,20,o),
(1221,20,cs),
(251,20,ls)
);
}
);
vertWidth = 0;
width = 1444;
},
{
guides = (
{
angle = 264.0051;
pos = (1531,836);
}
);
layerId = m002;
shapes = (
{
closed = 1;
nodes = (
(1405,0,o),
(1462,93,o),
(1462,181,cs),
(1462,267,o),
(1396,318,o),
(1279,318,cs),
(487,318,l),
(545,870,l),
(1298,870,ls),
(1407,870,o),
(1476,938,o),
(1476,1022,cs),
(1476,1116,o),
(1398,1172,o),
(1295,1172,cs),
(577,1172,l),
(631,1690,l),
(1470,1690,ls),
(1572,1690,o),
(1638,1762,o),
(1638,1853,cs),
(1638,1943,o),
(1563,2008,o),
(1457,2008,cs),
(476,2008,ls),
(372,2008,o),
(310,1968,o),
(300,1870,cs),
(122,175,ls),
(112,81,o),
(157,0,o),
(264,0,cs),
(1292,0,ls)
);
},
{
closed = 1;
nodes = (
(183,40,o),
(154,92,o),
(162,171,cs),
(340,1866,ls),
(348,1943,o),
(386,1968,o),
(476,1968,cs),
(1457,1968,ls),
(1545,1968,o),
(1598,1922,o),
(1598,1853,cs),
(1598,1780,o),
(1552,1730,o),
(1470,1730,cs),
(595,1730,l),
(533,1132,l),
(1295,1132,ls),
(1382,1132,o),
(1436,1093,o),
(1436,1022,cs),
(1436,957,o),
(1388,910,o),
(1298,910,cs),
(509,910,l),
(443,278,l),
(1279,278,ls),
(1379,278,o),
(1422,244,o),
(1422,181,cs),
(1422,107,o),
(1380,40,o),
(1292,40,cs),
(264,40,ls)
);
}
);
vertWidth = 0;
width = 1581;
}
);
},
{
color = 10;
glyphname = F.ss02;
layers = (
{
layerId = m01;
shapes = (
{
closed = 1;
nodes = (
(1225,999,ls),
(1293,999,o),
(1323,1042,o),
(1323,1082,cs),
(1323,1124,o),
(1292,1162,o),
(1225,1162,cs),
(451,1162,l),
(523,1848,l),
(1415,1848,ls),
(1485,1848,o),
(1509,1887,o),
(1509,1928,cs),
(1509,1968,o),
(1485,2008,o),
(1415,2008,cs),
(456,2008,ls),
(378,2008,o),
(360,1967,o),
(355,1916,cs),
(163,94,ls),
(157,41,o),
(190,0,o),
(251,0,cs),
(327,0,o),
(335,56,o),
(338,87,cs),
(434,999,l)
);
},
{
closed = 1;
nodes = (
(380,1961,o),
(392,1988,o),
(456,1988,cs),
(1415,1988,ls),
(1472,1988,o),
(1489,1961,o),
(1489,1928,cs),
(1489,1894,o),
(1473,1868,o),
(1415,1868,cs),
(505,1868,l),
(429,1142,l),
(1225,1142,ls),
(1282,1142,o),
(1303,1115,o),
(1303,1082,cs),
(1303,1049,o),
(1282,1019,o),
(1225,1019,cs),
(416,1019,l),
(318,89,ls),
(315,58,o),
(309,20,o),
(251,20,cs),
(201,20,o),
(178,49,o),
(183,92,cs),
(375,1914,ls)
);
}
);
vertWidth = 0;
width = 1444;
},
{
layerId = m002;
shapes = (
{
closed = 1;
nodes = (
(1264,838,ls),
(1376,838,o),
(1427,909,o),
(1427,991,cs),
(1427,1085,o),
(1351,1141,o),
(1249,1141,cs),
(574,1141,l),
(632,1690,l),
(1427,1690,ls),
(1529,1690,o),
(1605,1743,o),
(1605,1848,cs),
(1605,1945,o),
(1530,2008,o),
(1424,2008,cs),
(469,2008,ls),
(364,2008,o),
(309,1965,o),
(299,1868,cs),
(123,188,ls),
(113,96,o),
(162,0,o),
(262,0,cs),
(402,0,o),
(462,75,o),
(473,177,cs),
(542,838,l)
);
},
{
closed = 1;
nodes = (
(347,1942,o),
(380,1968,o),
(469,1968,cs),
(1424,1968,ls),
(1513,1968,o),
(1565,1924,o),
(1565,1848,cs),
(1565,1766,o),
(1514,1730,o),
(1427,1730,cs),
(595,1730,l),
(529,1101,l),
(1249,1101,ls),
(1335,1101,o),
(1387,1062,o),
(1387,991,cs),
(1387,925,o),
(1353,878,o),
(1264,878,cs),
(506,878,l),
(433,181,ls),
(424,93,o),
(380,40,o),
(262,40,cs),
(188,40,o),
(155,107,o),
(163,184,cs),
(339,1864,ls)
);
}
);
vertWidth = 0;
width = 1549;
}
);
metricLeft = E.ss02;
metricRight = E.ss02;
},
{
color = 10;
glyphname = G.ss02;
layers = (
{
layerId = m01;
shapes = (
{
closed = 1;
nodes = (
(1167,56,o),
(1179,3,o),
(1250,0,cs),
(1329,-3,o),
(1342,57,o),
(1349,121,cs),
(1440,988,ls),
(1446,1047,o),
(1402,1082,o),
(1345,1082,cs),
(1283,1082,o),
(1265,1045,o),
(1254,1002,c),
(1057,422,o),
(788,143,o),
(599,143,cs),
(333,143,o),
(222,474,o),
(313,1031,cs),
(403,1554,o),
(651,1865,o),
(971,1865,cs),
(1183,1865,o),
(1273,1756,o),
(1346,1685,cs),
(1382,1650,o),
(1435,1626,o),
(1475,1662,cs),
(1516,1700,o),
(1506,1745,o),
(1473,1789,cs),
(1394,1890,o),
(1207,2028,o),
(992,2028,cs),
(578,2028,o),
(255,1660,o),
(142,1055,cs),
(21,391,o),
(180,-20,o),
(573,-20,cs),
(823,-20,o),
(1040,170,o),
(1218,542,c),
(1174,123,ls)
);
},
{
closed = 1;
nodes = (
(1322,61,o),
(1313,17,o),
(1250,20,cs),
(1196,23,o),
(1187,58,o),
(1194,121,cs),
(1241,570,ls),
(1246,621,o),
(1234,625,o),
(1211,574,cs),
(1034,191,o),
(819,0,o),
(573,0,cs),
(195,0,o),
(42,396,o),
(162,1051,cs),
(273,1650,o),
(589,2008,o),
(992,2008,cs),
(1200,2008,o),
(1380,1875,o),
(1457,1777,cs),
(1487,1738,o),
(1493,1706,o),
(1461,1676,cs),
(1432,1650,o),
(1393,1667,o),
(1360,1699,cs),
(1287,1770,o),
(1191,1885,o),
(971,1885,cs),
(640,1885,o),
(385,1563,o),
(293,1035,cs),
(201,469,o),
(318,123,o),
(599,123,cs),
(798,123,o),
(1075,412,o),
(1274,996,c),
(1283,1037,o),
(1296,1062,o),
(1345,1062,cs),
(1394,1062,o),
(1425,1037,o),
(1420,990,cs),
(1329,123,ls)
);
}
);
vertWidth = 0;
width = 1543;
},
{
layerId = m002;
shapes = (
{
closed = 1;
nodes = (
(1087,64,o),
(1167,0,o),
(1281,0,cs),
(1402,0,o),
(1442,66,o),
(1450,147,cs),
(1533,945,ls),
(1544,1055,o),
(1467,1123,o),
(1360,1123,cs),
(1230,1123,o),
(1212,1084,o),
(1053,799,cs),
(959,631,o),
(727,299,o),
(618,299,cs),
(478,299,o),
(425,529,o),
(482,1015,cs),
(532,1423,o),
(635,1709,o),
(972,1709,cs),
(1141,1709,o),
(1212,1675,o),
(1256,1585,cs),
(1306,1484,o),
(1358,1437,o),
(1474,1466,cs),
(1572,1493,o),
(1583,1591,o),
(1558,1673,cs),
(1487,1895,o),
(1264,2028,o),
(972,2028,cs),
(465,2028,o),
(225,1650,o),
(138,1059,cs),
(43,426,o),
(137,-20,o),
(600,-20,cs),
(814,-20,o),
(981,147,o),
(1119,373,c),
(1098,173,ls)
);
},
{
closed = 1;
nodes = (
(1403,82,o),
(1376,40,o),
(1281,40,cs),
(1184,40,o),
(1130,84,o),
(1139,169,cs),
(1168,449,ls),
(1177,534,o),
(1166,534,o),
(1125,463,cs),
(982,213,o),
(815,20,o),
(600,20,cs),
(171,20,o),
(84,430,o),
(178,1053,cs),
(263,1634,o),
(489,1988,o),
(972,1988,cs),
(1250,1988,o),
(1454,1867,o),
(1520,1661,cs),
(1542,1589,o),
(1534,1524,o),
(1464,1504,cs),
(1370,1481,o),
(1337,1510,o),
(1292,1603,cs),
(1241,1707,o),
(1153,1749,o),
(972,1749,cs),
(606,1749,o),
(493,1435,o),
(442,1019,cs),
(384,522,o),
(442,259,o),
(618,259,cs),
(754,259,o),
(993,611,o),
(1087,779,cs),
(1248,1066,o),
(1256,1083,o),
(1360,1083,cs),
(1448,1083,o),
(1502,1036,o),
(1493,949,cs),
(1410,153,ls)
);
}
);
vertWidth = 0;
width = 1611;
}
);
metricLeft = c.ss02;
},
{
color = 10;
glyphname = H.ss02;
layers = (
{
layerId = m01;
shapes = (
{
closed = 1;
nodes = (
(1298,999,l),
(1202,94,ls),
(1198,55,o),
(1213,0,o),
(1292,0,cs),
(1359,0,o),
(1377,46,o),
(1380,77,cs),
(1573,1909,ls),
(1579,1966,o),
(1553,2008,o),
(1485,2008,cs),
(1423,2008,o),
(1400,1966,o),
(1396,1931,cs),
(1315,1162,l),
(453,1162,l),
(530,1901,ls),
(536,1963,o),
(515,2008,o),
(456,2008,cs),
(390,2008,o),
(361,1969,o),
(355,1916,cs),
(163,94,ls),
(157,41,o),
(191,0,o),
(251,0,cs),
(328,0,o),
(336,56,o),
(339,87,cs),
(435,999,l)
);
},
{
closed = 1;
nodes = (
(380,1960,o),
(401,1988,o),
(456,1988,cs),
(502,1988,o),
(516,1957,o),
(510,1903,cs),
(429,1142,l),
(1333,1142,l),
(1416,1929,ls),
(1419,1959,o),
(1436,1988,o),
(1485,1988,cs),
(1541,1988,o),
(1558,1960,o),
(1553,1911,cs),
(1360,79,ls),
(1357,51,o),
(1345,20,o),
(1292,20,cs),
(1230,20,o),
(1218,58,o),
(1222,92,cs),
(1320,1019,l),
(417,1019,l),
(319,89,ls),
(316,58,o),
(310,20,o),
(251,20,cs),
(202,20,o),
(178,49,o),
(183,92,cs),
(375,1914,ls)
);
}
);
vertWidth = 0;
width = 1639;
},
{
layerId = m002;
shapes = (
{
closed = 1;
nodes = (
(1231,854,l),
(1160,173,ls),
(1149,72,o),
(1214,0,o),
(1327,0,cs),
(1426,0,o),
(1495,59,o),
(1503,132,cs),
(1681,1830,ls),
(1693,1942,o),
(1617,2008,o),
(1511,2008,cs),
(1416,2008,o),
(1347,1954,o),
(1339,1876,cs),
(1265,1172,l),
(578,1172,l),
(646,1822,ls),
(659,1943,o),
(593,2008,o),
(491,2008,cs),
(401,2008,o),
(310,1964,o),
(299,1863,cs),
(121,173,ls),
(111,75,o),
(185,0,o),
(294,0,cs),
(414,0,o),
(462,73,o),
(469,143,cs),
(544,854,l)
);
},
{
closed = 1;
nodes = (
(347,1936,o),
(413,1968,o),
(491,1968,cs),
(574,1968,o),
(618,1926,o),
(607,1826,cs),
(534,1132,l),
(1300,1132,l),
(1378,1872,ls),
(1384,1930,o),
(1432,1968,o),
(1511,1968,cs),
(1599,1968,o),
(1650,1923,o),
(1641,1834,cs),
(1462,136,ls),
(1456,82,o),
(1409,40,o),
(1327,40,cs),
(1235,40,o),
(1191,89,o),
(1199,169,cs),
(1275,894,l),
(509,894,l),
(430,147,ls),
(424,89,o),
(390,40,o),
(294,40,cs),
(204,40,o),
(153,92,o),
(161,169,cs),
(339,1859,ls)
);
}
);
vertWidth = 0;
width = 1706;
}
);
},
{
color = 10;
glyphname = I.ss02;
layers = (
{
layerId = m01;
shapes = (
{
closed = 1;
nodes = (
(495,0,o),
(510,41,o),
(510,80,cs),
(510,123,o),
(482,163,o),
(417,163,cs),
(382,163,l),
(559,1848,l),
(617,1848,ls),
(688,1848,o),
(703,1888,o),
(703,1928,cs),
(703,1968,o),
(677,2008,o),
(607,2008,cs),
(334,2008,ls),
(265,2008,o),
(246,1967,o),
(246,1928,cs),
(246,1885,o),
(277,1848,o),
(342,1848,cs),
(381,1848,l),
(203,163,l),
(141,163,ls),
(70,163,o),
(53,122,o),
(53,80,cs),
(53,38,o),
(84,0,o),
(149,0,cs),
(424,0,ls)
);
},
{
closed = 1;
nodes = (
(94,20,o),
(73,47,o),
(73,80,cs),
(73,117,o),
(85,143,o),
(141,143,cs),
(221,143,l),
(403,1868,l),
(342,1868,ls),
(287,1868,o),
(266,1894,o),
(266,1928,cs),
(266,1962,o),
(278,1988,o),
(334,1988,cs),
(607,1988,ls),
(665,1988,o),
(683,1961,o),
(683,1928,cs),
(683,1893,o),
(673,1868,o),
(617,1868,cs),
(541,1868,l),
(360,143,l),
(417,143,ls),
(471,143,o),
(490,116,o),
(490,80,cs),
(490,46,o),
(480,20,o),
(424,20,cs),
(149,20,ls)
);
}
);
vertWidth = 0;
width = 614;
},
{
layerId = m002;
shapes = (
{
closed = 1;
nodes = (
(769,0,o),
(847,63,o),
(847,163,cs),
(847,258,o),
(779,318,o),
(676,318,cs),
(646,318,l),
(793,1690,l),
(831,1690,ls),
(950,1690,o),
(1030,1755,o),
(1030,1853,cs),
(1030,1948,o),
(960,2008,o),
(857,2008,cs),
(440,2008,ls),
(319,2008,o),
(241,1945,o),
(241,1848,cs),
(241,1750,o),
(311,1690,o),
(412,1690,cs),
(444,1690,l),
(297,318,l),
(260,318,ls),
(138,318,o),
(60,256,o),
(60,155,cs),
(60,61,o),
(127,0,o),
(231,0,cs),
(647,0,ls)
);
},
{
closed = 1;
nodes = (
(145,40,o),
(100,81,o),
(100,155,cs),
(100,234,o),
(155,278,o),
(260,278,cs),
(333,278,l),
(488,1730,l),
(412,1730,ls),
(328,1730,o),
(281,1771,o),
(281,1848,cs),
(281,1923,o),
(336,1968,o),
(440,1968,cs),
(857,1968,ls),
(943,1968,o),
(990,1927,o),
(990,1853,cs),
(990,1777,o),
(933,1730,o),
(831,1730,cs),
(757,1730,l),
(602,278,l),
(676,278,ls),
(761,278,o),
(807,237,o),
(807,163,cs),
(807,85,o),
(752,40,o),
(647,40,cs),
(231,40,ls)
);
}
);
vertWidth = 0;
width = 933;
}
);
},
{
color = 10;
glyphname = J.ss02;
layers = (
{
layerId = m01;
shapes = (
{
closed = 1;
nodes = (
(1073,1848,ls),
(1143,1848,o),
(1156,1889,o),
(1156,1928,cs),
(1156,1968,o),
(1132,2008,o),
(1062,2008,cs),
(787,2008,ls),
(720,2008,o),
(701,1967,o),
(701,1928,cs),
(701,1887,o),
(729,1848,o),
(797,1848,cs),
(832,1848,l),
(704,636,ls),
(666,277,o),
(559,163,o),
(364,163,cs),
(239,163,o),
(164,250,o),
(101,329,cs),
(64,377,o),
(11,389,o),
(-28,350,cs),
(-70,310,o),
(-59,258,o),
(-29,220,cs),
(62,104,o),
(191,0,o),
(364,0,cs),
(679,0,o),
(828,172,o),
(877,634,cs),
(1005,1848,l)
);
},
{
closed = 1;
nodes = (
(797,1868,ls),
(740,1868,o),
(721,1894,o),
(721,1928,cs),
(721,1962,o),
(733,1988,o),
(787,1988,cs),
(1062,1988,ls),
(1119,1988,o),
(1136,1961,o),
(1136,1928,cs),
(1136,1893,o),
(1128,1868,o),
(1073,1868,cs),
(987,1868,l),
(857,636,ls),
(809,181,o),
(668,20,o),
(364,20,cs),
(199,20,o),
(76,118,o),
(-13,232,cs),
(-39,266,o),
(-47,304,o),
(-14,336,cs),
(16,366,o),
(53,358,o),
(85,317,cs),
(148,238,o),
(229,143,o),
(364,143,cs),
(570,143,o),
(685,268,o),
(724,634,cs),
(854,1868,l)
);
}
);
vertWidth = 0;
width = 1031;
},
{
layerId = m002;
shapes = (
{
closed = 1;
nodes = (
(1220,1690,ls),
(1342,1690,o),
(1420,1755,o),
(1420,1853,cs),
(1420,1948,o),
(1352,2008,o),
(1249,2008,cs),
(833,2008,ls),
(711,2008,o),
(633,1945,o),
(633,1848,cs),
(633,1751,o),
(700,1690,o),
(804,1690,cs),
(835,1690,l),
(726,673,ls),
(692,354,o),
(614,296,o),
(507,296,cs),
(429,296,o),
(342,341,o),
(245,438,cs),
(170,515,o),
(59,505,o),
(-10,421,cs),
(-64,359,o),
(-53,250,o),
(1,194,cs),
(134,56,o),
(293,-20,o),
(468,-20,cs),
(780,-20,o),
(1017,166,o),
(1063,594,cs),
(1182,1690,l)
);
},
{
closed = 1;
nodes = (
(804,1730,ls),
(718,1730,o),
(673,1771,o),
(673,1848,cs),
(673,1923,o),
(728,1968,o),
(833,1968,cs),
(1249,1968,ls),
(1334,1968,o),
(1380,1927,o),
(1380,1853,cs),
(1380,1776,o),
(1325,1730,o),
(1220,1730,cs),
(1146,1730,l),
(1023,598,ls),
(979,190,o),
(763,20,o),
(468,20,cs),
(304,20,o),
(157,90,o),
(29,222,cs),
(-13,266,o),
(-21,347,o),
(20,395,cs),
(77,465,o),
(156,471,o),
(217,410,cs),
(319,308,o),
(418,256,o),
(507,256,cs),
(630,256,o),
(730,328,o),
(766,669,cs),
(879,1730,l)
);
}
);
vertWidth = 0;
width = 1294;
}
);
},
{
color = 10;
glyphname = K.ss02;
layers = (
{
layerId = m01;
shapes = (
{
closed = 1;
nodes = (
(1186,64,ls),
(1211,33,o),
(1244,0,o),
(1287,0,cs),
(1334,0,o),
(1370,36,o),
(1370,80,cs),
(1370,107,o),
(1357,127,o),
(1342,146,cs),
(588,1084,l),
(1497,1842,ls),
(1539,1877,o),
(1557,1912,o),
(1557,1941,cs),
(1557,1983,o),
(1528,2008,o),
(1482,2008,cs),
(1454,2008,o),
(1425,1999,o),
(1387,1967,cs),
(455,1177,l),
(529,1901,ls),
(535,1961,o),
(521,2008,o),
(456,2008,cs),
(388,2008,o),
(361,1969,o),
(355,1916,cs),
(165,110,ls),
(160,59,o),
(192,0,o),
(253,0,cs),
(327,0,o),
(337,64,o),
(341,105,cs),
(436,1001,l)
);
},
{
closed = 1;
nodes = (
(380,1960,o),
(399,1988,o),
(456,1988,cs),
(506,1988,o),
(515,1958,o),
(509,1903,cs),
(433,1167,ls),
(429,1133,o),
(433,1133,o),
(457,1153,cs),
(1399,1951,ls),
(1435,1981,o),
(1458,1988,o),
(1482,1988,cs),
(1519,1988,o),
(1537,1972,o),
(1537,1941,cs),
(1537,1918,o),
(1522,1891,o),
(1483,1858,cs),
(560,1086,l),
(1326,134,ls),
(1341,115,o),
(1350,101,o),
(1350,80,cs),
(1350,45,o),
(1325,20,o),
(1287,20,cs),
(1252,20,o),
(1225,47,o),
(1202,76,cs),
(442,1026,ls),
(423,1050,o),
(422,1050,o),
(418,1014,cs),
(321,107,ls),
(317,66,o),
(309,20,o),
(253,20,cs),
(205,20,o),
(180,64,o),
(185,108,cs),
(375,1914,ls)
);
}
);
vertWidth = 0;
width = 1489;
},
{
layerId = m002;
shapes = (
{
closed = 1;
nodes = (
(1165,85,ls),
(1209,34,o),
(1270,0,o),
(1333,0,cs),
(1419,0,o),
(1493,80,o),
(1493,163,cs),
(1493,208,o),
(1474,249,o),
(1436,293,cs),
(761,1076,l),
(1577,1701,ls),
(1624,1737,o),
(1660,1785,o),
(1663,1839,cs),
(1666,1922,o),
(1598,2008,o),
(1497,2008,cs),
(1443,2008,o),
(1393,1986,o),
(1346,1947,cs),
(596,1322,l),
(646,1822,ls),
(660,1959,o),
(566,2008,o),
(483,2008,cs),
(395,2008,o),
(310,1964,o),
(299,1863,cs),
(123,188,ls),
(112,85,o),
(194,0,o),
(304,0,cs),
(409,0,o),
(463,70,o),
(472,156,cs),
(542,815,l)
);
},
{
closed = 1;
nodes = (
(347,1936,o),
(407,1968,o),
(483,1968,cs),
(553,1968,o),
(617,1935,o),
(606,1826,cs),
(553,1297,ls),
(546,1231,o),
(550,1231,o),
(605,1277,cs),
(1372,1915,ls),
(1415,1950,o),
(1453,1968,o),
(1497,1968,cs),
(1576,1968,o),
(1626,1906,o),
(1623,1841,cs),
(1620,1800,o),
(1595,1765,o),
(1553,1733,cs),
(703,1082,l),
(1406,267,ls),
(1439,228,o),
(1453,197,o),
(1453,163,cs),
(1453,98,o),
(1399,40,o),
(1333,40,cs),
(1281,40,o),
(1233,66,o),
(1195,111,cs),
(559,856,ls),
(516,906,o),
(512,906,o),
(504,835,cs),
(432,160,ls),
(424,88,o),
(387,40,o),
(304,40,cs),
(213,40,o),
(154,102,o),
(163,184,cs),
(339,1859,ls)
);
}
);
vertWidth = 0;
width = 1604;
}
);
metricLeft = H.ss02;
},
{
color = 10;
glyphname = L.ss02;
layers = (
{
layerId = m01;
shapes = (
{
closed = 1;
nodes = (
(1244,0,o),
(1270,40,o),
(1270,85,cs),
(1270,133,o),
(1240,163,o),
(1177,163,cs),
(348,163,l),
(528,1901,ls),
(534,1961,o),
(525,2008,o),
(456,2008,cs),
(387,2008,o),
(361,1969,o),
(355,1916,cs),
(163,94,ls),
(157,41,o),
(190,0,o),
(251,0,cs),
(1179,0,ls)
);
},
{
closed = 1;
nodes = (
(201,20,o),
(178,49,o),
(183,92,cs),
(375,1914,ls),
(380,1960,o),
(398,1988,o),
(456,1988,cs),
(508,1988,o),
(514,1958,o),
(508,1903,cs),
(326,143,l),
(1177,143,ls),
(1230,143,o),
(1250,123,o),
(1250,85,cs),
(1250,47,o),
(1232,20,o),
(1179,20,cs),
(251,20,ls)
);
}
);
vertWidth = 0;
width = 1399;
},
{
layerId = m002;
shapes = (
{
closed = 1;
nodes = (
(1355,0,o),
(1415,79,o),
(1415,163,cs),
(1415,247,o),
(1335,321,o),
(1231,321,cs),
(483,321,l),
(644,1822,ls),
(660,1969,o),
(565,2008,o),
(483,2008,cs),
(384,2008,o),
(310,1963,o),
(299,1863,cs),
(121,173,ls),
(111,77,o),
(167,0,o),
(274,0,cs),
(1249,0,ls)
);
},
{
closed = 1;
nodes = (
(190,40,o),
(153,91,o),
(161,169,cs),
(339,1859,ls),
(347,1937,o),
(398,1968,o),
(483,1968,cs),
(555,1968,o),
(616,1941,o),
(604,1826,cs),
(439,281,l),
(1231,281,ls),
(1317,281,o),
(1375,227,o),
(1375,163,cs),
(1375,95,o),
(1333,40,o),
(1249,40,cs),
(274,40,ls)
);
}
);
vertWidth = 0;
width = 1536;
}
);
metricLeft = E.ss02;
metricRight = E.ss02;
},
{
color = 10;
glyphname = M.ss02;
layers = (
{
layerId = m01;
shapes = (
{
closed = 1;
nodes = (
(1109,84,ls),
(1113,52,o),
(1126,0,o),
(1205,0,cs),
(1270,0,o),
(1298,56,o),
(1310,80,cs),
(2075,1644,l),
(2257,84,ls),
(2261,51,o),
(2278,0,o),
(2351,0,cs),
(2407,0,o),
(2437,40,o),
(2431,92,cs),
(2219,1913,ls),
(2213,1964,o),
(2204,2008,o),
(2110,2008,cs),
(2057,2008,o),
(2033,1955,o),
(2017,1921,cs),
(1250,349,l),
(1066,1942,ls),
(1063,1969,o),
(1036,2008,o),
(976,2008,cs),
(918,2008,o),
(894,1970,o),
(873,1928,cs),
(-4,131,ls),
(-39,60,o),
(-11,0,o),
(57,0,cs),
(94,0,o),
(135,23,o),
(165,84,cs),
(928,1637,l)
);
},
{
closed = 1;
nodes = (
(912,1960,o),
(930,1988,o),
(976,1988,cs),
(1025,1988,o),
(1044,1960,o),
(1046,1940,cs),
(1232,330,ls),
(1237,286,o),
(1241,285,o),
(1262,328,cs),
(2035,1913,ls),
(2051,1947,o),
(2069,1988,o),
(2110,1988,cs),
(2188,1988,o),
(2193,1960,o),
(2199,1911,cs),
(2411,90,ls),
(2416,47,o),
(2395,20,o),
(2351,20,cs),
(2293,20,o),
(2281,56,o),
(2277,86,cs),
(2093,1664,ls),
(2088,1708,o),
(2084,1708,o),
(2065,1669,cs),
(1292,90,ls),
(1280,66,o),
(1258,20,o),
(1205,20,cs),
(1141,20,o),
(1132,56,o),
(1129,86,cs),
(946,1656,ls),
(941,1702,o),
(938,1702,o),
(915,1656,cs),
(147,92,ls),
(121,38,o),
(88,20,o),
(57,20,cs),
(4,20,o),
(-16,62,o),
(14,123,cs),
(891,1918,ls)
);
}
);
vertWidth = 0;
width = 2631;
},
{
layerId = m002;
shapes = (
{
closed = 1;
nodes = (
(1079,143,ls),
(1088,64,o),
(1147,0,o),
(1249,0,cs),
(1387,0,o),
(1424,70,o),
(1442,107,cs),
(2034,1316,l),
(2150,143,ls),
(2157,68,o),
(2233,0,o),
(2339,0,cs),
(2439,0,o),
(2510,72,o),
(2500,165,cs),
(2312,1855,ls),
(2302,1947,o),
(2282,2008,o),
(2162,2008,cs),
(2058,2008,o),
(1997,1968,o),
(1960,1893,cs),
(1356,670,l),
(1228,1855,ls),
(1218,1951,o),
(1177,2008,o),
(1041,2008,cs),
(942,2008,o),
(908,1963,o),
(875,1896,cs),
(38,227,ls),
(-33,86,o),
(78,0,o),
(175,0,cs),
(235,0,o),
(334,31,o),
(373,112,cs),
(951,1311,l)
);
},
{
closed = 1;
nodes = (
(942,1941,o),
(963,1968,o),
(1041,1968,cs),
(1154,1968,o),
(1179,1934,o),
(1188,1851,cs),
(1320,635,ls),
(1331,536,o),
(1336,535,o),
(1383,630,cs),
(1996,1875,ls),
(2027,1938,o),
(2072,1968,o),
(2162,1968,cs),
(2252,1968,o),
(2262,1937,o),
(2272,1851,cs),
(2460,161,ls),
(2468,89,o),
(2420,40,o),
(2339,40,cs),
(2251,40,o),
(2196,90,o),
(2190,147,cs),
(2070,1360,ls),
(2061,1450,o),
(2054,1450,o),
(2012,1364,cs),
(1406,125,ls),
(1388,88,o),
(1362,40,o),
(1249,40,cs),
(1167,40,o),
(1126,84,o),
(1119,147,cs),
(985,1366,ls),
(976,1445,o),
(969,1445,o),
(932,1368,cs),
(337,130,ls),
(306,65,o),
(227,40,o),
(175,40,cs),
(99,40,o),
(18,97,o),
(74,209,cs),
(911,1878,ls)
);
}
);
vertWidth = 0;
width = 2657;
}
);
},
{
color = 10;
glyphname = N.ss02;
layers = (
{
layerId = m01;
shapes = (
{
closed = 1;
nodes = (
(1201,61,ls),
(1217,24,o),
(1253,0,o),
(1296,0,cs),
(1361,0,o),
(1374,37,o),
(1379,87,cs),
(1570,1901,ls),
(1576,1961,o),
(1560,2008,o),
(1495,2008,cs),
(1425,2008,o),
(1399,1968,o),
(1394,1916,cs),
(1236,411,l),
(559,1940,ls),
(542,1978,o),
(513,2008,o),
(451,2008,cs),
(379,2008,o),
(360,1968,o),
(355,1916,cs),
(163,94,ls),
(157,41,o),
(190,0,o),
(251,0,cs),
(328,0,o),
(335,58,o),
(339,95,cs),
(500,1643,l)
);
},
{
closed = 1;
nodes = (
(380,1961,o),
(392,1988,o),
(451,1988,cs),
(504,1988,o),
(526,1966,o),
(541,1932,cs),
(1222,392,ls),
(1245,341,o),
(1249,341,o),
(1255,398,cs),
(1414,1914,ls),
(1419,1961,o),
(1438,1988,o),
(1495,1988,cs),
(1545,1988,o),
(1556,1958,o),
(1550,1903,cs),
(1359,89,ls),
(1354,41,o),
(1345,20,o),
(1296,20,cs),
(1260,20,o),
(1233,37,o),
(1219,69,cs),
(509,1674,ls),
(490,1718,o),
(488,1717,o),
(483,1672,cs),
(319,97,ls),
(315,60,o),
(310,20,o),
(251,20,cs),
(201,20,o),
(178,49,o),
(183,92,cs),
(375,1914,ls)
);
}
);
vertWidth = 0;
width = 1637;
},
{
layerId = m002;
shapes = (
{
closed = 1;
nodes = (
(1174,97,ls),
(1204,35,o),
(1260,0,o),
(1346,0,cs),
(1465,0,o),
(1496,73,o),
(1503,143,cs),
(1679,1812,ls),
(1690,1921,o),
(1630,2008,o),
(1513,2008,cs),
(1418,2008,o),
(1345,1952,o),
(1335,1853,cs),
(1221,776,l),
(660,1908,ls),
(624,1981,o),
(565,2008,o),
(488,2008,cs),
(382,2008,o),
(309,1960,o),
(299,1863,cs),
(121,173,ls),
(111,75,o),
(182,0,o),
(281,0,cs),
(396,0,o),
(462,69,o),
(470,148,cs),
(591,1301,l)
);
},
{
closed = 1;
nodes = (
(347,1935,o),
(396,1968,o),
(488,1968,cs),
(555,1968,o),
(596,1949,o),
(624,1892,cs),
(1194,734,ls),
(1238,645,o),
(1247,647,o),
(1257,743,cs),
(1375,1849,ls),
(1383,1928,o),
(1434,1968,o),
(1513,1968,cs),
(1607,1968,o),
(1649,1908,o),
(1639,1816,cs),
(1463,147,ls),
(1456,85,o),
(1437,40,o),
(1346,40,cs),
(1274,40,o),
(1234,65,o),
(1210,115,cs),
(615,1344,ls),
(570,1437,o),
(564,1435,o),
(553,1331,cs),
(430,152,ls),
(423,89,o),
(377,40,o),
(281,40,cs),
(202,40,o),
(153,92,o),
(161,169,cs),
(339,1859,ls)
);
}
);
vertWidth = 0;
width = 1705;
}
);
metricLeft = H.ss02;
metricRight = H.ss02;
},
{
color = 10;
glyphname = O.ss02;
layers = (
{
layerId = m01;
shapes = (
{
closed = 1;
nodes = (
(1168,-20,o),
(1410,346,o),
(1483,1071,cs),
(1538,1614,o),
(1317,2028,o),
(950,2028,cs),
(545,2028,o),
(300,1649,o),
(230,924,cs),
(173,384,o),
(396,-20,o),
(758,-20,cs)
);
},
{
closed = 1;
nodes = (
(410,0,o),
(193,390,o),
(250,922,cs),
(320,1641,o),
(557,2008,o),
(950,2008,cs),
(1303,2008,o),
(1518,1608,o),
(1463,1073,cs),
(1390,354,o),
(1156,0,o),
(758,0,cs)
);
},
{
closed = 1;
nodes = (
(1074,123,o),
(1262,451,o),
(1327,1094,cs),
(1371,1538,o),
(1211,1885,o),
(950,1885,cs),
(636,1885,o),
(449,1546,o),
(384,904,cs),
(339,457,o),
(500,123,o),
(760,123,cs)
);
},
{
closed = 1;
nodes = (
(514,143,o),
(359,462,o),
(404,902,cs),
(469,1539,o),
(649,1865,o),
(950,1865,cs),
(1197,1865,o),
(1351,1533,o),
(1307,1096,cs),
(1242,458,o),
(1061,143,o),
(760,143,cs)
);
}
);
vertWidth = 0;
width = 1527;
},
{
layerId = m002;
shapes = (
{
closed = 1;
nodes = (
(1270,-20,o),
(1575,396,o),
(1643,1044,cs),
(1701,1631,o),
(1442,2028,o),
(1030,2028,cs),
(583,2028,o),
(278,1615,o),
(209,967,cs),
(151,380,o),
(410,-20,o),
(822,-20,cs)
);
},
{
closed = 1;
nodes = (
(435,20,o),
(193,393,o),
(249,963,cs),
(316,1598,o),
(606,1988,o),
(1030,1988,cs),
(1417,1988,o),
(1659,1618,o),
(1603,1048,cs),
(1537,413,o),
(1247,20,o),
(822,20,cs)
);
},
{
closed = 1;
nodes = (
(1109,259,o),
(1294,568,o),
(1336,1044,cs),
(1379,1472,o),
(1243,1749,o),
(1004,1749,cs),
(743,1749,o),
(559,1440,o),
(516,967,cs),
(473,536,o),
(609,259,o),
(848,259,cs)
);
},
{
closed = 1;
nodes = (
(637,299,o),
(514,547,o),
(556,963,cs),
(598,1425,o),
(769,1709,o),
(1004,1709,cs),
(1215,1709,o),
(1338,1461,o),
(1296,1048,cs),
(1255,583,o),
(1083,299,o),
(848,299,cs)
);
}
);
vertWidth = 0;
width = 1730;
}
);
metricLeft = C.ss02;
metricRight = D.ss02;
},
{
color = 10;
glyphname = P.ss02;
layers = (
{
layerId = m01;
shapes = (
{
closed = 1;
nodes = (
(1000,1012,o),
(1448,1153,o),
(1479,1490,cs),
(1510,1828,o),
(1098,2008,o),
(456,2008,cs),
(388,2008,o),
(361,1972,o),
(355,1916,cs),
(164,107,ls),
(159,55,o),
(191,0,o),
(252,0,cs),
(329,0,o),
(337,69,o),
(340,97,cs),
(435,1002,l)
);
},
{
closed = 1;
nodes = (
(380,1963,o),
(399,1988,o),
(456,1988,cs),
(1092,1988,o),
(1487,1815,o),
(1459,1492,cs),
(1430,1164,o),
(987,1029,o),
(417,1022,c),
(320,99,ls),
(317,71,o),
(311,20,o),
(252,20,cs),
(204,20,o),
(179,61,o),
(184,105,cs),
(375,1914,ls)
);
},
{
closed = 1;
nodes = (
(941,1148,o),
(1299,1258,o),
(1323,1506,cs),
(1344,1718,o),
(1030,1862,o),
(505,1868,c),
(429,1142,l)
);
},
{
closed = 1;
nodes = (
(1030,1838,o),
(1322,1702,o),
(1303,1508,cs),
(1281,1279,o),
(947,1172,o),
(451,1162,c),
(523,1848,l)
);
}
);
vertWidth = 0;
width = 1379;
},
{
layerId = m002;
shapes = (
{
closed = 1;
nodes = (
(995,873,o),
(1474,977,o),
(1524,1442,cs),
(1569,1856,o),
(1117,2008,o),
(459,2008,cs),
(370,2008,o),
(309,1962,o),
(299,1863,cs),
(121,170,ls),
(111,76,o),
(173,0,o),
(289,0,cs),
(404,0,o),
(460,61,o),
(468,138,cs),
(543,851,l)
);
},
{
closed = 1;
nodes = (
(347,1938,o),
(386,1968,o),
(459,1968,cs),
(1109,1968,o),
(1524,1826,o),
(1484,1446,cs),
(1437,1000,o),
(965,908,o),
(507,889,c),
(428,142,ls),
(422,81,o),
(384,40,o),
(289,40,cs),
(194,40,o),
(153,91,o),
(161,166,cs),
(339,1859,ls)
);
},
{
closed = 1;
nodes = (
(864,1149,o),
(1190,1238,o),
(1215,1457,cs),
(1236,1643,o),
(1056,1726,o),
(595,1727,c),
(532,1128,l)
);
},
{
closed = 1;
nodes = (
(1051,1682,o),
(1193,1612,o),
(1175,1461,cs),
(1154,1282,o),
(884,1197,o),
(576,1172,c),
(631,1687,l)
);
}
);
vertWidth = 0;
width = 1379;
}
);
metricLeft = H.ss02;
},
{
color = 10;
glyphname = Q.ss02;
layers = (
{
layerId = m01;
shapes = (
{
closed = 1;
nodes = (
(1365,425,o),
(1445,702,o),
(1483,1071,cs),
(1538,1614,o),
(1317,2028,o),
(950,2028,cs),
(545,2028,o),
(300,1649,o),
(230,924,cs),
(173,384,o),
(396,-20,o),
(758,-20,cs),
(898,-20,o),
(1020,19,o),
(1122,106,c),
(1218,-24,ls),
(1258,-78,o),
(1314,-98,o),
(1357,-70,cs),
(1403,-39,o),
(1405,19,o),
(1364,74,cs),
(1240,241,l)
);
},
{
closed = 1;
nodes = (
(1023,41,o),
(902,0,o),
(758,0,cs),
(410,0,o),
(193,390,o),
(250,922,cs),
(320,1641,o),
(557,2008,o),
(950,2008,cs),
(1303,2008,o),
(1518,1608,o),
(1463,1073,cs),
(1425,698,o),
(1343,421,o),
(1216,241,c),
(1348,62,ls),
(1383,14,o),
(1382,-29,o),
(1345,-54,cs),
(1313,-75,o),
(1270,-61,o),
(1234,-12,cs),
(1125,136,l)
);
},
{
closed = 1;
nodes = (
(855,502,o),
(850,548,o),
(878,572,cs),
(917,605,o),
(958,589,o),
(1005,525,cs),
(1131,355,l),
(1228,518,o),
(1294,765,o),
(1327,1094,cs),
(1371,1538,o),
(1211,1885,o),
(950,1885,cs),
(636,1885,o),
(449,1546,o),
(384,904,cs),
(339,457,o),
(500,123,o),
(760,123,cs),
(871,123,o),
(967,159,o),
(1047,242,c),
(893,451,ls)
);
},
{
closed = 1;
nodes = (
(969,607,o),
(915,629,o),
(866,588,cs),
(828,556,o),
(835,495,o),
(877,439,cs),
(1021,244,l),
(947,172,o),
(861,143,o),
(760,143,cs),
(514,143,o),
(359,462,o),
(404,902,cs),
(469,1539,o),
(649,1865,o),
(950,1865,cs),
(1197,1865,o),
(1351,1533,o),
(1307,1096,cs),
(1276,787,o),
(1216,552,o),
(1129,391,c),
(1021,537,ls)
);
}
);
vertWidth = 0;
width = 1551;
},
{
layerId = m002;
shapes = (
{
closed = 1;
nodes = (
(1526,481,o),
(1611,739,o),
(1643,1044,cs),
(1701,1631,o),
(1442,2028,o),
(1030,2028,cs),
(583,2028,o),
(278,1615,o),
(209,967,cs),
(151,380,o),
(410,-20,o),
(822,-20,cs),
(949,-20,o),
(1066,8,o),
(1168,64,c),
(1212,4,ls),
(1277,-85,o),
(1385,-128,o),
(1467,-64,cs),
(1538,-3,o),
(1548,91,o),
(1488,173,cs),
(1399,295,l)
);
},
{
closed = 1;
nodes = (
(1073,52,o),
(956,20,o),
(822,20,cs),
(435,20,o),
(193,393,o),
(249,963,cs),
(316,1598,o),
(606,1988,o),
(1030,1988,cs),
(1417,1988,o),
(1659,1618,o),
(1603,1048,cs),
(1571,735,o),
(1482,477,o),
(1350,295,c),
(1456,149,ls),
(1505,82,o),
(1498,15,o),
(1441,-34,cs),
(1381,-81,o),
(1301,-51,o),
(1244,28,cs),
(1178,119,l)
);
},
{
closed = 1;
nodes = (
(859,553,o),
(867,614,o),
(918,659,cs),
(976,705,o),
(1061,692,o),
(1121,610,cs),
(1197,506,l),
(1268,641,o),
(1317,828,o),
(1336,1044,cs),
(1379,1472,o),
(1243,1749,o),
(1004,1749,cs),
(743,1749,o),
(559,1440,o),
(516,967,cs),
(473,536,o),
(609,259,o),
(848,259,cs),
(916,259,o),
(981,274,o),
(1038,308,c),
(916,475,ls)
);
},
{
closed = 1;
nodes = (
(1081,731,o),
(967,749,o),
(892,689,cs),
(827,633,o),
(815,545,o),
(884,451,cs),
(981,319,l),
(939,303,o),
(896,299,o),
(848,299,cs),
(637,299,o),
(514,547,o),
(556,963,cs),
(598,1425,o),
(769,1709,o),
(1004,1709,cs),
(1215,1709,o),
(1338,1461,o),
(1296,1048,cs),
(1281,866,o),
(1243,708,o),
(1190,584,c),
(1153,634,ls)
);
}
);
vertWidth = 0;
width = 1730;
}
);
metricLeft = C.ss02;
metricRight = D.ss02;
},
{
color = 10;
glyphname = R.ss02;
layers = (
{
layerId = m01;
shapes = (
{
closed = 1;
nodes = (
(1159,65,ls),
(1193,22,o),
(1234,1,o),
(1263,1,cs),
(1298,1,o),
(1334,25,o),
(1340,56,cs),
(1346,81,o),
(1339,123,o),
(1302,170,cs),
(631,1022,l),
(1097,1083,o),
(1429,1295,o),
(1448,1536,cs),
(1474,1871,o),
(1120,2008,o),
(454,2008,cs),
(379,2008,o),
(360,1968,o),
(355,1916,cs),
(165,112,ls),
(159,56,o),
(185,0,o),
(250,0,cs),
(327,0,o),
(336,58,o),
(341,105,cs),
(433,990,l)
);
},
{
closed = 1;
nodes = (
(380,1961,o),
(392,1988,o),
(454,1988,cs),
(1115,1988,o),
(1453,1856,o),
(1428,1538,cs),
(1409,1305,o),
(1087,1101,o),
(626,1042,cs),
(597,1038,o),
(595,1035,o),
(613,1013,cs),
(1286,158,ls),
(1320,115,o),
(1326,82,o),
(1320,60,cs),
(1316,38,o),
(1291,21,o),
(1263,21,cs),
(1239,21,o),
(1206,38,o),
(1175,77,cs),
(445,1009,ls),
(422,1039,o),
(419,1039,o),
(414,996,cs),
(321,107,ls),
(316,60,o),
(309,20,o),
(250,20,cs),
(199,20,o),
(180,61,o),
(185,110,cs),
(375,1914,ls)
);
},
{
closed = 1;
nodes = (
(906,1158,o),
(1270,1355,o),
(1296,1550,cs),
(1323,1752,o),
(1049,1861,o),
(504,1868,c),
(429,1142,l)
);
},
{
closed = 1;
nodes = (
(1048,1839,o),
(1301,1735,o),
(1277,1552,cs),
(1254,1373,o),
(912,1184,o),
(451,1162,c),
(522,1848,l)
);
}
);
vertWidth = 0;
width = 1462;
},
{
layerId = m002;
shapes = (
{
closed = 1;
nodes = (
(1164,78,ls),
(1221,6,o),
(1286,0,o),
(1326,0,cs),
(1392,0,o),
(1457,32,o),
(1487,92,cs),
(1508,137,o),
(1509,206,o),
(1472,251,cs),
(888,970,l),
(1286,1053,o),
(1571,1250,o),
(1586,1528,cs),
(1607,1920,o),
(1195,2008,o),
(483,2008,cs),
(379,2008,o),
(310,1963,o),
(299,1863,cs),
(125,207,ls),
(113,97,o),
(156,0,o),
(275,0,cs),
(391,0,o),
(456,63,o),
(469,182,cs),
(542,864,l)
);
},
{
closed = 1;
nodes = (
(347,1938,o),
(393,1968,o),
(483,1968,cs),
(1188,1968,o),
(1566,1886,o),
(1546,1530,cs),
(1532,1269,o),
(1263,1086,o),
(869,1007,cs),
(820,997,o),
(818,993,o),
(849,955,cs),
(1440,225,ls),
(1467,192,o),
(1467,144,o),
(1451,110,cs),
(1428,64,o),
(1381,40,o),
(1326,40,cs),
(1288,40,o),
(1241,45,o),
(1196,102,cs),
(558,908,ls),
(514,963,o),
(512,962,o),
(504,890,cs),
(429,186,ls),
(418,84,o),
(373,40,o),
(275,40,cs),
(184,40,o),
(155,106,o),
(165,203,cs),
(339,1859,ls)
);
},
{
closed = 1;
nodes = (
(990,1201,o),
(1262,1383,o),
(1280,1531,cs),
(1301,1706,o),
(1110,1738,o),
(595,1740,c),
(535,1172,l)
);
},
{
closed = 1;
nodes = (
(1112,1696,o),
(1255,1666,o),
(1240,1535,cs),
(1226,1416,o),
(992,1253,o),
(579,1216,c),
(631,1700,l)
);
}
);
vertWidth = 0;
width = 1612;
}
);
metricLeft = H.ss02;
metricRight = K.ss02;
},
{
color = 10;
glyphname = S.ss02;
layers = (
{
layerId = m01;
shapes = (
{
closed = 1;
nodes = (
(881,-20,o),
(1149,144,o),
(1186,498,cs),
(1217,803,o),
(1024,1007,o),
(775,1148,cs),
(524,1293,o),
(370,1412,o),
(387,1580,cs),
(407,1752,o),
(570,1865,o),
(861,1865,cs),
(1013,1865,o),
(1106,1790,o),
(1146,1681,cs),
(1164,1634,o),
(1210,1614,o),
(1257,1628,cs),
(1306,1644,o),
(1314,1700,o),
(1294,1758,cs),
(1244,1908,o),
(1100,2028,o),
(853,2028,cs),
(453,2028,o),
(246,1829,o),
(219,1595,cs),
(196,1342,o),
(403,1160,o),
(648,1021,cs),
(919,866,o),
(1033,725,o),
(1015,524,cs),
(990,258,o),
(780,143,o),
(567,143,cs),
(375,143,o),
(267,223,o),
(244,315,cs),
(229,374,o),
(177,394,o),
(127,380,cs),
(76,365,o),
(68,308,o),
(81,256,cs),
(121,93,o),
(301,-20,o),
(518,-20,cs)
);
},
{
closed = 1;
nodes = (
(308,0,o),
(139,106,o),
(101,260,cs),
(88,308,o),
(95,349,o),
(133,360,cs),
(175,372,o),
(213,358,o),
(224,311,cs),
(249,210,o),
(368,123,o),
(567,123,cs),
(787,123,o),
(1008,245,o),
(1035,522,cs),
(1053,732,o),
(933,881,o),
(658,1039,cs),
(415,1176,o),
(216,1351,o),
(239,1593,cs),
(265,1818,o),
(462,2008,o),
(853,2008,cs),
(1091,2008,o),
(1227,1895,o),
(1276,1752,cs),
(1293,1699,o),
(1287,1659,o),
(1251,1648,cs),
(1213,1636,o),
(1179,1650,o),
(1164,1689,cs),
(1122,1803,o),
(1021,1885,o),
(861,1885,cs),
(563,1885,o),
(389,1765,o),
(367,1582,cs),
(348,1402,o),
(512,1277,o),
(765,1130,cs),
(1011,991,o),
(1197,795,o),
(1166,500,cs),
(1131,157,o),
(874,0,o),
(518,0,cs)
);
}
);
vertWidth = 0;
width = 1291;
},
{
layerId = m002;
shapes = (
{
closed = 1;
nodes = (
(1161,-20,o),
(1433,174,o),
(1468,518,cs),
(1508,892,o),
(1266,1098,o),
(1052,1216,cs),
(865,1320,o),
(658,1454,o),
(672,1569,cs),
(684,1675,o),
(797,1712,o),
(983,1712,cs),
(1133,1712,o),
(1233,1645,o),
(1277,1566,cs),
(1327,1474,o),
(1427,1447,o),
(1520,1493,cs),
(1600,1534,o),
(1621,1614,o),
(1586,1696,cs),
(1492,1906,o),
(1318,2028,o),
(1027,2028,cs),
(594,2028,o),
(345,1882,o),
(312,1581,cs),
(280,1271,o),
(631,1052,o),
(833,942,cs),
(1050,827,o),
(1149,696,o),
(1134,533,cs),
(1120,389,o),
(982,317,o),
(759,317,cs),
(576,317,o),
(493,426,o),
(476,487,cs),
(445,598,o),
(338,634,o),
(254,607,cs),
(179,582,o),
(91,497,o),
(131,359,cs),
(180,190,o),
(406,-20,o),
(762,-20,cs)
);
},
{
closed = 1;
nodes = (
(424,20,o),
(215,214,o),
(169,371,cs),
(137,483,o),
(203,548,o),
(266,569,cs),
(335,591,o),
(413,564,o),
(438,477,cs),
(457,406,o),
(554,277,o),
(759,277,cs),
(996,277,o),
(1158,363,o),
(1174,529,cs),
(1191,710,o),
(1078,858,o),
(851,978,cs),
(652,1086,o),
(322,1292,o),
(352,1577,cs),
(383,1856,o),
(609,1988,o),
(1027,1988,cs),
(1304,1988,o),
(1461,1878,o),
(1550,1680,cs),
(1578,1613,o),
(1564,1561,o),
(1502,1529,cs),
(1425,1490,o),
(1353,1510,o),
(1313,1586,cs),
(1262,1674,o),
(1147,1752,o),
(983,1752,cs),
(786,1752,o),
(647,1704,o),
(632,1573,cs),
(615,1431,o),
(845,1286,o),
(1032,1182,cs),
(1242,1065,o),
(1466,874,o),
(1428,522,cs),
(1395,198,o),
(1145,20,o),
(762,20,cs)
);
}
);
vertWidth = 0;
width = 1570;
}
);
},
{
color = 10;
glyphname = T.ss02;
layers = (
{
layerId = m01;
shapes = (
{
closed = 1;
nodes = (
(1349,1848,ls),
(1419,1848,o),
(1432,1889,o),
(1432,1928,cs),
(1432,1968,o),
(1408,2008,o),
(1338,2008,cs),
(184,2008,ls),
(113,2008,o),
(96,1967,o),
(96,1928,cs),
(96,1885,o),
(127,1848,o),
(194,1848,cs),
(671,1848,l),
(488,125,ls),
(481,60,o),
(499,0,o),
(565,0,cs),
(636,0,o),
(656,62,o),
(661,113,cs),
(845,1848,l)
);
},
{
closed = 1;
nodes = (
(194,1868,ls),
(137,1868,o),
(116,1894,o),
(116,1928,cs),
(116,1962,o),
(128,1988,o),
(184,1988,cs),
(1338,1988,ls),
(1395,1988,o),
(1412,1961,o),
(1412,1928,cs),
(1412,1893,o),
(1404,1868,o),
(1349,1868,cs),
(827,1868,l),
(641,115,ls),
(636,67,o),
(621,20,o),
(565,20,cs),
(516,20,o),
(502,63,o),
(508,123,cs),
(693,1868,l)
);
}
);
vertWidth = 0;
width = 1137;
},
{
layerId = m002;
shapes = (
{
closed = 1;
nodes = (
(1370,1690,ls),
(1482,1690,o),
(1536,1763,o),
(1536,1848,cs),
(1536,1938,o),
(1450,2008,o),
(1349,2008,cs),
(210,2008,ls),
(106,2008,o),
(52,1936,o),
(50,1849,cs),
(47,1761,o),
(124,1690,o),
(233,1690,cs),
(591,1690,l),
(437,178,ls),
(427,80,o),
(502,0,o),
(608,0,cs),
(725,0,o),
(779,84,o),
(786,156,cs),
(943,1690,l)
);
},
{
closed = 1;
nodes = (
(233,1730,ls),
(143,1730,o),
(87,1781,o),
(90,1847,cs),
(92,1919,o),
(129,1968,o),
(210,1968,cs),
(1349,1968,ls),
(1433,1968,o),
(1496,1917,o),
(1496,1848,cs),
(1496,1779,o),
(1459,1730,o),
(1370,1730,cs),
(907,1730,l),
(746,160,ls),
(740,100,o),
(701,40,o),
(608,40,cs),
(523,40,o),
(469,97,o),
(477,174,cs),
(635,1730,l)
);
}
);
vertWidth = 0;
width = 1312;
}
);
},
{
color = 10;
glyphname = U.ss02;
layers = (
{
layerId = m01;
shapes = (
{
closed = 1;
nodes = (
(1570,1968,o),
(1541,2008,o),
(1480,2008,cs),
(1416,2008,o),
(1396,1966,o),
(1392,1926,cs),
(1260,724,ls),
(1223,386,o),
(1006,143,o),
(750,143,cs),
(515,143,o),
(369,373,o),
(403,693,cs),
(531,1911,ls),
(536,1963,o),
(504,2008,o),
(451,2008,cs),
(395,2008,o),
(361,1971,o),
(355,1918,cs),
(227,706,ls),
(183,290,o),
(407,-20,o),
(747,-20,cs),
(1099,-20,o),
(1394,296,o),
(1439,722,cs),
(1565,1916,ls)
);
},
{
closed = 1;
nodes = (
(380,1962,o),
(406,1988,o),
(451,1988,cs),
(492,1988,o),
(516,1957,o),
(511,1913,cs),
(383,695,ls),
(349,367,o),
(503,123,o),
(750,123,cs),
(1016,123,o),
(1242,377,o),
(1280,722,cs),
(1412,1924,ls),
(1416,1959,o),
(1429,1988,o),
(1480,1988,cs),
(1530,1988,o),
(1550,1961,o),
(1545,1918,cs),
(1419,724,ls),
(1375,306,o),
(1089,0,o),
(747,0,cs),
(419,0,o),
(204,297,o),
(247,704,cs),
(375,1916,ls)
);
}
);
vertWidth = 0;
width = 1630;
},
{
layerId = m002;
shapes = (
{
closed = 1;
nodes = (
(1690,1934,o),
(1640,2008,o),
(1510,2008,cs),
(1399,2008,o),
(1343,1933,o),
(1334,1855,cs),
(1213,774,ls),
(1181,489,o),
(1003,298,o),
(786,298,cs),
(610,298,o),
(501,475,o),
(530,742,cs),
(650,1848,ls),
(659,1931,o),
(611,2008,o),
(485,2008,cs),
(364,2008,o),
(306,1933,o),
(298,1855,cs),
(183,756,ls),
(136,306,o),
(391,-20,o),
(783,-20,cs),
(1179,-20,o),
(1513,314,o),
(1563,770,cs),
(1680,1846,ls)
);
},
{
closed = 1;
nodes = (
(345,1915,o),
(386,1968,o),
(485,1968,cs),
(586,1968,o),
(617,1918,o),
(610,1852,cs),
(490,746,ls),
(459,463,o),
(585,258,o),
(786,258,cs),
(1023,258,o),
(1219,470,o),
(1253,770,cs),
(1374,1851,ls),
(1381,1915,o),
(1421,1968,o),
(1510,1968,cs),
(1617,1968,o),
(1648,1921,o),
(1640,1850,cs),
(1523,774,ls),
(1475,334,o),
(1159,20,o),
(783,20,cs),
(414,20,o),
(178,321,o),
(223,752,cs),
(338,1851,ls)
);
}
);
vertWidth = 0;
width = 1703;
}
);
metricLeft = H.ss02;
metricRight = H.ss02;
},
{
color = 10;
glyphname = V.ss02;
layers = (
{
layerId = m01;
shapes = (
{
closed = 1;
nodes = (
(1483,1966,o),
(1445,2008,o),
(1393,2008,cs),
(1328,2008,o),
(1301,1981,o),
(1280,1927,cs),
(653,351,l),
(421,1926,ls),
(416,1959,o),
(401,2008,o),
(326,2008,cs),
(264,2008,o),
(240,1968,o),
(248,1915,cs),
(529,95,ls),
(535,53,o),
(566,0,o),
(627,0,cs),
(694,0,o),
(708,41,o),
(725,84,cs),
(1454,1895,ls)
);
},
{
closed = 1;
nodes = (
(261,1962,o),
(277,1988,o),
(326,1988,cs),
(386,1988,o),
(397,1954,o),
(401,1924,cs),
(637,324,ls),
(643,283,o),
(647,283,o),
(664,325,cs),
(1298,1919,ls),
(1318,1969,o),
(1337,1988,o),
(1393,1988,cs),
(1435,1988,o),
(1459,1960,o),
(1436,1903,cs),
(707,92,ls),
(689,47,o),
(680,20,o),
(627,20,cs),
(579,20,o),
(555,60,o),
(549,97,cs),
(268,1919,ls)
);
}
);
vertWidth = 0;
width = 1227;
},
{
layerId = m002;
shapes = (
{
closed = 1;
nodes = (
(1592,1919,o),
(1510,2008,o),
(1398,2008,cs),
(1303,2008,o),
(1231,1969,o),
(1202,1896,cs),
(728,681,l),
(561,1868,ls),
(550,1949,o),
(475,2008,o),
(367,2008,cs),
(266,2008,o),
(197,1950,o),
(214,1845,cs),
(486,160,ls),
(500,75,o),
(554,0,o),
(660,0,cs),
(758,0,o),
(815,59,o),
(842,124,cs),
(1542,1799,ls)
);
},
{
closed = 1;
nodes = (
(241,1931,o),
(283,1968,o),
(367,1968,cs),
(459,1968,o),
(512,1925,o),
(521,1864,cs),
(691,647,ls),
(707,531,o),
(717,530,o),
(762,646,cs),
(1240,1882,ls),
(1262,1938,o),
(1315,1968,o),
(1398,1968,cs),
(1488,1968,o),
(1544,1908,o),
(1504,1813,cs),
(806,140,ls),
(782,82,o),
(739,40,o),
(660,40,cs),
(576,40,o),
(538,93,o),
(526,166,cs),
(254,1851,ls)
);
}
);
vertWidth = 0;
width = 1418;
}
);
metricLeft = A.ss02;
},
{
color = 10;
glyphname = W.ss02;
layers = (
{
layerId = m01;
shapes = (
{
closed = 1;
nodes = (
(1579,86,ls),
(1585,44,o),
(1615,0,o),
(1673,0,cs),
(1739,0,o),
(1753,41,o),
(1770,84,cs),
(2506,1895,ls),
(2536,1969,o),
(2487,2008,o),
(2440,2008,cs),
(2375,2008,o),
(2355,1986,o),
(2332,1927,cs),
(1710,364,l),
(1472,1926,ls),
(1467,1962,o),
(1452,2008,o),
(1371,2008,cs),
(1315,2008,o),
(1285,1964,o),
(1271,1929,cs),
(651,355,l),
(421,1927,ls),
(416,1959,o),
(401,2008,o),
(325,2008,cs),
(264,2008,o),
(240,1968,o),
(248,1915,cs),
(529,95,ls),
(537,40,o),
(578,0,o),
(624,0,cs),
(694,0,o),
(711,54,o),
(724,87,cs),
(1343,1670,l)
);
},
{
closed = 1;
nodes = (
(261,1962,o),
(277,1988,o),
(325,1988,cs),
(386,1988,o),
(396,1954,o),
(401,1923,cs),
(633,338,ls),
(641,283,o),
(645,283,o),
(666,337,cs),
(1289,1921,ls),
(1302,1954,o),
(1326,1988,o),
(1371,1988,cs),
(1437,1988,o),
(1447,1957,o),
(1452,1924,cs),
(1693,339,ls),
(1700,293,o),
(1704,293,o),
(1723,341,cs),
(2350,1919,ls),
(2372,1975,o),
(2384,1988,o),
(2440,1988,cs),
(2478,1988,o),
(2512,1962,o),
(2488,1903,cs),
(1752,92,ls),
(1734,47,o),
(1725,20,o),
(1673,20,cs),
(1626,20,o),
(1605,53,o),
(1599,90,cs),
(1361,1689,ls),
(1353,1742,o),
(1349,1742,o),
(1329,1690,cs),
(706,95,ls),
(692,60,o),
(680,20,o),
(624,20,cs),
(587,20,o),
(556,51,o),
(549,97,cs),
(268,1919,ls)
);
}
);
vertWidth = 0;
width = 2279;
},
{
layerId = m002;
shapes = (
{
closed = 1;
nodes = (
(1531,152,ls),
(1545,54,o),
(1615,0,o),
(1707,0,cs),
(1794,0,o),
(1852,50,o),
(1892,145,cs),
(2597,1798,ls),
(2634,1885,o),
(2579,2008,o),
(2446,2008,cs),
(2337,2008,o),
(2278,1939,o),
(2259,1892,cs),
(1768,665,l),
(1590,1869,ls),
(1578,1953,o),
(1521,2008,o),
(1406,2008,cs),
(1294,2008,o),
(1249,1950,o),
(1221,1878,cs),
(734,615,l),
(563,1868,ls),
(552,1949,o),
(479,2008,o),
(371,2008,cs),
(270,2008,o),
(196,1950,o),
(213,1845,cs),
(483,152,ls),
(499,54,o),
(570,0,o),
(662,0,cs),
(746,0,o),
(806,49,o),
(846,145,cs),
(1354,1368,l)
);
},
{
closed = 1;
nodes = (
(240,1931,o),
(287,1968,o),
(371,1968,cs),
(463,1968,o),
(515,1926,o),
(523,1864,cs),
(695,585,ls),
(713,450,o),
(717,450,o),
(768,584,cs),
(1259,1864,ls),
(1283,1928,o),
(1314,1968,o),
(1406,1968,cs),
(1502,1968,o),
(1540,1931,o),
(1550,1863,cs),
(1730,638,ls),
(1746,529,o),
(1757,529,o),
(1799,634,cs),
(2295,1876,ls),
(2311,1917,o),
(2358,1968,o),
(2446,1968,cs),
(2550,1968,o),
(2589,1881,o),
(2561,1814,cs),
(1856,161,ls),
(1820,76,o),
(1778,40,o),
(1707,40,cs),
(1631,40,o),
(1583,78,o),
(1571,158,cs),
(1385,1412,ls),
(1372,1498,o),
(1364,1498,o),
(1328,1412,cs),
(810,161,ls),
(774,75,o),
(730,40,o),
(662,40,cs),
(586,40,o),
(536,78,o),
(523,158,cs),
(253,1851,ls)
);
}
);
vertWidth = 0;
width = 2471;
}
);
metricLeft = A.ss02;
},
{
color = 10;
glyphname = X.ss02;
layers = (
{
layerId = m01;
shapes = (
{
closed = 1;
nodes = (
(1370,1864,ls),
(1403,1915,o),
(1392,1966,o),
(1362,1989,cs),
(1325,2018,o),
(1258,2016,o),
(1224,1963,cs),
(715,1181,l),
(372,1944,ls),
(344,2006,o),
(282,2014,o),
(243,1998,cs),
(201,1981,o),
(182,1942,o),
(209,1881,cs),
(593,1022,l),
(7,132,ls),
(-19,92,o),
(-9,46,o),
(25,20,cs),
(64,-10,o),
(124,-6,o),
(156,43,cs),
(677,834,l),
(1022,68,ls),
(1050,5,o),
(1111,-11,o),
(1155,11,cs),
(1187,29,o),
(1212,70,o),
(1188,123,cs),
(799,992,l)
);
},
{
closed = 1;
nodes = (
(683,873,o),
(679,873,o),
(664,850,cs),
(140,55,ls),
(113,15,o),
(69,11,o),
(37,36,cs),
(10,57,o),
(2,90,o),
(23,122,cs),
(615,1020,l),
(227,1889,ls),
(203,1943,o),
(219,1967,o),
(251,1980,cs),
(282,1993,o),
(331,1988,o),
(354,1936,cs),
(700,1164,ls),
(710,1141,o),
(712,1141,o),
(727,1164,cs),
(1240,1953,ls),
(1268,1996,o),
(1320,1997,o),
(1350,1973,cs),
(1373,1955,o),
(1382,1918,o),
(1354,1876,cs),
(777,994,l),
(1170,115,ls),
(1189,73,o),
(1172,43,o),
(1145,29,cs),
(1110,11,o),
(1064,23,o),
(1040,76,cs),
(693,850,ls)
);
}
);
vertWidth = 0;
width = 1186;
},
{
layerId = m002;
shapes = (
{
closed = 1;
nodes = (
(1541,1755,ls),
(1597,1837,o),
(1569,1914,o),
(1505,1968,cs),
(1438,2025,o),
(1300,2029,o),
(1244,1941,cs),
(850,1321,l),
(586,1912,ls),
(542,2011,o),
(417,2024,o),
(345,1998,cs),
(254,1966,o),
(215,1891,o),
(264,1781,cs),
(605,1016,l),
(80,246,ls),
(30,173,o),
(48,101,o),
(112,46,cs),
(182,-9,o),
(320,-26,o),
(376,61,cs),
(762,665,l),
(1015,98,ls),
(1060,-3,o),
(1204,-20,o),
(1282,20,cs),
(1353,59,o),
(1383,130,o),
(1345,215,cs),
(1008,969,l)
);
},
{
closed = 1;
nodes = (
(769,747,o),
(766,746,o),
(738,702,cs),
(342,81,ls),
(302,18,o),
(196,31,o),
(138,76,cs),
(86,121,o),
(75,167,o),
(114,224,cs),
(651,1012,l),
(300,1797,ls),
(261,1885,o),
(285,1932,o),
(359,1960,cs),
(422,1980,o),
(516,1971,o),
(550,1896,cs),
(820,1291,ls),
(844,1238,o),
(847,1241,o),
(878,1290,cs),
(1278,1919,ls),
(1320,1985,o),
(1426,1983,o),
(1479,1938,cs),
(1533,1892,o),
(1551,1842,o),
(1507,1777,cs),
(962,973,l),
(1309,199,ls),
(1339,132,o),
(1319,86,o),
(1264,56,cs),
(1199,23,o),
(1086,36,o),
(1051,114,cs),
(789,702,ls)
);
}
);
vertWidth = 0;
width = 1435;
}
);
},
{
color = 10;
glyphname = Y.ss02;
layers = (
{
layerId = m01;
shapes = (
{
closed = 1;
nodes = (
(1579,1917,o),
(1566,1971,o),
(1516,1998,cs),
(1473,2021,o),
(1429,2007,o),
(1398,1955,cs),
(848,1017,l),
(423,1939,ls),
(404,1979,o),
(368,2025,o),
(304,2001,cs),
(242,1981,o),
(235,1932,o),
(259,1879,cs),
(739,829,l),
(330,133,ls),
(307,93,o),
(308,48,o),
(344,21,cs),
(382,-8,o),
(446,-10,o),
(476,42,cs),
(1548,1865,ls)
);
},
{
closed = 1;
nodes = (
(277,1887,ls),
(256,1933,o),
(261,1966,o),
(310,1983,cs),
(361,2001,o),
(388,1968,o),
(405,1931,cs),
(833,1001,ls),
(844,977,o),
(848,977,o),
(864,1004,cs),
(1416,1945,ls),
(1441,1988,o),
(1472,1998,o),
(1506,1980,cs),
(1548,1958,o),
(1555,1918,o),
(1530,1875,cs),
(458,52,ls),
(434,11,o),
(388,13,o),
(356,37,cs),
(329,57,o),
(328,88,o),
(348,123,cs),
(761,827,l)
);
}
);
vertWidth = 0;
width = 1260;
},
{
layerId = m002;
shapes = (
{
closed = 1;
nodes = (
(1657,1839,o),
(1630,1938,o),
(1543,1989,cs),
(1470,2028,o),
(1353,2008,o),
(1298,1917,cs),
(875,1213,l),
(572,1910,ls),
(538,1989,o),
(445,2032,o),
(337,1996,cs),
(229,1960,o),
(209,1860,o),
(247,1779,cs),
(669,871,l),
(303,261,ls),
(259,188,o),
(277,89,o),
(341,34,cs),
(413,-24,o),
(558,-6,o),
(608,78,cs),
(1608,1757,ls)
);
},
{
closed = 1;
nodes = (
(283,1795,ls),
(252,1862,o),
(266,1930,o),
(349,1958,cs),
(440,1988,o),
(509,1957,o),
(536,1894,cs),
(842,1187,ls),
(867,1128,o),
(871,1128,o),
(908,1190,cs),
(1332,1897,ls),
(1376,1970,o),
(1465,1987,o),
(1523,1955,cs),
(1595,1915,o),
(1613,1843,o),
(1574,1777,cs),
(574,98,ls),
(536,34,o),
(423,20,o),
(367,64,cs),
(315,109,o),
(302,182,o),
(337,241,cs),
(715,869,l)
);
}
);
vertWidth = 0;
width = 1426;
}
);
},
{
color = 10;
glyphname = Z.ss02;
layers = (
{
layerId = m01;
shapes = (
{
closed = 1;
nodes = (
(1249,0,o),
(1267,46,o),
(1264,89,cs),
(1261,128,o),
(1240,163,o),
(1171,163,cs),
(289,163,l),
(1430,1866,ls),
(1481,1942,o),
(1421,2008,o),
(1360,2008,cs),
(325,2008,ls),
(254,2008,o),
(234,1962,o),
(237,1922,cs),
(239,1879,o),
(267,1848,o),
(335,1848,cs),
(1219,1848,l),
(70,136,ls),
(29,74,o),
(68,0,o),
(149,0,cs),
(1179,0,ls)
);
},
{
closed = 1;
nodes = (
(82,20,o),
(53,75,o),
(86,124,cs),
(1239,1841,ls),
(1254,1864,o),
(1258,1868,o),
(1224,1868,cs),
(335,1868,ls),
(277,1868,o),
(259,1888,o),
(257,1924,cs),
(254,1957,o),
(268,1988,o),
(325,1988,cs),
(1360,1988,ls),
(1410,1988,o),
(1455,1938,o),
(1414,1876,cs),
(269,170,ls),
(253,146,o),
(253,143,o),
(283,143,cs),
(1171,143,ls),
(1227,143,o),
(1241,121,o),
(1244,87,cs),
(1247,51,o),
(1234,20,o),
(1179,20,cs),
(149,20,ls)
);
}
);
vertWidth = 0;
width = 1403;
},
{
layerId = m002;
shapes = (
{
closed = 1;
nodes = (
(1317,0,o),
(1372,70,o),
(1372,153,cs),
(1372,247,o),
(1300,318,o),
(1196,318,cs),
(514,318,l),
(1479,1751,ls),
(1551,1858,o),
(1497,2008,o),
(1347,2008,cs),
(343,2008,ls),
(238,2008,o),
(174,1936,o),
(180,1847,cs),
(187,1761,o),
(254,1690,o),
(364,1690,cs),
(1028,1690,l),
(66,247,ls),
(0,149,o),
(60,0,o),
(213,0,cs),
(1206,0,ls)
);
},
{
closed = 1;
nodes = (
(91,40,o),
(48,148,o),
(100,225,cs),
(1072,1682,ls),
(1101,1725,o),
(1102,1730,o),
(1042,1730,cs),
(364,1730,ls),
(274,1730,o),
(225,1781,o),
(220,1849,cs),
(215,1919,o),
(259,1968,o),
(343,1968,cs),
(1347,1968,ls),
(1466,1968,o),
(1505,1861,o),
(1445,1773,cs),
(469,324,ls),
(439,279,o),
(446,278,o),
(493,278,cs),
(1196,278,ls),
(1281,278,o),
(1332,228,o),
(1332,153,cs),
(1332,87,o),
(1295,40,o),
(1206,40,cs),
(213,40,ls)
);
}
);
vertWidth = 0;
width = 1454;
}
);
},
{
color = 7;
glyphname = A.ss04;
layers = (
{
layerId = m01;
shapes = (
{
closed = 1;
nodes = (
(1065,1971,o),
(1045,2008,o),
(981,2008,cs),
(924,2008,o),
(896,1979,o),
(878,1939,cs),
(67,129,ls),
(33,53,o),
(53,19,o),
(106,4,cs),
(162,-10,o),
(202,19,o),
(225,71,cs),
(629,999,l),
(1050,999,l),
(1184,85,ls),
(1191,34,o),
(1202,-6,o),
(1276,0,cs),
(1344,6,o),
(1361,47,o),
(1352,105,cs),
(1071,1935,ls)
);
},
{
closed = 1;
nodes = (
(615,1019,l),
(207,79,ls),
(187,32,o),
(155,12,o),
(112,24,cs),
(70,35,o),
(55,55,o),
(85,121,cs),
(896,1931,ls),
(913,1968,o),
(934,1988,o),
(981,1988,cs),
(1032,1988,o),
(1046,1964,o),
(1051,1931,cs),
(1332,103,ls),
(1340,50,o),
(1327,24,o),
(1274,20,cs),
(1218,16,o),
(1211,38,o),
(1204,87,cs),
(1068,1019,l)
);
},
{
closed = 1;
nodes = (
(944,1727,l),
(1027,1160,l),
(698,1160,l)
);
},
{
closed = 1;
nodes = (
(1051,1140,l),
(958,1773,ls),
(955,1791,o),
(951,1792,o),
(942,1771,cs),
(668,1140,l)
);
},
{
closed = 1;
nodes = (
(997,1882,o),
(1013,1899,o),
(1013,1920,cs),
(1013,1941,o),
(997,1957,o),
(976,1957,cs),
(955,1957,o),
(938,1941,o),
(938,1920,cs),
(938,1899,o),
(955,1882,o),
(976,1882,cs)
);
}
);
vertWidth = 0;
width = 1504;
},
{
layerId = m002;
shapes = (
{
closed = 1;
nodes = (
(1144,1968,o),
(1078,2008,o),
(984,2008,cs),
(877,2008,o),
(836,1966,o),
(812,1912,cs),
(45,211,ls),
(0,111,o),
(53,49,o),
(136,16,cs),
(215,-13,o),
(319,-9,o),
(362,93,cs),
(658,795,l),
(1012,795,l),
(1094,148,ls),
(1110,23,o),
(1181,-15,o),
(1292,3,cs),
(1390,18,o),
(1441,74,o),
(1423,190,cs),
(1152,1915,ls)
);
},
{
closed = 1;
nodes = (
(632,835,l),
(326,109,ls),
(291,26,o),
(213,30,o),
(150,54,cs),
(84,80,o),
(45,115,o),
(81,195,cs),
(848,1896,ls),
(870,1944,o),
(898,1968,o),
(984,1968,cs),
(1064,1968,o),
(1107,1942,o),
(1112,1909,cs),
(1383,184,ls),
(1399,85,o),
(1363,54,o),
(1286,43,cs),
(1196,28,o),
(1148,46,o),
(1134,154,cs),
(1048,835,l)
);
},
{
closed = 1;
nodes = (
(931,1444,l),
(976,1082,l),
(779,1082,l)
);
},
{
closed = 1;
nodes = (
(1022,1042,l),
(963,1503,ls),
(953,1585,o),
(947,1586,o),
(913,1505,cs),
(719,1042,l)
);
},
{
closed = 1;
nodes = (
(1010,1792,o),
(1037,1819,o),
(1037,1852,cs),
(1037,1885,o),
(1010,1912,o),
(977,1912,cs),
(944,1912,o),
(917,1885,o),
(917,1852,cs),
(917,1819,o),
(944,1792,o),
(977,1792,cs)
);
}
);
vertWidth = 0;
width = 1539;
}
);
metricLeft = A.ss02;
metricRight = A.ss02;
},
{
color = 7;
glyphname = B.ss04;
layers = (
{
layerId = m01;
shapes = (
{
closed = 1;
nodes = (
(158,50,o),
(195,0,o),
(249,0,cs),
(956,0,o),
(1409,204,o),
(1451,587,cs),
(1479,846,o),
(1329,1019,o),
(1044,1100,c),
(1372,1195,o),
(1430,1355,o),
(1451,1522,cs),
(1493,1844,o),
(1126,2043,o),
(449,2001,cs),
(393,1998,o),
(361,1971,o),
(354,1909,cs),
(164,107,ls)
);
},
{
closed = 1;
nodes = (
(380,1960,o),
(402,1978,o),
(451,1981,cs),
(1119,2023,o),
(1473,1831,o),
(1432,1524,cs),
(1409,1354,o),
(1352,1201,o),
(1002,1110,cs),
(972,1102,o),
(973,1098,o),
(1001,1091,cs),
(1304,1017,o),
(1460,849,o),
(1431,589,cs),
(1390,220,o),
(952,20,o),
(249,20,cs),
(207,20,o),
(179,57,o),
(184,105,cs),
(374,1907,ls)
);
},
{
closed = 1;
nodes = (
(918,146,o),
(1267,315,o),
(1297,610,cs),
(1325,894,o),
(985,1073,o),
(418,1025,c),
(324,143,l)
);
},
{
closed = 1;
nodes = (
(984,1049,o),
(1303,879,o),
(1277,612,cs),
(1249,333,o),
(922,170,o),
(346,163,c),
(436,1007,l)
);
},
{
closed = 1;
nodes = (
(459,1886,o),
(475,1903,o),
(475,1924,cs),
(475,1945,o),
(459,1961,o),
(438,1961,cs),
(417,1961,o),
(400,1945,o),
(400,1924,cs),
(400,1903,o),
(417,1886,o),
(438,1886,cs)
);
},
{
closed = 1;
nodes = (
(1156,1169,o),
(1272,1340,o),
(1298,1535,cs),
(1323,1727,o),
(1044,1916,o),
(505,1879,c),
(430,1142,l)
);
},
{
closed = 1;
nodes = (
(1042,1892,o),
(1300,1713,o),
(1278,1537,cs),
(1254,1351,o),
(1145,1193,o),
(452,1162,c),
(523,1861,l)
);
}
);
vertWidth = 0;
width = 1556;
},
{
layerId = m002;
shapes = (
{
closed = 1;
nodes = (
(112,82,o),
(183,1,o),
(288,1,cs),
(1029,1,o),
(1508,197,o),
(1549,575,cs),
(1572,780,o),
(1459,975,o),
(1225,1071,c),
(1480,1170,o),
(1530,1288,o),
(1551,1477,cs),
(1593,1865,o),
(1204,2049,o),
(484,2001,cs),
(379,1996,o),
(311,1978,o),
(296,1835,cs),
(123,187,ls)
);
},
{
closed = 1;
nodes = (
(348,1945,o),
(386,1956,o),
(486,1961,cs),
(1190,2008,o),
(1550,1841,o),
(1510,1481,cs),
(1489,1291,o),
(1441,1180,o),
(1163,1091,cs),
(1110,1074,o),
(1114,1069,o),
(1164,1051,cs),
(1415,960,o),
(1532,781,o),
(1510,579,cs),
(1471,227,o),
(1018,41,o),
(288,41,cs),
(204,41,o),
(154,98,o),
(163,183,cs),
(336,1831,ls)
);
},
{
closed = 1;
nodes = (
(910,304,o),
(1207,409,o),
(1235,615,cs),
(1259,792,o),
(986,938,o),
(499,925,c),
(433,300,l)
);
},
{
closed = 1;
nodes = (
(986,892,o),
(1214,760,o),
(1195,621,cs),
(1171,446,o),
(916,352,o),
(477,340,c),
(535,885,l)
);
},
{
closed = 1;
nodes = (
(479,1792,o),
(506,1819,o),
(506,1852,cs),
(506,1885,o),
(479,1912,o),
(446,1912,cs),
(413,1912,o),
(386,1885,o),
(386,1852,cs),
(386,1819,o),
(413,1792,o),
(446,1792,cs)
);
},
{
closed = 1;
nodes = (
(1124,1161,o),
(1222,1267,o),
(1245,1464,cs),
(1263,1621,o),
(1011,1754,o),
(578,1719,c),
(520,1130,l)
);
},
{
closed = 1;
nodes = (
(1007,1705,o),
(1220,1593,o),
(1205,1468,cs),
(1184,1290,o),
(1104,1207,o),
(564,1172,c),
(614,1681,l)
);
}
);
vertWidth = 0;
width = 1605;
}
);
metricLeft = B.ss02;
metricRight = B.ss02;
},
{
color = 7;
glyphname = C.ss04;
layers = (
{
layerId = m01;
shapes = (
{
closed = 1;
nodes = (
(1034,-20,o),
(1277,195,o),
(1373,389,cs),
(1414,471,o),
(1423,521,o),
(1364,553,cs),
(1304,582,o),
(1263,544,o),
(1225,471,cs),
(1148,319,o),
(983,143,o),
(738,143,cs),
(443,143,o),
(324,474,o),
(428,1031,cs),
(520,1546,o),
(756,1865,o),
(1047,1865,cs),
(1191,1865,o),
(1310,1756,o),
(1374,1708,cs),
(1408,1682,o),
(1471,1657,o),
(1515,1710,cs),
(1558,1762,o),
(1532,1813,o),
(1501,1840,cs),
(1416,1919,o),
(1283,2028,o),
(1037,2028,cs),
(667,2028,o),
(367,1659,o),
(252,1053,cs),
(126,389,o),
(314,-20,o),
(751,-20,cs)
);
},
{
closed = 1;
nodes = (
(327,0,o),
(147,394,o),
(272,1049,cs),
(385,1650,o),
(678,2008,o),
(1037,2008,cs),
(1275,2008,o),
(1402,1903,o),
(1487,1826,cs),
(1515,1801,o),
(1534,1764,o),
(1499,1722,cs),
(1465,1681,o),
(1417,1700,o),
(1386,1724,cs),
(1322,1772,o),
(1199,1885,o),
(1047,1885,cs),
(745,1885,o),
(502,1555,o),
(408,1035,cs),
(303,469,o),
(428,123,o),
(738,123,cs),
(992,123,o),
(1164,307,o),
(1243,461,cs),
(1279,531,o),
(1309,558,o),
(1354,535,cs),
(1400,510,o),
(1393,476,o),
(1355,399,cs),
(1260,208,o),
(1025,0,o),
(751,0,cs)
);
},
{
closed = 1;
nodes = (
(1477,1728,o),
(1493,1745,o),
(1493,1766,cs),
(1493,1787,o),
(1477,1803,o),
(1456,1803,cs),
(1435,1803,o),
(1418,1787,o),
(1418,1766,cs),
(1418,1745,o),
(1435,1728,o),
(1456,1728,cs)
);
}
);
vertWidth = 0;
width = 1512;
},
{
layerId = m002;
shapes = (
{
closed = 1;
nodes = (
(1154,-20,o),
(1418,170,o),
(1525,365,cs),
(1602,507,o),
(1549,619,o),
(1464,663,cs),
(1375,711,o),
(1293,674,o),
(1250,584,cs),
(1181,436,o),
(1042,293,o),
(813,293,cs),
(595,293,o),
(508,507,o),
(573,1020,cs),
(626,1468,o),
(807,1709,o),
(1130,1709,cs),
(1244,1709,o),
(1365,1625,o),
(1430,1578,cs),
(1507,1525,o),
(1599,1537,o),
(1654,1633,cs),
(1712,1738,o),
(1668,1840,o),
(1605,1886,cs),
(1524,1945,o),
(1301,2028,o),
(1109,2028,cs),
(615,2028,o),
(313,1699,o),
(221,1062,cs),
(124,402,o),
(321,-20,o),
(808,-20,cs)
);
},
{
closed = 1;
nodes = (
(350,20,o),
(166,411,o),
(261,1056,cs),
(351,1679,o),
(635,1988,o),
(1109,1988,cs),
(1293,1988,o),
(1505,1909,o),
(1581,1854,cs),
(1634,1815,o),
(1667,1738,o),
(1620,1653,cs),
(1576,1576,o),
(1515,1568,o),
(1454,1610,cs),
(1388,1657,o),
(1256,1749,o),
(1130,1749,cs),
(784,1749,o),
(588,1485,o),
(533,1024,cs),
(467,498,o),
(565,253,o),
(813,253,cs),
(1060,253,o),
(1214,411,o),
(1286,566,cs),
(1322,641,o),
(1376,665,o),
(1446,627,cs),
(1516,591,o),
(1556,506,o),
(1489,385,cs),
(1388,199,o),
(1140,20,o),
(808,20,cs)
);
},
{
closed = 1;
nodes = (
(1535,1678,o),
(1562,1705,o),
(1562,1738,cs),
(1562,1771,o),
(1535,1798,o),
(1502,1798,cs),
(1469,1798,o),
(1442,1771,o),
(1442,1738,cs),
(1442,1705,o),
(1469,1678,o),
(1502,1678,cs)
);
}
);
vertWidth = 0;
width = 1598;
}
);
metricLeft = C.ss02;
metricRight = C.ss02;
},
{
color = 7;
glyphname = D.ss04;
layers = (
{
layerId = m01;
shapes = (
{
closed = 1;
nodes = (
(1069,1,o),
(1406,390,o),
(1480,1050,cs),
(1546,1631,o),
(1214,2008,o),
(628,2008,cs),
(456,2008,ls),
(379,2008,o),
(360,1968,o),
(355,1916,cs),
(163,95,ls),
(157,42,o),
(191,1,o),
(251,1,cs),
(449,1,ls)
);
},
{
closed = 1;
nodes = (
(202,21,o),
(179,50,o),
(184,93,cs),
(375,1914,ls),
(380,1961,o),
(392,1988,o),
(456,1988,cs),
(628,1988,ls),
(1203,1988,o),
(1525,1623,o),
(1460,1052,cs),
(1387,399,o),
(1058,21,o),
(449,21,cs),
(251,21,ls)
);
},
{
closed = 1;
nodes = (
(438,144,ls),
(983,144,o),
(1261,466,o),
(1329,1063,cs),
(1382,1537,o),
(1116,1868,o),
(649,1868,cs),
(504,1868,l),
(322,144,l)
);
},
{
closed = 1;
nodes = (
(522,1848,l),
(649,1848,ls),
(1104,1848,o),
(1361,1529,o),
(1309,1065,cs),
(1242,475,o),
(972,164,o),
(438,164,cs),
(345,164,l)
);
},
{
closed = 1;
nodes = (
(459,1886,o),
(475,1903,o),
(475,1924,cs),
(475,1945,o),
(459,1961,o),
(438,1961,cs),
(417,1961,o),
(400,1945,o),
(400,1924,cs),
(400,1903,o),
(417,1886,o),
(438,1886,cs)
);
}
);
vertWidth = 0;
width = 1527;
},
{
layerId = m002;
shapes = (
{
closed = 1;
nodes = (
(1130,0,o),
(1526,387,o),
(1595,1036,cs),
(1656,1625,o),
(1291,2008,o),
(686,2008,cs),
(468,2008,ls),
(364,2008,o),
(309,1958,o),
(299,1863,cs),
(121,173,ls),
(111,78,o),
(185,0,o),
(290,0,cs),
(524,0,ls)
);
},
{
closed = 1;
nodes = (
(205,40,o),
(153,95,o),
(161,169,cs),
(339,1859,ls),
(347,1936,o),
(382,1968,o),
(468,1968,cs),
(686,1968,ls),
(1270,1968,o),
(1614,1608,o),
(1555,1040,cs),
(1488,407,o),
(1111,40,o),
(524,40,cs),
(290,40,ls)
);
},
{
closed = 1;
nodes = (
(505,276,ls),
(958,276,o),
(1248,524,o),
(1296,1046,cs),
(1339,1522,o),
(1077,1737,o),
(652,1737,cs),
(596,1737,l),
(442,276,l)
);
},
{
closed = 1;
nodes = (
(631,1697,l),
(652,1697,ls),
(1058,1697,o),
(1297,1503,o),
(1256,1050,cs),
(1210,546,o),
(940,316,o),
(505,316,cs),
(486,316,l)
);
},
{
closed = 1;
nodes = (
(479,1792,o),
(506,1819,o),
(506,1852,cs),
(506,1885,o),
(479,1912,o),
(446,1912,cs),
(413,1912,o),
(386,1885,o),
(386,1852,cs),
(386,1819,o),
(413,1792,o),
(446,1792,cs)
);
}
);
vertWidth = 0;
width = 1683;
}
);
metricLeft = D.ss02;
metricRight = D.ss02;
},
{
color = 7;
glyphname = E.ss04;
layers = (
{
layerId = m01;
shapes = (
{
closed = 1;
nodes = (
(1290,0,o),
(1315,42,o),
(1315,85,cs),
(1315,126,o),
(1290,163,o),
(1221,163,cs),
(346,163,l),
(434,999,l),
(1248,999,ls),
(1313,999,o),
(1349,1040,o),
(1349,1082,cs),
(1349,1122,o),
(1323,1162,o),
(1254,1162,cs),
(451,1162,l),
(524,1848,l),
(1415,1848,ls),
(1485,1848,o),
(1509,1887,o),
(1509,1928,cs),
(1509,1968,o),
(1485,2008,o),
(1415,2008,cs),
(456,2008,ls),
(378,2008,o),
(360,1967,o),
(355,1916,cs),
(163,94,ls),
(157,41,o),
(190,0,o),
(251,0,cs),
(1221,0,ls)
);
},
{
closed = 1;
nodes = (
(201,20,o),
(178,49,o),
(183,92,cs),
(375,1914,ls),
(380,1961,o),
(392,1988,o),
(456,1988,cs),
(1415,1988,ls),
(1472,1988,o),
(1489,1961,o),
(1489,1928,cs),
(1489,1894,o),
(1473,1868,o),
(1415,1868,cs),
(505,1868,l),
(429,1142,l),
(1254,1142,ls),
(1311,1142,o),
(1329,1115,o),
(1329,1082,cs),
(1329,1050,o),
(1303,1019,o),
(1248,1019,cs),
(416,1019,l),
(323,143,l),
(1221,143,ls),
(1278,143,o),
(1295,119,o),
(1295,85,cs),
(1295,49,o),
(1277,20,o),
(1221,20,cs),
(251,20,ls)
);
},
{
closed = 1;
nodes = (
(459,1886,o),
(475,1903,o),
(475,1924,cs),
(475,1945,o),
(459,1961,o),
(438,1961,cs),
(417,1961,o),
(400,1945,o),
(400,1924,cs),
(400,1903,o),
(417,1886,o),
(438,1886,cs)
);
}
);
vertWidth = 0;
width = 1444;
},
{
guides = (
{
angle = 264.0051;
pos = (1531,836);
}
);
layerId = m002;
shapes = (
{
closed = 1;
nodes = (
(1405,0,o),
(1462,93,o),
(1462,181,cs),
(1462,267,o),
(1396,318,o),
(1279,318,cs),
(487,318,l),
(545,870,l),
(1298,870,ls),
(1407,870,o),
(1476,938,o),
(1476,1022,cs),
(1476,1116,o),
(1398,1172,o),
(1295,1172,cs),
(577,1172,l),
(631,1690,l),
(1470,1690,ls),
(1572,1690,o),
(1638,1762,o),
(1638,1853,cs),
(1638,1943,o),
(1563,2008,o),
(1457,2008,cs),
(476,2008,ls),
(372,2008,o),
(310,1968,o),
(300,1870,cs),
(122,175,ls),
(112,81,o),
(157,0,o),
(264,0,cs),
(1292,0,ls)
);
},
{
closed = 1;
nodes = (
(183,40,o),
(154,92,o),
(162,171,cs),
(340,1866,ls),
(348,1943,o),
(386,1968,o),
(476,1968,cs),
(1457,1968,ls),
(1545,1968,o),
(1598,1922,o),
(1598,1853,cs),
(1598,1780,o),
(1552,1730,o),
(1470,1730,cs),
(595,1730,l),
(533,1132,l),
(1295,1132,ls),
(1382,1132,o),
(1436,1093,o),
(1436,1022,cs),
(1436,957,o),
(1388,910,o),
(1298,910,cs),
(509,910,l),
(443,278,l),
(1279,278,ls),
(1379,278,o),
(1422,244,o),
(1422,181,cs),
(1422,107,o),
(1380,40,o),
(1292,40,cs),
(264,40,ls)
);
},
{
closed = 1;
nodes = (
(479,1792,o),
(506,1819,o),
(506,1852,cs),
(506,1885,o),
(479,1912,o),
(446,1912,cs),
(413,1912,o),
(386,1885,o),
(386,1852,cs),
(386,1819,o),
(413,1792,o),
(446,1792,cs)
);
}
);
vertWidth = 0;
width = 1581;
}
);
metricLeft = E.ss02;
metricRight = E.ss02;
},
{
color = 7;
glyphname = F.ss04;
layers = (
{
layerId = m01;
shapes = (
{
closed = 1;
nodes = (
(1225,999,ls),
(1293,999,o),
(1323,1042,o),
(1323,1082,cs),
(1323,1124,o),
(1292,1162,o),
(1225,1162,cs),
(451,1162,l),
(523,1848,l),
(1415,1848,ls),
(1485,1848,o),
(1509,1887,o),
(1509,1928,cs),
(1509,1968,o),
(1485,2008,o),
(1415,2008,cs),
(456,2008,ls),
(378,2008,o),
(360,1967,o),
(355,1916,cs),
(163,94,ls),
(157,41,o),
(190,0,o),
(251,0,cs),
(327,0,o),
(335,56,o),
(338,87,cs),
(434,999,l)
);
},
{
closed = 1;
nodes = (
(380,1961,o),
(392,1988,o),
(456,1988,cs),
(1415,1988,ls),
(1472,1988,o),
(1489,1961,o),
(1489,1928,cs),
(1489,1894,o),
(1473,1868,o),
(1415,1868,cs),
(505,1868,l),
(429,1142,l),
(1225,1142,ls),
(1282,1142,o),
(1303,1115,o),
(1303,1082,cs),
(1303,1049,o),
(1282,1019,o),
(1225,1019,cs),
(416,1019,l),
(318,89,ls),
(315,58,o),
(309,20,o),
(251,20,cs),
(201,20,o),
(178,49,o),
(183,92,cs),
(375,1914,ls)
);
},
{
closed = 1;
nodes = (
(459,1886,o),
(475,1903,o),
(475,1924,cs),
(475,1945,o),
(459,1961,o),
(438,1961,cs),
(417,1961,o),
(400,1945,o),
(400,1924,cs),
(400,1903,o),
(417,1886,o),
(438,1886,cs)
);
}
);
vertWidth = 0;
width = 1444;
},
{
layerId = m002;
shapes = (
{
closed = 1;
nodes = (
(1264,838,ls),
(1376,838,o),
(1427,909,o),
(1427,991,cs),
(1427,1085,o),
(1351,1141,o),
(1249,1141,cs),
(574,1141,l),
(632,1690,l),
(1427,1690,ls),
(1529,1690,o),
(1605,1743,o),
(1605,1848,cs),
(1605,1945,o),
(1530,2008,o),
(1424,2008,cs),
(469,2008,ls),
(364,2008,o),
(309,1965,o),
(299,1868,cs),
(123,188,ls),
(113,96,o),
(162,0,o),
(262,0,cs),
(402,0,o),
(462,75,o),
(473,177,cs),
(542,838,l)
);
},
{
closed = 1;
nodes = (
(347,1942,o),
(380,1968,o),
(469,1968,cs),
(1424,1968,ls),
(1513,1968,o),
(1565,1924,o),
(1565,1848,cs),
(1565,1766,o),
(1514,1730,o),
(1427,1730,cs),
(595,1730,l),
(529,1101,l),
(1249,1101,ls),
(1335,1101,o),
(1387,1062,o),
(1387,991,cs),
(1387,925,o),
(1353,878,o),
(1264,878,cs),
(506,878,l),
(433,181,ls),
(424,93,o),
(380,40,o),
(262,40,cs),
(188,40,o),
(155,107,o),
(163,184,cs),
(339,1864,ls)
);
},
{
closed = 1;
nodes = (
(479,1792,o),
(506,1819,o),
(506,1852,cs),
(506,1885,o),
(479,1912,o),
(446,1912,cs),
(413,1912,o),
(386,1885,o),
(386,1852,cs),
(386,1819,o),
(413,1792,o),
(446,1792,cs)
);
}
);
vertWidth = 0;
width = 1549;
}
);
metricLeft = F.ss02;
metricRight = F.ss02;
},
{
color = 7;
glyphname = G.ss04;
layers = (
{
layerId = m01;
shapes = (
{
closed = 1;
nodes = (
(1167,56,o),
(1179,3,o),
(1250,0,cs),
(1329,-3,o),
(1342,57,o),
(1349,121,cs),
(1440,988,ls),
(1446,1047,o),
(1402,1082,o),
(1345,1082,cs),
(1283,1082,o),
(1265,1045,o),
(1254,1002,c),
(1057,422,o),
(788,143,o),
(599,143,cs),
(333,143,o),
(222,474,o),
(313,1031,cs),
(403,1554,o),
(651,1865,o),
(971,1865,cs),
(1183,1865,o),
(1273,1756,o),
(1346,1685,cs),
(1382,1650,o),
(1435,1626,o),
(1475,1662,cs),
(1516,1700,o),
(1506,1745,o),
(1473,1789,cs),
(1394,1890,o),
(1207,2028,o),
(992,2028,cs),
(578,2028,o),
(255,1660,o),
(142,1055,cs),
(21,391,o),
(180,-20,o),
(573,-20,cs),
(823,-20,o),
(1040,170,o),
(1218,542,c),
(1174,123,ls)
);
},
{
closed = 1;
nodes = (
(1322,61,o),
(1313,17,o),
(1250,20,cs),
(1196,23,o),
(1187,58,o),
(1194,121,cs),
(1241,570,ls),
(1246,621,o),
(1234,625,o),
(1211,574,cs),
(1034,191,o),
(819,0,o),
(573,0,cs),
(195,0,o),
(42,396,o),
(162,1051,cs),
(273,1650,o),
(589,2008,o),
(992,2008,cs),
(1200,2008,o),
(1380,1875,o),
(1457,1777,cs),
(1487,1738,o),
(1493,1706,o),
(1461,1676,cs),
(1432,1650,o),
(1393,1667,o),
(1360,1699,cs),
(1287,1770,o),
(1191,1885,o),
(971,1885,cs),
(640,1885,o),
(385,1563,o),
(293,1035,cs),
(201,469,o),
(318,123,o),
(599,123,cs),
(798,123,o),
(1075,412,o),
(1274,996,c),
(1283,1037,o),
(1296,1062,o),
(1345,1062,cs),
(1394,1062,o),
(1425,1037,o),
(1420,990,cs),
(1329,123,ls)
);
},
{
closed = 1;
nodes = (
(1444,1689,o),
(1460,1706,o),
(1460,1727,cs),
(1460,1748,o),
(1444,1764,o),
(1423,1764,cs),
(1402,1764,o),
(1385,1748,o),
(1385,1727,cs),
(1385,1706,o),
(1402,1689,o),
(1423,1689,cs)
);
}
);
vertWidth = 0;
width = 1543;
},
{
layerId = m002;
shapes = (
{
closed = 1;
nodes = (
(1087,64,o),
(1167,0,o),
(1281,0,cs),
(1402,0,o),
(1442,66,o),
(1450,147,cs),
(1533,945,ls),
(1544,1055,o),
(1467,1123,o),
(1360,1123,cs),
(1230,1123,o),
(1212,1084,o),
(1053,799,cs),
(959,631,o),
(727,299,o),
(618,299,cs),
(478,299,o),
(425,529,o),
(482,1015,cs),
(532,1423,o),
(635,1709,o),
(972,1709,cs),
(1141,1709,o),
(1212,1675,o),
(1256,1585,cs),
(1306,1484,o),
(1358,1437,o),
(1474,1466,cs),
(1572,1493,o),
(1583,1591,o),
(1558,1673,cs),
(1487,1895,o),
(1264,2028,o),
(972,2028,cs),
(465,2028,o),
(225,1650,o),
(138,1059,cs),
(43,426,o),
(137,-20,o),
(600,-20,cs),
(814,-20,o),
(981,147,o),
(1119,373,c),
(1098,173,ls)
);
},
{
closed = 1;
nodes = (
(1403,82,o),
(1376,40,o),
(1281,40,cs),
(1184,40,o),
(1130,84,o),
(1139,169,cs),
(1168,449,ls),
(1177,534,o),
(1166,534,o),
(1125,463,cs),
(982,213,o),
(815,20,o),
(600,20,cs),
(171,20,o),
(84,430,o),
(178,1053,cs),
(263,1634,o),
(489,1988,o),
(972,1988,cs),
(1250,1988,o),
(1454,1867,o),
(1520,1661,cs),
(1542,1589,o),
(1534,1524,o),
(1464,1504,cs),
(1370,1481,o),
(1337,1510,o),
(1292,1603,cs),
(1241,1707,o),
(1153,1749,o),
(972,1749,cs),
(606,1749,o),
(493,1435,o),
(442,1019,cs),
(384,522,o),
(442,259,o),
(618,259,cs),
(754,259,o),
(993,611,o),
(1087,779,cs),
(1248,1066,o),
(1256,1083,o),
(1360,1083,cs),
(1448,1083,o),
(1502,1036,o),
(1493,949,cs),
(1410,153,ls)
);
},
{
closed = 1;
nodes = (
(1453,1552,o),
(1480,1579,o),
(1480,1612,cs),
(1480,1645,o),
(1453,1672,o),
(1420,1672,cs),
(1387,1672,o),
(1360,1645,o),
(1360,1612,cs),
(1360,1579,o),
(1387,1552,o),
(1420,1552,cs)
);
}
);
vertWidth = 0;
width = 1611;
}
);
metricLeft = G.ss02;
metricRight = G.ss02;
},
{
color = 7;
glyphname = H.ss04;
layers = (
{
layerId = m01;
shapes = (
{
closed = 1;
nodes = (
(1298,999,l),
(1202,94,ls),
(1198,55,o),
(1213,0,o),
(1292,0,cs),
(1359,0,o),
(1377,46,o),
(1380,77,cs),
(1573,1909,ls),
(1579,1966,o),
(1553,2008,o),
(1485,2008,cs),
(1423,2008,o),
(1400,1966,o),
(1396,1931,cs),
(1315,1162,l),
(453,1162,l),
(530,1901,ls),
(536,1963,o),
(515,2008,o),
(456,2008,cs),
(390,2008,o),
(361,1969,o),
(355,1916,cs),
(163,94,ls),
(157,41,o),
(191,0,o),
(251,0,cs),
(328,0,o),
(336,56,o),
(339,87,cs),
(435,999,l)
);
},
{
closed = 1;
nodes = (
(380,1960,o),
(401,1988,o),
(456,1988,cs),
(502,1988,o),
(516,1957,o),
(510,1903,cs),
(429,1142,l),
(1333,1142,l),
(1416,1929,ls),
(1419,1959,o),
(1436,1988,o),
(1485,1988,cs),
(1541,1988,o),
(1558,1960,o),
(1553,1911,cs),
(1360,79,ls),
(1357,51,o),
(1345,20,o),
(1292,20,cs),
(1230,20,o),
(1218,58,o),
(1222,92,cs),
(1320,1019,l),
(417,1019,l),
(319,89,ls),
(316,58,o),
(310,20,o),
(251,20,cs),
(202,20,o),
(178,49,o),
(183,92,cs),
(375,1914,ls)
);
},
{
closed = 1;
nodes = (
(466,1886,o),
(482,1903,o),
(482,1924,cs),
(482,1945,o),
(466,1961,o),
(445,1961,cs),
(424,1961,o),
(407,1945,o),
(407,1924,cs),
(407,1903,o),
(424,1886,o),
(445,1886,cs)
);
}
);
vertWidth = 0;
width = 1639;
},
{
layerId = m002;
shapes = (
{
closed = 1;
nodes = (
(1231,854,l),
(1160,173,ls),
(1149,72,o),
(1214,0,o),
(1327,0,cs),
(1426,0,o),
(1495,59,o),
(1503,132,cs),
(1681,1830,ls),
(1693,1942,o),
(1617,2008,o),
(1511,2008,cs),
(1416,2008,o),
(1347,1954,o),
(1339,1876,cs),
(1265,1172,l),
(578,1172,l),
(646,1822,ls),
(659,1943,o),
(593,2008,o),
(491,2008,cs),
(401,2008,o),
(310,1964,o),
(299,1863,cs),
(121,173,ls),
(111,75,o),
(185,0,o),
(294,0,cs),
(414,0,o),
(462,73,o),
(469,143,cs),
(544,854,l)
);
},
{
closed = 1;
nodes = (
(347,1936,o),
(413,1968,o),
(491,1968,cs),
(574,1968,o),
(618,1926,o),
(607,1826,cs),
(534,1132,l),
(1300,1132,l),
(1378,1872,ls),
(1384,1930,o),
(1432,1968,o),
(1511,1968,cs),
(1599,1968,o),
(1650,1923,o),
(1641,1834,cs),
(1462,136,ls),
(1456,82,o),
(1409,40,o),
(1327,40,cs),
(1235,40,o),
(1191,89,o),
(1199,169,cs),
(1275,894,l),
(509,894,l),
(430,147,ls),
(424,89,o),
(390,40,o),
(294,40,cs),
(204,40,o),
(153,92,o),
(161,169,cs),
(339,1859,ls)
);
},
{
closed = 1;
nodes = (
(509,1792,o),
(536,1819,o),
(536,1852,cs),
(536,1885,o),
(509,1912,o),
(476,1912,cs),
(443,1912,o),
(416,1885,o),
(416,1852,cs),
(416,1819,o),
(443,1792,o),
(476,1792,cs)
);
}
);
vertWidth = 0;
width = 1706;
}
);
metricLeft = H.ss02;
metricRight = H.ss02;
},
{
color = 7;
glyphname = I.ss04;
layers = (
{
layerId = m01;
shapes = (
{
closed = 1;
nodes = (
(495,0,o),
(510,41,o),
(510,80,cs),
(510,123,o),
(482,163,o),
(417,163,cs),
(382,163,l),
(559,1848,l),
(617,1848,ls),
(688,1848,o),
(703,1888,o),
(703,1928,cs),
(703,1968,o),
(677,2008,o),
(607,2008,cs),
(334,2008,ls),
(265,2008,o),
(246,1967,o),
(246,1928,cs),
(246,1885,o),
(277,1848,o),
(342,1848,cs),
(381,1848,l),
(203,163,l),
(141,163,ls),
(70,163,o),
(53,122,o),
(53,80,cs),
(53,38,o),
(84,0,o),
(149,0,cs),
(424,0,ls)
);
},
{
closed = 1;
nodes = (
(94,20,o),
(73,47,o),
(73,80,cs),
(73,117,o),
(85,143,o),
(141,143,cs),
(221,143,l),
(403,1868,l),
(342,1868,ls),
(287,1868,o),
(266,1894,o),
(266,1928,cs),
(266,1962,o),
(278,1988,o),
(334,1988,cs),
(607,1988,ls),
(665,1988,o),
(683,1961,o),
(683,1928,cs),
(683,1893,o),
(673,1868,o),
(617,1868,cs),
(541,1868,l),
(360,143,l),
(417,143,ls),
(471,143,o),
(490,116,o),
(490,80,cs),
(490,46,o),
(480,20,o),
(424,20,cs),
(149,20,ls)
);
},
{
closed = 1;
nodes = (
(494,1882,o),
(510,1899,o),
(510,1920,cs),
(510,1941,o),
(494,1957,o),
(473,1957,cs),
(452,1957,o),
(435,1941,o),
(435,1920,cs),
(435,1899,o),
(452,1882,o),
(473,1882,cs)
);
}
);
vertWidth = 0;
width = 614;
},
{
layerId = m002;
shapes = (
{
closed = 1;
nodes = (
(769,0,o),
(847,63,o),
(847,163,cs),
(847,258,o),
(779,318,o),
(676,318,cs),
(646,318,l),
(793,1690,l),
(831,1690,ls),
(950,1690,o),
(1030,1755,o),
(1030,1853,cs),
(1030,1948,o),
(960,2008,o),
(857,2008,cs),
(440,2008,ls),
(319,2008,o),
(241,1945,o),
(241,1848,cs),
(241,1750,o),
(311,1690,o),
(412,1690,cs),
(444,1690,l),
(297,318,l),
(260,318,ls),
(138,318,o),
(60,256,o),
(60,155,cs),
(60,61,o),
(127,0,o),
(231,0,cs),
(647,0,ls)
);
},
{
closed = 1;
nodes = (
(145,40,o),
(100,81,o),
(100,155,cs),
(100,234,o),
(155,278,o),
(260,278,cs),
(333,278,l),
(488,1730,l),
(412,1730,ls),
(328,1730,o),
(281,1771,o),
(281,1848,cs),
(281,1923,o),
(336,1968,o),
(440,1968,cs),
(857,1968,ls),
(943,1968,o),
(990,1927,o),
(990,1853,cs),
(990,1777,o),
(933,1730,o),
(831,1730,cs),
(757,1730,l),
(602,278,l),
(676,278,ls),
(761,278,o),
(807,237,o),
(807,163,cs),
(807,85,o),
(752,40,o),
(647,40,cs),
(231,40,ls)
);
},
{
closed = 1;
nodes = (
(671,1792,o),
(698,1819,o),
(698,1852,cs),
(698,1885,o),
(671,1912,o),
(638,1912,cs),
(605,1912,o),
(578,1885,o),
(578,1852,cs),
(578,1819,o),
(605,1792,o),
(638,1792,cs)
);
}
);
vertWidth = 0;
width = 933;
}
);
metricLeft = I.ss02;
metricRight = I.ss02;
},
{
color = 7;
glyphname = J.ss04;
layers = (
{
layerId = m01;
shapes = (
{
closed = 1;
nodes = (
(1073,1848,ls),
(1143,1848,o),
(1156,1889,o),
(1156,1928,cs),
(1156,1968,o),
(1132,2008,o),
(1062,2008,cs),
(787,2008,ls),
(720,2008,o),
(701,1967,o),
(701,1928,cs),
(701,1887,o),
(729,1848,o),
(797,1848,cs),
(832,1848,l),
(704,636,ls),
(666,277,o),
(559,163,o),
(364,163,cs),
(239,163,o),
(164,250,o),
(101,329,cs),
(64,377,o),
(11,389,o),
(-28,350,cs),
(-70,310,o),
(-59,258,o),
(-29,220,cs),
(62,104,o),
(191,0,o),
(364,0,cs),
(679,0,o),
(828,172,o),
(877,634,cs),
(1005,1848,l)
);
},
{
closed = 1;
nodes = (
(797,1868,ls),
(740,1868,o),
(721,1894,o),
(721,1928,cs),
(721,1962,o),
(733,1988,o),
(787,1988,cs),
(1062,1988,ls),
(1119,1988,o),
(1136,1961,o),
(1136,1928,cs),
(1136,1893,o),
(1128,1868,o),
(1073,1868,cs),
(987,1868,l),
(857,636,ls),
(809,181,o),
(668,20,o),
(364,20,cs),
(199,20,o),
(76,118,o),
(-13,232,cs),
(-39,266,o),
(-47,304,o),
(-14,336,cs),
(16,366,o),
(53,358,o),
(85,317,cs),
(148,238,o),
(229,143,o),
(364,143,cs),
(570,143,o),
(685,268,o),
(724,634,cs),
(854,1868,l)
);
},
{
closed = 1;
nodes = (
(944,1882,o),
(960,1899,o),
(960,1920,cs),
(960,1941,o),
(944,1957,o),
(923,1957,cs),
(902,1957,o),
(885,1941,o),
(885,1920,cs),
(885,1899,o),
(902,1882,o),
(923,1882,cs)
);
}
);
vertWidth = 0;
width = 1031;
},
{
layerId = m002;
shapes = (
{
closed = 1;
nodes = (
(1220,1690,ls),
(1342,1690,o),
(1420,1755,o),
(1420,1853,cs),
(1420,1948,o),
(1352,2008,o),
(1249,2008,cs),
(833,2008,ls),
(711,2008,o),
(633,1945,o),
(633,1848,cs),
(633,1751,o),
(700,1690,o),
(804,1690,cs),
(835,1690,l),
(726,673,ls),
(692,354,o),
(614,296,o),
(507,296,cs),
(429,296,o),
(342,341,o),
(245,438,cs),
(170,515,o),
(59,505,o),
(-10,421,cs),
(-64,359,o),
(-53,250,o),
(1,194,cs),
(134,56,o),
(293,-20,o),
(468,-20,cs),
(780,-20,o),
(1017,166,o),
(1063,594,cs),
(1182,1690,l)
);
},
{
closed = 1;
nodes = (
(804,1730,ls),
(718,1730,o),
(673,1771,o),
(673,1848,cs),
(673,1923,o),
(728,1968,o),
(833,1968,cs),
(1249,1968,ls),
(1334,1968,o),
(1380,1927,o),
(1380,1853,cs),
(1380,1776,o),
(1325,1730,o),
(1220,1730,cs),
(1146,1730,l),
(1023,598,ls),
(979,190,o),
(763,20,o),
(468,20,cs),
(304,20,o),
(157,90,o),
(29,222,cs),
(-13,266,o),
(-21,347,o),
(20,395,cs),
(77,465,o),
(156,471,o),
(217,410,cs),
(319,308,o),
(418,256,o),
(507,256,cs),
(630,256,o),
(730,328,o),
(766,669,cs),
(879,1730,l)
);
},
{
closed = 1;
nodes = (
(1051,1792,o),
(1078,1819,o),
(1078,1852,cs),
(1078,1885,o),
(1051,1912,o),
(1018,1912,cs),
(985,1912,o),
(958,1885,o),
(958,1852,cs),
(958,1819,o),
(985,1792,o),
(1018,1792,cs)
);
}
);
vertWidth = 0;
width = 1294;
}
);
metricLeft = J.ss02;
metricRight = J.ss02;
},
{
color = 7;
glyphname = K.ss04;
layers = (
{
layerId = m01;
shapes = (
{
closed = 1;
nodes = (
(1186,64,ls),
(1211,33,o),
(1244,0,o),
(1287,0,cs),
(1334,0,o),
(1370,36,o),
(1370,80,cs),
(1370,107,o),
(1357,127,o),
(1342,146,cs),
(588,1084,l),
(1497,1842,ls),
(1539,1877,o),
(1557,1912,o),
(1557,1941,cs),
(1557,1983,o),
(1528,2008,o),
(1482,2008,cs),
(1454,2008,o),
(1425,1999,o),
(1387,1967,cs),
(455,1177,l),
(529,1901,ls),
(535,1961,o),
(521,2008,o),
(456,2008,cs),
(388,2008,o),
(361,1969,o),
(355,1916,cs),
(165,110,ls),
(160,59,o),
(192,0,o),
(253,0,cs),
(327,0,o),
(337,64,o),
(341,105,cs),
(436,1001,l)
);
},
{
closed = 1;
nodes = (
(380,1960,o),
(399,1988,o),
(456,1988,cs),
(506,1988,o),
(515,1958,o),
(509,1903,cs),
(433,1167,ls),
(429,1133,o),
(433,1133,o),
(457,1153,cs),
(1399,1951,ls),
(1435,1981,o),
(1458,1988,o),
(1482,1988,cs),
(1519,1988,o),
(1537,1972,o),
(1537,1941,cs),
(1537,1918,o),
(1522,1891,o),
(1483,1858,cs),
(560,1086,l),
(1326,134,ls),
(1341,115,o),
(1350,101,o),
(1350,80,cs),
(1350,45,o),
(1325,20,o),
(1287,20,cs),
(1252,20,o),
(1225,47,o),
(1202,76,cs),
(442,1026,ls),
(423,1050,o),
(422,1050,o),
(418,1014,cs),
(321,107,ls),
(317,66,o),
(309,20,o),
(253,20,cs),
(205,20,o),
(180,64,o),
(185,108,cs),
(375,1914,ls)
);
},
{
closed = 1;
nodes = (
(464,1886,o),
(480,1903,o),
(480,1924,cs),
(480,1945,o),
(464,1961,o),
(443,1961,cs),
(422,1961,o),
(405,1945,o),
(405,1924,cs),
(405,1903,o),
(422,1886,o),
(443,1886,cs)
);
}
);
vertWidth = 0;
width = 1489;
},
{
layerId = m002;
shapes = (
{
closed = 1;
nodes = (
(1165,85,ls),
(1209,34,o),
(1270,0,o),
(1333,0,cs),
(1419,0,o),
(1493,80,o),
(1493,163,cs),
(1493,208,o),
(1474,249,o),
(1436,293,cs),
(761,1076,l),
(1577,1701,ls),
(1624,1737,o),
(1660,1785,o),
(1663,1839,cs),
(1666,1922,o),
(1598,2008,o),
(1497,2008,cs),
(1443,2008,o),
(1393,1986,o),
(1346,1947,cs),
(596,1322,l),
(646,1822,ls),
(660,1959,o),
(566,2008,o),
(483,2008,cs),
(395,2008,o),
(310,1964,o),
(299,1863,cs),
(123,188,ls),
(112,85,o),
(194,0,o),
(304,0,cs),
(409,0,o),
(463,70,o),
(472,156,cs),
(542,815,l)
);
},
{
closed = 1;
nodes = (
(347,1936,o),
(407,1968,o),
(483,1968,cs),
(553,1968,o),
(617,1935,o),
(606,1826,cs),
(553,1297,ls),
(546,1231,o),
(550,1231,o),
(605,1277,cs),
(1372,1915,ls),
(1415,1950,o),
(1453,1968,o),
(1497,1968,cs),
(1576,1968,o),
(1626,1906,o),
(1623,1841,cs),
(1620,1800,o),
(1595,1765,o),
(1553,1733,cs),
(703,1082,l),
(1406,267,ls),
(1439,228,o),
(1453,197,o),
(1453,163,cs),
(1453,98,o),
(1399,40,o),
(1333,40,cs),
(1281,40,o),
(1233,66,o),
(1195,111,cs),
(559,856,ls),
(516,906,o),
(512,906,o),
(504,835,cs),
(432,160,ls),
(424,88,o),
(387,40,o),
(304,40,cs),
(213,40,o),
(154,102,o),
(163,184,cs),
(339,1859,ls)
);
},
{
closed = 1;
nodes = (
(509,1792,o),
(536,1819,o),
(536,1852,cs),
(536,1885,o),
(509,1912,o),
(476,1912,cs),
(443,1912,o),
(416,1885,o),
(416,1852,cs),
(416,1819,o),
(443,1792,o),
(476,1792,cs)
);
}
);
vertWidth = 0;
width = 1604;
}
);
metricLeft = K.ss02;
metricRight = K.ss02;
},
{
color = 7;
glyphname = L.ss04;
layers = (
{
layerId = m01;
shapes = (
{
closed = 1;
nodes = (
(1244,0,o),
(1270,40,o),
(1270,85,cs),
(1270,133,o),
(1240,163,o),
(1177,163,cs),
(348,163,l),
(528,1901,ls),
(534,1961,o),
(525,2008,o),
(456,2008,cs),
(387,2008,o),
(361,1969,o),
(355,1916,cs),
(163,94,ls),
(157,41,o),
(190,0,o),
(251,0,cs),
(1179,0,ls)
);
},
{
closed = 1;
nodes = (
(201,20,o),
(178,49,o),
(183,92,cs),
(375,1914,ls),
(380,1960,o),
(398,1988,o),
(456,1988,cs),
(508,1988,o),
(514,1958,o),
(508,1903,cs),
(326,143,l),
(1177,143,ls),
(1230,143,o),
(1250,123,o),
(1250,85,cs),
(1250,47,o),
(1232,20,o),
(1179,20,cs),
(251,20,ls)
);
},
{
closed = 1;
nodes = (
(464,1886,o),
(480,1903,o),
(480,1924,cs),
(480,1945,o),
(464,1961,o),
(443,1961,cs),
(422,1961,o),
(405,1945,o),
(405,1924,cs),
(405,1903,o),
(422,1886,o),
(443,1886,cs)
);
}
);
vertWidth = 0;
width = 1399;
},
{
layerId = m002;
shapes = (
{
closed = 1;
nodes = (
(1355,0,o),
(1415,79,o),
(1415,163,cs),
(1415,247,o),
(1335,321,o),
(1231,321,cs),
(483,321,l),
(644,1822,ls),
(660,1969,o),
(565,2008,o),
(483,2008,cs),
(384,2008,o),
(310,1963,o),
(299,1863,cs),
(121,173,ls),
(111,77,o),
(167,0,o),
(274,0,cs),
(1249,0,ls)
);
},
{
closed = 1;
nodes = (
(190,40,o),
(153,91,o),
(161,169,cs),
(339,1859,ls),
(347,1937,o),
(398,1968,o),
(483,1968,cs),
(555,1968,o),
(616,1941,o),
(604,1826,cs),
(439,281,l),
(1231,281,ls),
(1317,281,o),
(1375,227,o),
(1375,163,cs),
(1375,95,o),
(1333,40,o),
(1249,40,cs),
(274,40,ls)
);
},
{
closed = 1;
nodes = (
(509,1792,o),
(536,1819,o),
(536,1852,cs),
(536,1885,o),
(509,1912,o),
(476,1912,cs),
(443,1912,o),
(416,1885,o),
(416,1852,cs),
(416,1819,o),
(443,1792,o),
(476,1792,cs)
);
}
);
vertWidth = 0;
width = 1536;
}
);
metricLeft = L.ss02;
metricRight = L.ss02;
},
{
color = 7;
glyphname = M.ss04;
layers = (
{
layerId = m01;
shapes = (
{
closed = 1;
nodes = (
(1109,84,ls),
(1113,52,o),
(1126,0,o),
(1205,0,cs),
(1270,0,o),
(1298,56,o),
(1310,80,cs),
(2075,1644,l),
(2257,84,ls),
(2261,51,o),
(2278,0,o),
(2351,0,cs),
(2407,0,o),
(2437,40,o),
(2431,92,cs),
(2219,1913,ls),
(2213,1964,o),
(2204,2008,o),
(2110,2008,cs),
(2057,2008,o),
(2033,1955,o),
(2017,1921,cs),
(1250,349,l),
(1066,1942,ls),
(1063,1969,o),
(1036,2008,o),
(976,2008,cs),
(918,2008,o),
(894,1970,o),
(873,1928,cs),
(-4,131,ls),
(-39,60,o),
(-11,0,o),
(57,0,cs),
(94,0,o),
(135,23,o),
(165,84,cs),
(928,1637,l)
);
},
{
closed = 1;
nodes = (
(912,1960,o),
(930,1988,o),
(976,1988,cs),
(1025,1988,o),
(1044,1960,o),
(1046,1940,cs),
(1232,330,ls),
(1237,286,o),
(1241,285,o),
(1262,328,cs),
(2035,1913,ls),
(2051,1947,o),
(2069,1988,o),
(2110,1988,cs),
(2188,1988,o),
(2193,1960,o),
(2199,1911,cs),
(2411,90,ls),
(2416,47,o),
(2395,20,o),
(2351,20,cs),
(2293,20,o),
(2281,56,o),
(2277,86,cs),
(2093,1664,ls),
(2088,1708,o),
(2084,1708,o),
(2065,1669,cs),
(1292,90,ls),
(1280,66,o),
(1258,20,o),
(1205,20,cs),
(1141,20,o),
(1132,56,o),
(1129,86,cs),
(946,1656,ls),
(941,1702,o),
(938,1702,o),
(915,1656,cs),
(147,92,ls),
(121,38,o),
(88,20,o),
(57,20,cs),
(4,20,o),
(-16,62,o),
(14,123,cs),
(891,1918,ls)
);
},
{
closed = 1;
nodes = (
(83,44,o),
(99,61,o),
(99,82,cs),
(99,103,o),
(83,119,o),
(62,119,cs),
(41,119,o),
(24,103,o),
(24,82,cs),
(24,61,o),
(41,44,o),
(62,44,cs)
);
}
);
vertWidth = 0;
width = 2631;
},
{
layerId = m002;
shapes = (
{
closed = 1;
nodes = (
(1079,143,ls),
(1088,64,o),
(1147,0,o),
(1249,0,cs),
(1387,0,o),
(1424,70,o),
(1442,107,cs),
(2034,1316,l),
(2150,143,ls),
(2157,68,o),
(2233,0,o),
(2339,0,cs),
(2439,0,o),
(2510,72,o),
(2500,165,cs),
(2312,1855,ls),
(2302,1947,o),
(2282,2008,o),
(2162,2008,cs),
(2058,2008,o),
(1997,1968,o),
(1960,1893,cs),
(1356,670,l),
(1228,1855,ls),
(1218,1951,o),
(1177,2008,o),
(1041,2008,cs),
(942,2008,o),
(908,1963,o),
(875,1896,cs),
(38,227,ls),
(-33,86,o),
(78,0,o),
(175,0,cs),
(235,0,o),
(334,31,o),
(373,112,cs),
(951,1311,l)
);
},
{
closed = 1;
nodes = (
(942,1941,o),
(963,1968,o),
(1041,1968,cs),
(1154,1968,o),
(1179,1934,o),
(1188,1851,cs),
(1320,635,ls),
(1331,536,o),
(1336,535,o),
(1383,630,cs),
(1996,1875,ls),
(2027,1938,o),
(2072,1968,o),
(2162,1968,cs),
(2252,1968,o),
(2262,1937,o),
(2272,1851,cs),
(2460,161,ls),
(2468,89,o),
(2420,40,o),
(2339,40,cs),
(2251,40,o),
(2196,90,o),
(2190,147,cs),
(2070,1360,ls),
(2061,1450,o),
(2054,1450,o),
(2012,1364,cs),
(1406,125,ls),
(1388,88,o),
(1362,40,o),
(1249,40,cs),
(1167,40,o),
(1126,84,o),
(1119,147,cs),
(985,1366,ls),
(976,1445,o),
(969,1445,o),
(932,1368,cs),
(337,130,ls),
(306,65,o),
(227,40,o),
(175,40,cs),
(99,40,o),
(18,97,o),
(74,209,cs),
(911,1878,ls)
);
},
{
closed = 1;
nodes = (
(211,97,o),
(238,124,o),
(238,157,cs),
(238,190,o),
(211,217,o),
(178,217,cs),
(145,217,o),
(118,190,o),
(118,157,cs),
(118,124,o),
(145,97,o),
(178,97,cs)
);
}
);
vertWidth = 0;
width = 2657;
}
);
metricLeft = M.ss02;
metricRight = M.ss02;
},
{
color = 7;
glyphname = N.ss04;
layers = (
{
layerId = m01;
shapes = (
{
closed = 1;
nodes = (
(1201,61,ls),
(1217,24,o),
(1253,0,o),
(1296,0,cs),
(1361,0,o),
(1374,37,o),
(1379,87,cs),
(1570,1901,ls),
(1576,1961,o),
(1560,2008,o),
(1495,2008,cs),
(1425,2008,o),
(1399,1968,o),
(1394,1916,cs),
(1236,411,l),
(559,1940,ls),
(542,1978,o),
(513,2008,o),
(451,2008,cs),
(379,2008,o),
(360,1968,o),
(355,1916,cs),
(163,94,ls),
(157,41,o),
(190,0,o),
(251,0,cs),
(328,0,o),
(335,58,o),
(339,95,cs),
(500,1643,l)
);
},
{
closed = 1;
nodes = (
(380,1961,o),
(392,1988,o),
(451,1988,cs),
(504,1988,o),
(526,1966,o),
(541,1932,cs),
(1222,392,ls),
(1245,341,o),
(1249,341,o),
(1255,398,cs),
(1414,1914,ls),
(1419,1961,o),
(1438,1988,o),
(1495,1988,cs),
(1545,1988,o),
(1556,1958,o),
(1550,1903,cs),
(1359,89,ls),
(1354,41,o),
(1345,20,o),
(1296,20,cs),
(1260,20,o),
(1233,37,o),
(1219,69,cs),
(509,1674,ls),
(490,1718,o),
(488,1717,o),
(483,1672,cs),
(319,97,ls),
(315,60,o),
(310,20,o),
(251,20,cs),
(201,20,o),
(178,49,o),
(183,92,cs),
(375,1914,ls)
);
},
{
closed = 1;
nodes = (
(271,48,o),
(287,65,o),
(287,86,cs),
(287,107,o),
(271,123,o),
(250,123,cs),
(229,123,o),
(212,107,o),
(212,86,cs),
(212,65,o),
(229,48,o),
(250,48,cs)
);
}
);
vertWidth = 0;
width = 1637;
},
{
layerId = m002;
shapes = (
{
closed = 1;
nodes = (
(1174,97,ls),
(1204,35,o),
(1260,0,o),
(1346,0,cs),
(1465,0,o),
(1496,73,o),
(1503,143,cs),
(1679,1812,ls),
(1690,1921,o),
(1630,2008,o),
(1513,2008,cs),
(1418,2008,o),
(1345,1952,o),
(1335,1853,cs),
(1221,776,l),
(660,1908,ls),
(624,1981,o),
(565,2008,o),
(488,2008,cs),
(382,2008,o),
(309,1960,o),
(299,1863,cs),
(121,173,ls),
(111,75,o),
(182,0,o),
(281,0,cs),
(396,0,o),
(462,69,o),
(470,148,cs),
(591,1301,l)
);
},
{
closed = 1;
nodes = (
(347,1935,o),
(396,1968,o),
(488,1968,cs),
(555,1968,o),
(596,1949,o),
(624,1892,cs),
(1194,734,ls),
(1238,645,o),
(1247,647,o),
(1257,743,cs),
(1375,1849,ls),
(1383,1928,o),
(1434,1968,o),
(1513,1968,cs),
(1607,1968,o),
(1649,1908,o),
(1639,1816,cs),
(1463,147,ls),
(1456,85,o),
(1437,40,o),
(1346,40,cs),
(1274,40,o),
(1234,65,o),
(1210,115,cs),
(615,1344,ls),
(570,1437,o),
(564,1435,o),
(553,1331,cs),
(430,152,ls),
(423,89,o),
(377,40,o),
(281,40,cs),
(202,40,o),
(153,92,o),
(161,169,cs),
(339,1859,ls)
);
},
{
closed = 1;
nodes = (
(326,113,o),
(353,140,o),
(353,173,cs),
(353,206,o),
(326,233,o),
(293,233,cs),
(260,233,o),
(233,206,o),
(233,173,cs),
(233,140,o),
(260,113,o),
(293,113,cs)
);
}
);
vertWidth = 0;
width = 1705;
}
);
metricLeft = N.ss02;
metricRight = N.ss02;
},
{
color = 7;
glyphname = O.ss04;
layers = (
{
layerId = m01;
shapes = (
{
closed = 1;
nodes = (
(1168,-20,o),
(1410,346,o),
(1483,1071,cs),
(1538,1614,o),
(1317,2028,o),
(950,2028,cs),
(545,2028,o),
(300,1649,o),
(230,924,cs),
(173,384,o),
(396,-20,o),
(758,-20,cs)
);
},
{
closed = 1;
nodes = (
(410,0,o),
(193,390,o),
(250,922,cs),
(320,1641,o),
(557,2008,o),
(950,2008,cs),
(1303,2008,o),
(1518,1608,o),
(1463,1073,cs),
(1390,354,o),
(1156,0,o),
(758,0,cs)
);
},
{
closed = 1;
nodes = (
(1074,123,o),
(1262,451,o),
(1327,1094,cs),
(1371,1538,o),
(1211,1885,o),
(950,1885,cs),
(636,1885,o),
(449,1546,o),
(384,904,cs),
(339,457,o),
(500,123,o),
(760,123,cs)
);
},
{
closed = 1;
nodes = (
(514,143,o),
(359,462,o),
(404,902,cs),
(469,1539,o),
(649,1865,o),
(950,1865,cs),
(1197,1865,o),
(1351,1533,o),
(1307,1096,cs),
(1242,458,o),
(1061,143,o),
(760,143,cs)
);
},
{
closed = 1;
nodes = (
(1149,1862,o),
(1165,1879,o),
(1165,1900,cs),
(1165,1921,o),
(1149,1937,o),
(1128,1937,cs),
(1107,1937,o),
(1090,1921,o),
(1090,1900,cs),
(1090,1879,o),
(1107,1862,o),
(1128,1862,cs)
);
}
);
vertWidth = 0;
width = 1527;
},
{
layerId = m002;
shapes = (
{
closed = 1;
nodes = (
(1270,-20,o),
(1575,396,o),
(1643,1044,cs),
(1701,1631,o),
(1442,2028,o),
(1030,2028,cs),
(583,2028,o),
(278,1615,o),
(209,967,cs),
(151,380,o),
(410,-20,o),
(822,-20,cs)
);
},
{
closed = 1;
nodes = (
(435,20,o),
(193,393,o),
(249,963,cs),
(316,1598,o),
(606,1988,o),
(1030,1988,cs),
(1417,1988,o),
(1659,1618,o),
(1603,1048,cs),
(1537,413,o),
(1247,20,o),
(822,20,cs)
);
},
{
closed = 1;
nodes = (
(1109,259,o),
(1294,568,o),
(1336,1044,cs),
(1379,1472,o),
(1243,1749,o),
(1004,1749,cs),
(743,1749,o),
(559,1440,o),
(516,967,cs),
(473,536,o),
(609,259,o),
(848,259,cs)
);
},
{
closed = 1;
nodes = (
(637,299,o),
(514,547,o),
(556,963,cs),
(598,1425,o),
(769,1709,o),
(1004,1709,cs),
(1215,1709,o),
(1338,1461,o),
(1296,1048,cs),
(1255,583,o),
(1083,299,o),
(848,299,cs)
);
},
{
closed = 1;
nodes = (
(1228,1776,o),
(1255,1803,o),
(1255,1836,cs),
(1255,1869,o),
(1228,1896,o),
(1195,1896,cs),
(1162,1896,o),
(1135,1869,o),
(1135,1836,cs),
(1135,1803,o),
(1162,1776,o),
(1195,1776,cs)
);
}
);
vertWidth = 0;
width = 1730;
}
);
metricLeft = O.ss02;
metricRight = O.ss02;
},
{
color = 7;
glyphname = P.ss04;
layers = (
{
layerId = m01;
shapes = (
{
closed = 1;
nodes = (
(1000,1012,o),
(1448,1153,o),
(1479,1490,cs),
(1510,1828,o),
(1098,2008,o),
(456,2008,cs),
(388,2008,o),
(361,1972,o),
(355,1916,cs),
(164,107,ls),
(159,55,o),
(191,0,o),
(252,0,cs),
(329,0,o),
(337,69,o),
(340,97,cs),
(435,1002,l)
);
},
{
closed = 1;
nodes = (
(380,1963,o),
(399,1988,o),
(456,1988,cs),
(1092,1988,o),
(1487,1815,o),
(1459,1492,cs),
(1430,1164,o),
(987,1029,o),
(417,1022,c),
(320,99,ls),
(317,71,o),
(311,20,o),
(252,20,cs),
(204,20,o),
(179,61,o),
(184,105,cs),
(375,1914,ls)
);
},
{
closed = 1;
nodes = (
(459,1886,o),
(475,1903,o),
(475,1924,cs),
(475,1945,o),
(459,1961,o),
(438,1961,cs),
(417,1961,o),
(400,1945,o),
(400,1924,cs),
(400,1903,o),
(417,1886,o),
(438,1886,cs)
);
},
{
closed = 1;
nodes = (
(941,1148,o),
(1299,1258,o),
(1323,1506,cs),
(1344,1718,o),
(1030,1862,o),
(505,1868,c),
(429,1142,l)
);
},
{
closed = 1;
nodes = (
(1030,1838,o),
(1322,1702,o),
(1303,1508,cs),
(1281,1279,o),
(947,1172,o),
(451,1162,c),
(523,1848,l)
);
}
);
vertWidth = 0;
width = 1379;
},
{
layerId = m002;
shapes = (
{
closed = 1;
nodes = (
(995,873,o),
(1474,977,o),
(1524,1442,cs),
(1569,1856,o),
(1117,2008,o),
(459,2008,cs),
(370,2008,o),
(309,1962,o),
(299,1863,cs),
(121,170,ls),
(111,76,o),
(173,0,o),
(289,0,cs),
(404,0,o),
(460,61,o),
(468,138,cs),
(543,851,l)
);
},
{
closed = 1;
nodes = (
(347,1938,o),
(386,1968,o),
(459,1968,cs),
(1109,1968,o),
(1524,1826,o),
(1484,1446,cs),
(1437,1000,o),
(965,908,o),
(507,889,c),
(428,142,ls),
(422,81,o),
(384,40,o),
(289,40,cs),
(194,40,o),
(153,91,o),
(161,166,cs),
(339,1859,ls)
);
},
{
closed = 1;
nodes = (
(479,1792,o),
(506,1819,o),
(506,1852,cs),
(506,1885,o),
(479,1912,o),
(446,1912,cs),
(413,1912,o),
(386,1885,o),
(386,1852,cs),
(386,1819,o),
(413,1792,o),
(446,1792,cs)
);
},
{
closed = 1;
nodes = (
(864,1149,o),
(1190,1238,o),
(1215,1457,cs),
(1236,1643,o),
(1056,1726,o),
(595,1727,c),
(532,1128,l)
);
},
{
closed = 1;
nodes = (
(1051,1682,o),
(1193,1612,o),
(1175,1461,cs),
(1154,1282,o),
(884,1197,o),
(576,1172,c),
(631,1687,l)
);
}
);
vertWidth = 0;
width = 1379;
}
);
metricLeft = P.ss02;
metricRight = P.ss02;
},
{
color = 7;
glyphname = Q.ss04;
layers = (
{
layerId = m01;
shapes = (
{
closed = 1;
nodes = (
(1365,425,o),
(1445,702,o),
(1483,1071,cs),
(1538,1614,o),
(1317,2028,o),
(950,2028,cs),
(545,2028,o),
(300,1649,o),
(230,924,cs),
(173,384,o),
(396,-20,o),
(758,-20,cs),
(898,-20,o),
(1020,19,o),
(1122,106,c),
(1218,-24,ls),
(1258,-78,o),
(1314,-98,o),
(1357,-70,cs),
(1403,-39,o),
(1405,19,o),
(1364,74,cs),
(1240,241,l)
);
},
{
closed = 1;
nodes = (
(1023,41,o),
(902,0,o),
(758,0,cs),
(410,0,o),
(193,390,o),
(250,922,cs),
(320,1641,o),
(557,2008,o),
(950,2008,cs),
(1303,2008,o),
(1518,1608,o),
(1463,1073,cs),
(1425,698,o),
(1343,421,o),
(1216,241,c),
(1348,62,ls),
(1383,14,o),
(1382,-29,o),
(1345,-54,cs),
(1313,-75,o),
(1270,-61,o),
(1234,-12,cs),
(1125,136,l)
);
},
{
closed = 1;
nodes = (
(855,502,o),
(850,548,o),
(878,572,cs),
(917,605,o),
(958,589,o),
(1005,525,cs),
(1131,355,l),
(1228,518,o),
(1294,765,o),
(1327,1094,cs),
(1371,1538,o),
(1211,1885,o),
(950,1885,cs),
(636,1885,o),
(449,1546,o),
(384,904,cs),
(339,457,o),
(500,123,o),
(760,123,cs),
(871,123,o),
(967,159,o),
(1047,242,c),
(893,451,ls)
);
},
{
closed = 1;
nodes = (
(969,607,o),
(915,629,o),
(866,588,cs),
(828,556,o),
(835,495,o),
(877,439,cs),
(1021,244,l),
(947,172,o),
(861,143,o),
(760,143,cs),
(514,143,o),
(359,462,o),
(404,902,cs),
(469,1539,o),
(649,1865,o),
(950,1865,cs),
(1197,1865,o),
(1351,1533,o),
(1307,1096,cs),
(1276,787,o),
(1216,552,o),
(1129,391,c),
(1021,537,ls)
);
},
{
closed = 1;
nodes = (
(1149,1862,o),
(1165,1879,o),
(1165,1900,cs),
(1165,1921,o),
(1149,1937,o),
(1128,1937,cs),
(1107,1937,o),
(1090,1921,o),
(1090,1900,cs),
(1090,1879,o),
(1107,1862,o),
(1128,1862,cs)
);
}
);
vertWidth = 0;
width = 1551;
},
{
layerId = m002;
shapes = (
{
closed = 1;
nodes = (
(1526,481,o),
(1611,739,o),
(1643,1044,cs),
(1701,1631,o),
(1442,2028,o),
(1030,2028,cs),
(583,2028,o),
(278,1615,o),
(209,967,cs),
(151,380,o),
(410,-20,o),
(822,-20,cs),
(949,-20,o),
(1066,8,o),
(1168,64,c),
(1212,4,ls),
(1277,-85,o),
(1385,-128,o),
(1467,-64,cs),
(1538,-3,o),
(1548,91,o),
(1488,173,cs),
(1399,295,l)
);
},
{
closed = 1;
nodes = (
(1073,52,o),
(956,20,o),
(822,20,cs),
(435,20,o),
(193,393,o),
(249,963,cs),
(316,1598,o),
(606,1988,o),
(1030,1988,cs),
(1417,1988,o),
(1659,1618,o),
(1603,1048,cs),
(1571,735,o),
(1482,477,o),
(1350,295,c),
(1456,149,ls),
(1505,82,o),
(1498,15,o),
(1441,-34,cs),
(1381,-81,o),
(1301,-51,o),
(1244,28,cs),
(1178,119,l)
);
},
{
closed = 1;
nodes = (
(859,553,o),
(867,614,o),
(918,659,cs),
(976,705,o),
(1061,692,o),
(1121,610,cs),
(1197,506,l),
(1268,641,o),
(1317,828,o),
(1336,1044,cs),
(1379,1472,o),
(1243,1749,o),
(1004,1749,cs),
(743,1749,o),
(559,1440,o),
(516,967,cs),
(473,536,o),
(609,259,o),
(848,259,cs),
(916,259,o),
(981,274,o),
(1038,308,c),
(916,475,ls)
);
},
{
closed = 1;
nodes = (
(1081,731,o),
(967,749,o),
(892,689,cs),
(827,633,o),
(815,545,o),
(884,451,cs),
(981,319,l),
(939,303,o),
(896,299,o),
(848,299,cs),
(637,299,o),
(514,547,o),
(556,963,cs),
(598,1425,o),
(769,1709,o),
(1004,1709,cs),
(1215,1709,o),
(1338,1461,o),
(1296,1048,cs),
(1281,866,o),
(1243,708,o),
(1190,584,c),
(1153,634,ls)
);
},
{
closed = 1;
nodes = (
(1228,1776,o),
(1255,1803,o),
(1255,1836,cs),
(1255,1869,o),
(1228,1896,o),
(1195,1896,cs),
(1162,1896,o),
(1135,1869,o),
(1135,1836,cs),
(1135,1803,o),
(1162,1776,o),
(1195,1776,cs)
);
}
);
vertWidth = 0;
width = 1730;
}
);
metricLeft = Q.ss02;
metricRight = Q.ss02;
},
{
color = 7;
glyphname = R.ss04;
layers = (
{
layerId = m01;
shapes = (
{
closed = 1;
nodes = (
(1159,65,ls),
(1193,22,o),
(1234,1,o),
(1263,1,cs),
(1298,1,o),
(1334,25,o),
(1340,56,cs),
(1346,81,o),
(1339,123,o),
(1302,170,cs),
(631,1022,l),
(1097,1083,o),
(1429,1295,o),
(1448,1536,cs),
(1474,1871,o),
(1120,2008,o),
(454,2008,cs),
(379,2008,o),
(360,1968,o),
(355,1916,cs),
(165,112,ls),
(159,56,o),
(185,0,o),
(250,0,cs),
(327,0,o),
(336,58,o),
(341,105,cs),
(433,990,l)
);
},
{
closed = 1;
nodes = (
(380,1961,o),
(392,1988,o),
(454,1988,cs),
(1115,1988,o),
(1453,1856,o),
(1428,1538,cs),
(1409,1305,o),
(1087,1101,o),
(626,1042,cs),
(597,1038,o),
(595,1035,o),
(613,1013,cs),
(1286,158,ls),
(1320,115,o),
(1326,82,o),
(1320,60,cs),
(1316,38,o),
(1291,21,o),
(1263,21,cs),
(1239,21,o),
(1206,38,o),
(1175,77,cs),
(445,1009,ls),
(422,1039,o),
(419,1039,o),
(414,996,cs),
(321,107,ls),
(316,60,o),
(309,20,o),
(250,20,cs),
(199,20,o),
(180,61,o),
(185,110,cs),
(375,1914,ls)
);
},
{
closed = 1;
nodes = (
(459,1886,o),
(475,1903,o),
(475,1924,cs),
(475,1945,o),
(459,1961,o),
(438,1961,cs),
(417,1961,o),
(400,1945,o),
(400,1924,cs),
(400,1903,o),
(417,1886,o),
(438,1886,cs)
);
},
{
closed = 1;
nodes = (
(906,1158,o),
(1270,1355,o),
(1296,1550,cs),
(1323,1752,o),
(1049,1861,o),
(504,1868,c),
(429,1142,l)
);
},
{
closed = 1;
nodes = (
(1048,1839,o),
(1301,1735,o),
(1277,1552,cs),
(1254,1373,o),
(912,1184,o),
(451,1162,c),
(522,1848,l)
);
}
);
vertWidth = 0;
width = 1462;
},
{
layerId = m002;
shapes = (
{
closed = 1;
nodes = (
(1164,78,ls),
(1221,6,o),
(1286,0,o),
(1326,0,cs),
(1392,0,o),
(1457,32,o),
(1487,92,cs),
(1508,137,o),
(1509,206,o),
(1472,251,cs),
(888,970,l),
(1286,1053,o),
(1571,1250,o),
(1586,1528,cs),
(1607,1920,o),
(1195,2008,o),
(483,2008,cs),
(379,2008,o),
(310,1963,o),
(299,1863,cs),
(125,207,ls),
(113,97,o),
(156,0,o),
(275,0,cs),
(391,0,o),
(456,63,o),
(469,182,cs),
(542,864,l)
);
},
{
closed = 1;
nodes = (
(347,1938,o),
(393,1968,o),
(483,1968,cs),
(1188,1968,o),
(1566,1886,o),
(1546,1530,cs),
(1532,1269,o),
(1263,1086,o),
(869,1007,cs),
(820,997,o),
(818,993,o),
(849,955,cs),
(1440,225,ls),
(1467,192,o),
(1467,144,o),
(1451,110,cs),
(1428,64,o),
(1381,40,o),
(1326,40,cs),
(1288,40,o),
(1241,45,o),
(1196,102,cs),
(558,908,ls),
(514,963,o),
(512,962,o),
(504,890,cs),
(429,186,ls),
(418,84,o),
(373,40,o),
(275,40,cs),
(184,40,o),
(155,106,o),
(165,203,cs),
(339,1859,ls)
);
},
{
closed = 1;
nodes = (
(479,1792,o),
(506,1819,o),
(506,1852,cs),
(506,1885,o),
(479,1912,o),
(446,1912,cs),
(413,1912,o),
(386,1885,o),
(386,1852,cs),
(386,1819,o),
(413,1792,o),
(446,1792,cs)
);
},
{
closed = 1;
nodes = (
(990,1201,o),
(1262,1383,o),
(1280,1531,cs),
(1301,1706,o),
(1110,1738,o),
(595,1740,c),
(535,1172,l)
);
},
{
closed = 1;
nodes = (
(1112,1696,o),
(1255,1666,o),
(1240,1535,cs),
(1226,1416,o),
(992,1253,o),
(579,1216,c),
(631,1700,l)
);
}
);
vertWidth = 0;
width = 1612;
}
);
metricLeft = R.ss02;
metricRight = R.ss02;
},
{
color = 7;
glyphname = S.ss04;
layers = (
{
layerId = m01;
shapes = (
{
closed = 1;
nodes = (
(881,-20,o),
(1149,144,o),
(1186,498,cs),
(1217,803,o),
(1024,1007,o),
(775,1148,cs),
(524,1293,o),
(370,1412,o),
(387,1580,cs),
(407,1752,o),
(570,1865,o),
(861,1865,cs),
(1013,1865,o),
(1106,1790,o),
(1146,1681,cs),
(1164,1634,o),
(1210,1614,o),
(1257,1628,cs),
(1306,1644,o),
(1314,1700,o),
(1294,1758,cs),
(1244,1908,o),
(1100,2028,o),
(853,2028,cs),
(453,2028,o),
(246,1829,o),
(219,1595,cs),
(196,1342,o),
(403,1160,o),
(648,1021,cs),
(919,866,o),
(1033,725,o),
(1015,524,cs),
(990,258,o),
(780,143,o),
(567,143,cs),
(375,143,o),
(267,223,o),
(244,315,cs),
(229,374,o),
(177,394,o),
(127,380,cs),
(76,365,o),
(68,308,o),
(81,256,cs),
(121,93,o),
(301,-20,o),
(518,-20,cs)
);
},
{
closed = 1;
nodes = (
(308,0,o),
(139,106,o),
(101,260,cs),
(88,308,o),
(95,349,o),
(133,360,cs),
(175,372,o),
(213,358,o),
(224,311,cs),
(249,210,o),
(368,123,o),
(567,123,cs),
(787,123,o),
(1008,245,o),
(1035,522,cs),
(1053,732,o),
(933,881,o),
(658,1039,cs),
(415,1176,o),
(216,1351,o),
(239,1593,cs),
(265,1818,o),
(462,2008,o),
(853,2008,cs),
(1091,2008,o),
(1227,1895,o),
(1276,1752,cs),
(1293,1699,o),
(1287,1659,o),
(1251,1648,cs),
(1213,1636,o),
(1179,1650,o),
(1164,1689,cs),
(1122,1803,o),
(1021,1885,o),
(861,1885,cs),
(563,1885,o),
(389,1765,o),
(367,1582,cs),
(348,1402,o),
(512,1277,o),
(765,1130,cs),
(1011,991,o),
(1197,795,o),
(1166,500,cs),
(1131,157,o),
(874,0,o),
(518,0,cs)
);
},
{
closed = 1;
nodes = (
(1246,1668,o),
(1262,1685,o),
(1262,1706,cs),
(1262,1727,o),
(1246,1743,o),
(1225,1743,cs),
(1204,1743,o),
(1187,1727,o),
(1187,1706,cs),
(1187,1685,o),
(1204,1668,o),
(1225,1668,cs)
);
}
);
vertWidth = 0;
width = 1291;
},
{
layerId = m002;
shapes = (
{
closed = 1;
nodes = (
(1161,-20,o),
(1433,174,o),
(1468,518,cs),
(1508,892,o),
(1266,1098,o),
(1052,1216,cs),
(865,1320,o),
(658,1454,o),
(672,1569,cs),
(684,1675,o),
(797,1712,o),
(983,1712,cs),
(1133,1712,o),
(1233,1645,o),
(1277,1566,cs),
(1327,1474,o),
(1427,1447,o),
(1520,1493,cs),
(1600,1534,o),
(1621,1614,o),
(1586,1696,cs),
(1492,1906,o),
(1318,2028,o),
(1027,2028,cs),
(594,2028,o),
(345,1882,o),
(312,1581,cs),
(280,1271,o),
(631,1052,o),
(833,942,cs),
(1050,827,o),
(1149,696,o),
(1134,533,cs),
(1120,389,o),
(982,317,o),
(759,317,cs),
(576,317,o),
(493,426,o),
(476,487,cs),
(445,598,o),
(338,634,o),
(254,607,cs),
(179,582,o),
(91,497,o),
(131,359,cs),
(180,190,o),
(406,-20,o),
(762,-20,cs)
);
},
{
closed = 1;
nodes = (
(424,20,o),
(215,214,o),
(169,371,cs),
(137,483,o),
(203,548,o),
(266,569,cs),
(335,591,o),
(413,564,o),
(438,477,cs),
(457,406,o),
(554,277,o),
(759,277,cs),
(996,277,o),
(1158,363,o),
(1174,529,cs),
(1191,710,o),
(1078,858,o),
(851,978,cs),
(652,1086,o),
(322,1292,o),
(352,1577,cs),
(383,1856,o),
(609,1988,o),
(1027,1988,cs),
(1304,1988,o),
(1461,1878,o),
(1550,1680,cs),
(1578,1613,o),
(1564,1561,o),
(1502,1529,cs),
(1425,1490,o),
(1353,1510,o),
(1313,1586,cs),
(1262,1674,o),
(1147,1752,o),
(983,1752,cs),
(786,1752,o),
(647,1704,o),
(632,1573,cs),
(615,1431,o),
(845,1286,o),
(1032,1182,cs),
(1242,1065,o),
(1466,874,o),
(1428,522,cs),
(1395,198,o),
(1145,20,o),
(762,20,cs)
);
},
{
closed = 1;
nodes = (
(1469,1572,o),
(1496,1599,o),
(1496,1632,cs),
(1496,1665,o),
(1469,1692,o),
(1436,1692,cs),
(1403,1692,o),
(1376,1665,o),
(1376,1632,cs),
(1376,1599,o),
(1403,1572,o),
(1436,1572,cs)
);
}
);
vertWidth = 0;
width = 1570;
}
);
metricLeft = S.ss02;
metricRight = S.ss02;
},
{
color = 7;
glyphname = T.ss04;
layers = (
{
layerId = m01;
shapes = (
{
closed = 1;
nodes = (
(1349,1848,ls),
(1419,1848,o),
(1432,1889,o),
(1432,1928,cs),
(1432,1968,o),
(1408,2008,o),
(1338,2008,cs),
(184,2008,ls),
(113,2008,o),
(96,1967,o),
(96,1928,cs),
(96,1885,o),
(127,1848,o),
(194,1848,cs),
(671,1848,l),
(488,125,ls),
(481,60,o),
(499,0,o),
(565,0,cs),
(636,0,o),
(656,62,o),
(661,113,cs),
(845,1848,l)
);
},
{
closed = 1;
nodes = (
(194,1868,ls),
(137,1868,o),
(116,1894,o),
(116,1928,cs),
(116,1962,o),
(128,1988,o),
(184,1988,cs),
(1338,1988,ls),
(1395,1988,o),
(1412,1961,o),
(1412,1928,cs),
(1412,1893,o),
(1404,1868,o),
(1349,1868,cs),
(827,1868,l),
(641,115,ls),
(636,67,o),
(621,20,o),
(565,20,cs),
(516,20,o),
(502,63,o),
(508,123,cs),
(693,1868,l)
);
},
{
closed = 1;
nodes = (
(785,1882,o),
(801,1899,o),
(801,1920,cs),
(801,1941,o),
(785,1957,o),
(764,1957,cs),
(743,1957,o),
(726,1941,o),
(726,1920,cs),
(726,1899,o),
(743,1882,o),
(764,1882,cs)
);
}
);
vertWidth = 0;
width = 1137;
},
{
layerId = m002;
shapes = (
{
closed = 1;
nodes = (
(1370,1690,ls),
(1482,1690,o),
(1536,1763,o),
(1536,1848,cs),
(1536,1938,o),
(1450,2008,o),
(1349,2008,cs),
(210,2008,ls),
(106,2008,o),
(52,1936,o),
(50,1849,cs),
(47,1761,o),
(124,1690,o),
(233,1690,cs),
(591,1690,l),
(437,178,ls),
(427,80,o),
(502,0,o),
(608,0,cs),
(725,0,o),
(779,84,o),
(786,156,cs),
(943,1690,l)
);
},
{
closed = 1;
nodes = (
(233,1730,ls),
(143,1730,o),
(87,1781,o),
(90,1847,cs),
(92,1919,o),
(129,1968,o),
(210,1968,cs),
(1349,1968,ls),
(1433,1968,o),
(1496,1917,o),
(1496,1848,cs),
(1496,1779,o),
(1459,1730,o),
(1370,1730,cs),
(907,1730,l),
(746,160,ls),
(740,100,o),
(701,40,o),
(608,40,cs),
(523,40,o),
(469,97,o),
(477,174,cs),
(635,1730,l)
);
},
{
closed = 1;
nodes = (
(812,1792,o),
(839,1819,o),
(839,1852,cs),
(839,1885,o),
(812,1912,o),
(779,1912,cs),
(746,1912,o),
(719,1885,o),
(719,1852,cs),
(719,1819,o),
(746,1792,o),
(779,1792,cs)
);
}
);
vertWidth = 0;
width = 1312;
}
);
metricLeft = T.ss02;
metricRight = T.ss02;
},
{
color = 7;
glyphname = U.ss04;
layers = (
{
layerId = m01;
shapes = (
{
closed = 1;
nodes = (
(1570,1968,o),
(1541,2008,o),
(1480,2008,cs),
(1416,2008,o),
(1396,1966,o),
(1392,1926,cs),
(1260,724,ls),
(1223,386,o),
(1006,143,o),
(750,143,cs),
(515,143,o),
(369,373,o),
(403,693,cs),
(531,1911,ls),
(536,1963,o),
(504,2008,o),
(451,2008,cs),
(395,2008,o),
(361,1971,o),
(355,1918,cs),
(227,706,ls),
(183,290,o),
(407,-20,o),
(747,-20,cs),
(1099,-20,o),
(1394,296,o),
(1439,722,cs),
(1565,1916,ls)
);
},
{
closed = 1;
nodes = (
(380,1962,o),
(406,1988,o),
(451,1988,cs),
(492,1988,o),
(516,1957,o),
(511,1913,cs),
(383,695,ls),
(349,367,o),
(503,123,o),
(750,123,cs),
(1016,123,o),
(1242,377,o),
(1280,722,cs),
(1412,1924,ls),
(1416,1959,o),
(1429,1988,o),
(1480,1988,cs),
(1530,1988,o),
(1550,1961,o),
(1545,1918,cs),
(1419,724,ls),
(1375,306,o),
(1089,0,o),
(747,0,cs),
(419,0,o),
(204,297,o),
(247,704,cs),
(375,1916,ls)
);
},
{
closed = 1;
nodes = (
(466,1886,o),
(482,1903,o),
(482,1924,cs),
(482,1945,o),
(466,1961,o),
(445,1961,cs),
(424,1961,o),
(407,1945,o),
(407,1924,cs),
(407,1903,o),
(424,1886,o),
(445,1886,cs)
);
}
);
vertWidth = 0;
width = 1630;
},
{
layerId = m002;
shapes = (
{
closed = 1;
nodes = (
(1690,1934,o),
(1640,2008,o),
(1510,2008,cs),
(1399,2008,o),
(1343,1933,o),
(1334,1855,cs),
(1213,774,ls),
(1181,489,o),
(1003,298,o),
(786,298,cs),
(610,298,o),
(501,475,o),
(530,742,cs),
(650,1848,ls),
(659,1931,o),
(611,2008,o),
(485,2008,cs),
(364,2008,o),
(306,1933,o),
(298,1855,cs),
(183,756,ls),
(136,306,o),
(391,-20,o),
(783,-20,cs),
(1179,-20,o),
(1513,314,o),
(1563,770,cs),
(1680,1846,ls)
);
},
{
closed = 1;
nodes = (
(345,1915,o),
(386,1968,o),
(485,1968,cs),
(586,1968,o),
(617,1918,o),
(610,1852,cs),
(490,746,ls),
(459,463,o),
(585,258,o),
(786,258,cs),
(1023,258,o),
(1219,470,o),
(1253,770,cs),
(1374,1851,ls),
(1381,1915,o),
(1421,1968,o),
(1510,1968,cs),
(1617,1968,o),
(1648,1921,o),
(1640,1850,cs),
(1523,774,ls),
(1475,334,o),
(1159,20,o),
(783,20,cs),
(414,20,o),
(178,321,o),
(223,752,cs),
(338,1851,ls)
);
},
{
closed = 1;
nodes = (
(509,1792,o),
(536,1819,o),
(536,1852,cs),
(536,1885,o),
(509,1912,o),
(476,1912,cs),
(443,1912,o),
(416,1885,o),
(416,1852,cs),
(416,1819,o),
(443,1792,o),
(476,1792,cs)
);
}
);
vertWidth = 0;
width = 1703;
}
);
metricLeft = U.ss02;
metricRight = U.ss02;
},
{
color = 7;
glyphname = V.ss04;
layers = (
{
layerId = m01;
shapes = (
{
closed = 1;
nodes = (
(1483,1966,o),
(1445,2008,o),
(1393,2008,cs),
(1328,2008,o),
(1301,1981,o),
(1280,1927,cs),
(653,351,l),
(421,1926,ls),
(416,1959,o),
(401,2008,o),
(326,2008,cs),
(264,2008,o),
(240,1968,o),
(248,1915,cs),
(529,95,ls),
(535,53,o),
(566,0,o),
(627,0,cs),
(694,0,o),
(708,41,o),
(725,84,cs),
(1454,1895,ls)
);
},
{
closed = 1;
nodes = (
(261,1962,o),
(277,1988,o),
(326,1988,cs),
(386,1988,o),
(397,1954,o),
(401,1924,cs),
(637,324,ls),
(643,283,o),
(647,283,o),
(664,325,cs),
(1298,1919,ls),
(1318,1969,o),
(1337,1988,o),
(1393,1988,cs),
(1435,1988,o),
(1459,1960,o),
(1436,1903,cs),
(707,92,ls),
(689,47,o),
(680,20,o),
(627,20,cs),
(579,20,o),
(555,60,o),
(549,97,cs),
(268,1919,ls)
);
},
{
closed = 1;
nodes = (
(356,1886,o),
(372,1903,o),
(372,1924,cs),
(372,1945,o),
(356,1961,o),
(335,1961,cs),
(314,1961,o),
(297,1945,o),
(297,1924,cs),
(297,1903,o),
(314,1886,o),
(335,1886,cs)
);
}
);
vertWidth = 0;
width = 1227;
},
{
layerId = m002;
shapes = (
{
closed = 1;
nodes = (
(1592,1919,o),
(1510,2008,o),
(1398,2008,cs),
(1303,2008,o),
(1231,1969,o),
(1202,1896,cs),
(728,681,l),
(561,1868,ls),
(550,1949,o),
(475,2008,o),
(367,2008,cs),
(266,2008,o),
(197,1950,o),
(214,1845,cs),
(486,160,ls),
(500,75,o),
(554,0,o),
(660,0,cs),
(758,0,o),
(815,59,o),
(842,124,cs),
(1542,1799,ls)
);
},
{
closed = 1;
nodes = (
(241,1931,o),
(283,1968,o),
(367,1968,cs),
(459,1968,o),
(512,1925,o),
(521,1864,cs),
(691,647,ls),
(707,531,o),
(717,530,o),
(762,646,cs),
(1240,1882,ls),
(1262,1938,o),
(1315,1968,o),
(1398,1968,cs),
(1488,1968,o),
(1544,1908,o),
(1504,1813,cs),
(806,140,ls),
(782,82,o),
(739,40,o),
(660,40,cs),
(576,40,o),
(538,93,o),
(526,166,cs),
(254,1851,ls)
);
},
{
closed = 1;
nodes = (
(419,1792,o),
(446,1819,o),
(446,1852,cs),
(446,1885,o),
(419,1912,o),
(386,1912,cs),
(353,1912,o),
(326,1885,o),
(326,1852,cs),
(326,1819,o),
(353,1792,o),
(386,1792,cs)
);
}
);
vertWidth = 0;
width = 1418;
}
);
metricLeft = V.ss02;
metricRight = V.ss02;
},
{
color = 7;
glyphname = W.ss04;
layers = (
{
layerId = m01;
shapes = (
{
closed = 1;
nodes = (
(1579,86,ls),
(1585,44,o),
(1615,0,o),
(1673,0,cs),
(1739,0,o),
(1753,41,o),
(1770,84,cs),
(2506,1895,ls),
(2536,1969,o),
(2487,2008,o),
(2440,2008,cs),
(2375,2008,o),
(2355,1986,o),
(2332,1927,cs),
(1710,364,l),
(1472,1926,ls),
(1467,1962,o),
(1452,2008,o),
(1371,2008,cs),
(1315,2008,o),
(1285,1964,o),
(1271,1929,cs),
(651,355,l),
(421,1927,ls),
(416,1959,o),
(401,2008,o),
(325,2008,cs),
(264,2008,o),
(240,1968,o),
(248,1915,cs),
(529,95,ls),
(537,40,o),
(578,0,o),
(624,0,cs),
(694,0,o),
(711,54,o),
(724,87,cs),
(1343,1670,l)
);
},
{
closed = 1;
nodes = (
(261,1962,o),
(277,1988,o),
(325,1988,cs),
(386,1988,o),
(396,1954,o),
(401,1923,cs),
(633,338,ls),
(641,283,o),
(645,283,o),
(666,337,cs),
(1289,1921,ls),
(1302,1954,o),
(1326,1988,o),
(1371,1988,cs),
(1437,1988,o),
(1447,1957,o),
(1452,1924,cs),
(1693,339,ls),
(1700,293,o),
(1704,293,o),
(1723,341,cs),
(2350,1919,ls),
(2372,1975,o),
(2384,1988,o),
(2440,1988,cs),
(2478,1988,o),
(2512,1962,o),
(2488,1903,cs),
(1752,92,ls),
(1734,47,o),
(1725,20,o),
(1673,20,cs),
(1626,20,o),
(1605,53,o),
(1599,90,cs),
(1361,1689,ls),
(1353,1742,o),
(1349,1742,o),
(1329,1690,cs),
(706,95,ls),
(692,60,o),
(680,20,o),
(624,20,cs),
(587,20,o),
(556,51,o),
(549,97,cs),
(268,1919,ls)
);
},
{
closed = 1;
nodes = (
(356,1886,o),
(372,1903,o),
(372,1924,cs),
(372,1945,o),
(356,1961,o),
(335,1961,cs),
(314,1961,o),
(297,1945,o),
(297,1924,cs),
(297,1903,o),
(314,1886,o),
(335,1886,cs)
);
}
);
vertWidth = 0;
width = 2279;
},
{
layerId = m002;
shapes = (
{
closed = 1;
nodes = (
(1531,152,ls),
(1545,54,o),
(1615,0,o),
(1707,0,cs),
(1794,0,o),
(1852,50,o),
(1892,145,cs),
(2597,1798,ls),
(2634,1885,o),
(2579,2008,o),
(2446,2008,cs),
(2337,2008,o),
(2278,1939,o),
(2259,1892,cs),
(1768,665,l),
(1590,1869,ls),
(1578,1953,o),
(1521,2008,o),
(1406,2008,cs),
(1294,2008,o),
(1249,1950,o),
(1221,1878,cs),
(734,615,l),
(563,1868,ls),
(552,1949,o),
(479,2008,o),
(371,2008,cs),
(270,2008,o),
(196,1950,o),
(213,1845,cs),
(483,152,ls),
(499,54,o),
(570,0,o),
(662,0,cs),
(746,0,o),
(806,49,o),
(846,145,cs),
(1354,1368,l)
);
},
{
closed = 1;
nodes = (
(240,1931,o),
(287,1968,o),
(371,1968,cs),
(463,1968,o),
(515,1926,o),
(523,1864,cs),
(695,585,ls),
(713,450,o),
(717,450,o),
(768,584,cs),
(1259,1864,ls),
(1283,1928,o),
(1314,1968,o),
(1406,1968,cs),
(1502,1968,o),
(1540,1931,o),
(1550,1863,cs),
(1730,638,ls),
(1746,529,o),
(1757,529,o),
(1799,634,cs),
(2295,1876,ls),
(2311,1917,o),
(2358,1968,o),
(2446,1968,cs),
(2550,1968,o),
(2589,1881,o),
(2561,1814,cs),
(1856,161,ls),
(1820,76,o),
(1778,40,o),
(1707,40,cs),
(1631,40,o),
(1583,78,o),
(1571,158,cs),
(1385,1412,ls),
(1372,1498,o),
(1364,1498,o),
(1328,1412,cs),
(810,161,ls),
(774,75,o),
(730,40,o),
(662,40,cs),
(586,40,o),
(536,78,o),
(523,158,cs),
(253,1851,ls)
);
},
{
closed = 1;
nodes = (
(419,1792,o),
(446,1819,o),
(446,1852,cs),
(446,1885,o),
(419,1912,o),
(386,1912,cs),
(353,1912,o),
(326,1885,o),
(326,1852,cs),
(326,1819,o),
(353,1792,o),
(386,1792,cs)
);
}
);
vertWidth = 0;
width = 2471;
}
);
metricLeft = W.ss02;
metricRight = W.ss02;
},
{
color = 7;
glyphname = X.ss04;
layers = (
{
layerId = m01;
shapes = (
{
closed = 1;
nodes = (
(1370,1864,ls),
(1403,1915,o),
(1392,1966,o),
(1362,1989,cs),
(1325,2018,o),
(1258,2016,o),
(1224,1963,cs),
(715,1181,l),
(372,1944,ls),
(344,2006,o),
(282,2014,o),
(243,1998,cs),
(201,1981,o),
(182,1942,o),
(209,1881,cs),
(593,1022,l),
(7,132,ls),
(-19,92,o),
(-9,46,o),
(25,20,cs),
(64,-10,o),
(124,-6,o),
(156,43,cs),
(677,834,l),
(1022,68,ls),
(1050,5,o),
(1111,-11,o),
(1155,11,cs),
(1187,29,o),
(1212,70,o),
(1188,123,cs),
(799,992,l)
);
},
{
closed = 1;
nodes = (
(683,873,o),
(679,873,o),
(664,850,cs),
(140,55,ls),
(113,15,o),
(69,11,o),
(37,36,cs),
(10,57,o),
(2,90,o),
(23,122,cs),
(615,1020,l),
(227,1889,ls),
(203,1943,o),
(219,1967,o),
(251,1980,cs),
(282,1993,o),
(331,1988,o),
(354,1936,cs),
(700,1164,ls),
(710,1141,o),
(712,1141,o),
(727,1164,cs),
(1240,1953,ls),
(1268,1996,o),
(1320,1997,o),
(1350,1973,cs),
(1373,1955,o),
(1382,1918,o),
(1354,1876,cs),
(777,994,l),
(1170,115,ls),
(1189,73,o),
(1172,43,o),
(1145,29,cs),
(1110,11,o),
(1064,23,o),
(1040,76,cs),
(693,850,ls)
);
},
{
closed = 1;
nodes = (
(307,1886,o),
(323,1903,o),
(323,1924,cs),
(323,1945,o),
(307,1961,o),
(286,1961,cs),
(265,1961,o),
(248,1945,o),
(248,1924,cs),
(248,1903,o),
(265,1886,o),
(286,1886,cs)
);
}
);
vertWidth = 0;
width = 1186;
},
{
layerId = m002;
shapes = (
{
closed = 1;
nodes = (
(1541,1755,ls),
(1597,1837,o),
(1569,1914,o),
(1505,1968,cs),
(1438,2025,o),
(1300,2029,o),
(1244,1941,cs),
(850,1321,l),
(586,1912,ls),
(542,2011,o),
(417,2024,o),
(345,1998,cs),
(254,1966,o),
(215,1891,o),
(264,1781,cs),
(605,1016,l),
(80,246,ls),
(30,173,o),
(48,101,o),
(112,46,cs),
(182,-9,o),
(320,-26,o),
(376,61,cs),
(762,665,l),
(1015,98,ls),
(1060,-3,o),
(1204,-20,o),
(1282,20,cs),
(1353,59,o),
(1383,130,o),
(1345,215,cs),
(1008,969,l)
);
},
{
closed = 1;
nodes = (
(769,747,o),
(766,746,o),
(738,702,cs),
(342,81,ls),
(302,18,o),
(196,31,o),
(138,76,cs),
(86,121,o),
(75,167,o),
(114,224,cs),
(651,1012,l),
(300,1797,ls),
(261,1885,o),
(285,1932,o),
(359,1960,cs),
(422,1980,o),
(516,1971,o),
(550,1896,cs),
(820,1291,ls),
(844,1238,o),
(847,1241,o),
(878,1290,cs),
(1278,1919,ls),
(1320,1985,o),
(1426,1983,o),
(1479,1938,cs),
(1533,1892,o),
(1551,1842,o),
(1507,1777,cs),
(962,973,l),
(1309,199,ls),
(1339,132,o),
(1319,86,o),
(1264,56,cs),
(1199,23,o),
(1086,36,o),
(1051,114,cs),
(789,702,ls)
);
},
{
closed = 1;
nodes = (
(457,1792,o),
(484,1819,o),
(484,1852,cs),
(484,1885,o),
(457,1912,o),
(424,1912,cs),
(391,1912,o),
(364,1885,o),
(364,1852,cs),
(364,1819,o),
(391,1792,o),
(424,1792,cs)
);
}
);
vertWidth = 0;
width = 1435;
}
);
metricLeft = X.ss02;
metricRight = X.ss02;
},
{
color = 7;
glyphname = Y.ss04;
layers = (
{
layerId = m01;
shapes = (
{
closed = 1;
nodes = (
(1579,1917,o),
(1566,1971,o),
(1516,1998,cs),
(1473,2021,o),
(1429,2007,o),
(1398,1955,cs),
(848,1017,l),
(423,1939,ls),
(404,1979,o),
(368,2025,o),
(304,2001,cs),
(242,1981,o),
(235,1932,o),
(259,1879,cs),
(739,829,l),
(330,133,ls),
(307,93,o),
(308,48,o),
(344,21,cs),
(382,-8,o),
(446,-10,o),
(476,42,cs),
(1548,1865,ls)
);
},
{
closed = 1;
nodes = (
(277,1887,ls),
(256,1933,o),
(261,1966,o),
(310,1983,cs),
(361,2001,o),
(388,1968,o),
(405,1931,cs),
(833,1001,ls),
(844,977,o),
(848,977,o),
(864,1004,cs),
(1416,1945,ls),
(1441,1988,o),
(1472,1998,o),
(1506,1980,cs),
(1548,1958,o),
(1555,1918,o),
(1530,1875,cs),
(458,52,ls),
(434,11,o),
(388,13,o),
(356,37,cs),
(329,57,o),
(328,88,o),
(348,123,cs),
(761,827,l)
);
},
{
closed = 1;
nodes = (
(356,1886,o),
(372,1903,o),
(372,1924,cs),
(372,1945,o),
(356,1961,o),
(335,1961,cs),
(314,1961,o),
(297,1945,o),
(297,1924,cs),
(297,1903,o),
(314,1886,o),
(335,1886,cs)
);
}
);
vertWidth = 0;
width = 1260;
},
{
layerId = m002;
shapes = (
{
closed = 1;
nodes = (
(1657,1839,o),
(1630,1938,o),
(1543,1989,cs),
(1470,2028,o),
(1353,2008,o),
(1298,1917,cs),
(875,1213,l),
(572,1910,ls),
(538,1989,o),
(445,2032,o),
(337,1996,cs),
(229,1960,o),
(209,1860,o),
(247,1779,cs),
(669,871,l),
(303,261,ls),
(259,188,o),
(277,89,o),
(341,34,cs),
(413,-24,o),
(558,-6,o),
(608,78,cs),
(1608,1757,ls)
);
},
{
closed = 1;
nodes = (
(283,1795,ls),
(252,1862,o),
(266,1930,o),
(349,1958,cs),
(440,1988,o),
(509,1957,o),
(536,1894,cs),
(842,1187,ls),
(867,1128,o),
(871,1128,o),
(908,1190,cs),
(1332,1897,ls),
(1376,1970,o),
(1465,1987,o),
(1523,1955,cs),
(1595,1915,o),
(1613,1843,o),
(1574,1777,cs),
(574,98,ls),
(536,34,o),
(423,20,o),
(367,64,cs),
(315,109,o),
(302,182,o),
(337,241,cs),
(715,869,l)
);
},
{
closed = 1;
nodes = (
(439,1792,o),
(466,1819,o),
(466,1852,cs),
(466,1885,o),
(439,1912,o),
(406,1912,cs),
(373,1912,o),
(346,1885,o),
(346,1852,cs),
(346,1819,o),
(373,1792,o),
(406,1792,cs)
);
}
);
vertWidth = 0;
width = 1426;
}
);
metricLeft = Y.ss02;
metricRight = Y.ss02;
},
{
color = 7;
glyphname = Z.ss04;
layers = (
{
layerId = m01;
shapes = (
{
closed = 1;
nodes = (
(1249,0,o),
(1267,46,o),
(1264,89,cs),
(1261,128,o),
(1240,163,o),
(1171,163,cs),
(289,163,l),
(1430,1866,ls),
(1481,1942,o),
(1421,2008,o),
(1360,2008,cs),
(325,2008,ls),
(254,2008,o),
(234,1962,o),
(237,1922,cs),
(239,1879,o),
(267,1848,o),
(335,1848,cs),
(1219,1848,l),
(70,136,ls),
(29,74,o),
(68,0,o),
(149,0,cs),
(1179,0,ls)
);
},
{
closed = 1;
nodes = (
(82,20,o),
(53,75,o),
(86,124,cs),
(1239,1841,ls),
(1254,1864,o),
(1258,1868,o),
(1224,1868,cs),
(335,1868,ls),
(277,1868,o),
(259,1888,o),
(257,1924,cs),
(254,1957,o),
(268,1988,o),
(325,1988,cs),
(1360,1988,ls),
(1410,1988,o),
(1455,1938,o),
(1414,1876,cs),
(269,170,ls),
(253,146,o),
(253,143,o),
(283,143,cs),
(1171,143,ls),
(1227,143,o),
(1241,121,o),
(1244,87,cs),
(1247,51,o),
(1234,20,o),
(1179,20,cs),
(149,20,ls)
);
},
{
closed = 1;
nodes = (
(346,1893,o),
(362,1910,o),
(362,1931,cs),
(362,1952,o),
(346,1968,o),
(325,1968,cs),
(304,1968,o),
(287,1952,o),
(287,1931,cs),
(287,1910,o),
(304,1893,o),
(325,1893,cs)
);
}
);
vertWidth = 0;
width = 1403;
},
{
layerId = m002;
shapes = (
{
closed = 1;
nodes = (
(1317,0,o),
(1372,70,o),
(1372,153,cs),
(1372,247,o),
(1300,318,o),
(1196,318,cs),
(514,318,l),
(1479,1751,ls),
(1551,1858,o),
(1497,2008,o),
(1347,2008,cs),
(343,2008,ls),
(238,2008,o),
(174,1936,o),
(180,1847,cs),
(187,1761,o),
(254,1690,o),
(364,1690,cs),
(1028,1690,l),
(66,247,ls),
(0,149,o),
(60,0,o),
(213,0,cs),
(1206,0,ls)
);
},
{
closed = 1;
nodes = (
(91,40,o),
(48,148,o),
(100,225,cs),
(1072,1682,ls),
(1101,1725,o),
(1102,1730,o),
(1042,1730,cs),
(364,1730,ls),
(274,1730,o),
(225,1781,o),
(220,1849,cs),
(215,1919,o),
(259,1968,o),
(343,1968,cs),
(1347,1968,ls),
(1466,1968,o),
(1505,1861,o),
(1445,1773,cs),
(469,324,ls),
(439,279,o),
(446,278,o),
(493,278,cs),
(1196,278,ls),
(1281,278,o),
(1332,228,o),
(1332,153,cs),
(1332,87,o),
(1295,40,o),
(1206,40,cs),
(213,40,ls)
);
},
{
closed = 1;
nodes = (
(389,1792,o),
(416,1819,o),
(416,1852,cs),
(416,1885,o),
(389,1912,o),
(356,1912,cs),
(323,1912,o),
(296,1885,o),
(296,1852,cs),
(296,1819,o),
(323,1792,o),
(356,1792,cs)
);
}
);
vertWidth = 0;
width = 1454;
}
);
metricLeft = Z.ss02;
metricRight = Z.ss02;
},
{
color = 6;
glyphname = A.ss05;
layers = (
{
layerId = m01;
shapes = (
{
closed = 1;
nodes = (
(1065,1971,o),
(1045,2008,o),
(981,2008,cs),
(924,2008,o),
(896,1979,o),
(878,1939,cs),
(67,129,ls),
(33,53,o),
(53,19,o),
(106,4,cs),
(162,-10,o),
(202,19,o),
(225,71,cs),
(629,999,l),
(1050,999,l),
(1184,85,ls),
(1191,34,o),
(1202,-6,o),
(1276,0,cs),
(1344,6,o),
(1361,47,o),
(1352,105,cs),
(1071,1935,ls)
);
},
{
closed = 1;
nodes = (
(615,1019,l),
(207,79,ls),
(187,32,o),
(155,12,o),
(112,24,cs),
(70,35,o),
(55,55,o),
(85,121,cs),
(896,1931,ls),
(913,1968,o),
(934,1988,o),
(981,1988,cs),
(1032,1988,o),
(1046,1964,o),
(1051,1931,cs),
(1332,103,ls),
(1340,50,o),
(1327,24,o),
(1274,20,cs),
(1218,16,o),
(1211,38,o),
(1204,87,cs),
(1068,1019,l)
);
},
{
closed = 1;
nodes = (
(944,1727,l),
(1027,1160,l),
(698,1160,l)
);
},
{
closed = 1;
nodes = (
(1051,1140,l),
(958,1773,ls),
(955,1791,o),
(951,1792,o),
(942,1771,cs),
(668,1140,l)
);
},
{
closed = 1;
nodes = (
(852,1644,l),
(840,1649,l),
(926,1845,l),
(911,1852,l),
(824,1656,l),
(812,1661,l),
(805,1591,l)
);
},
{
closed = 1;
nodes = (
(975,1882,o),
(991,1899,o),
(991,1920,cs),
(991,1941,o),
(975,1957,o),
(954,1957,cs),
(933,1957,o),
(916,1941,o),
(916,1920,cs),
(916,1899,o),
(933,1882,o),
(954,1882,cs)
);
}
);
vertWidth = 0;
width = 1504;
},
{
layerId = m002;
shapes = (
{
closed = 1;
nodes = (
(1144,1968,o),
(1078,2008,o),
(984,2008,cs),
(877,2008,o),
(836,1966,o),
(812,1912,cs),
(45,211,ls),
(0,111,o),
(53,49,o),
(136,16,cs),
(215,-13,o),
(319,-9,o),
(362,93,cs),
(658,795,l),
(1012,795,l),
(1094,148,ls),
(1110,23,o),
(1181,-15,o),
(1292,3,cs),
(1390,18,o),
(1441,74,o),
(1423,190,cs),
(1152,1915,ls)
);
},
{
closed = 1;
nodes = (
(632,835,l),
(326,109,ls),
(291,26,o),
(213,30,o),
(150,54,cs),
(84,80,o),
(45,115,o),
(81,195,cs),
(848,1896,ls),
(870,1944,o),
(898,1968,o),
(984,1968,cs),
(1064,1968,o),
(1107,1942,o),
(1112,1909,cs),
(1383,184,ls),
(1399,85,o),
(1363,54,o),
(1286,43,cs),
(1196,28,o),
(1148,46,o),
(1134,154,cs),
(1048,835,l)
);
},
{
closed = 1;
nodes = (
(931,1444,l),
(976,1082,l),
(779,1082,l)
);
},
{
closed = 1;
nodes = (
(1022,1042,l),
(963,1503,ls),
(953,1585,o),
(947,1586,o),
(913,1505,cs),
(719,1042,l)
);
},
{
closed = 1;
nodes = (
(839,1550,l),
(827,1555,l),
(915,1751,l),
(890,1762,l),
(802,1566,l),
(790,1571,l),
(788,1499,l)
);
},
{
closed = 1;
nodes = (
(973,1792,o),
(1000,1819,o),
(1000,1852,cs),
(1000,1885,o),
(973,1912,o),
(940,1912,cs),
(907,1912,o),
(880,1885,o),
(880,1852,cs),
(880,1819,o),
(907,1792,o),
(940,1792,cs)
);
}
);
vertWidth = 0;
width = 1539;
}
);
metricLeft = A.ss02;
metricRight = A.ss02;
},
{
color = 6;
glyphname = B.ss05;
layers = (
{
layerId = m01;
shapes = (
{
closed = 1;
nodes = (
(158,50,o),
(195,0,o),
(249,0,cs),
(956,0,o),
(1409,204,o),
(1451,587,cs),
(1479,846,o),
(1329,1019,o),
(1044,1100,c),
(1372,1195,o),
(1430,1355,o),
(1451,1522,cs),
(1493,1844,o),
(1126,2043,o),
(449,2001,cs),
(393,1998,o),
(361,1971,o),
(354,1909,cs),
(164,107,ls)
);
},
{
closed = 1;
nodes = (
(380,1960,o),
(402,1978,o),
(451,1981,cs),
(1119,2023,o),
(1473,1831,o),
(1432,1524,cs),
(1409,1354,o),
(1352,1201,o),
(1002,1110,cs),
(972,1102,o),
(973,1098,o),
(1001,1091,cs),
(1304,1017,o),
(1460,849,o),
(1431,589,cs),
(1390,220,o),
(952,20,o),
(249,20,cs),
(207,20,o),
(179,57,o),
(184,105,cs),
(374,1907,ls)
);
},
{
closed = 1;
nodes = (
(918,146,o),
(1267,315,o),
(1297,610,cs),
(1325,894,o),
(985,1073,o),
(418,1025,c),
(324,143,l)
);
},
{
closed = 1;
nodes = (
(984,1049,o),
(1303,879,o),
(1277,612,cs),
(1249,333,o),
(922,170,o),
(346,163,c),
(436,1007,l)
);
},
{
closed = 1;
nodes = (
(430,1628,l),
(417,1629,l),
(439,1842,l),
(422,1844,l),
(400,1631,l),
(387,1632,l),
(402,1563,l)
);
},
{
closed = 1;
nodes = (
(459,1886,o),
(475,1903,o),
(475,1924,cs),
(475,1945,o),
(459,1961,o),
(438,1961,cs),
(417,1961,o),
(400,1945,o),
(400,1924,cs),
(400,1903,o),
(417,1886,o),
(438,1886,cs)
);
},
{
closed = 1;
nodes = (
(1156,1169,o),
(1272,1340,o),
(1298,1535,cs),
(1323,1727,o),
(1044,1916,o),
(505,1879,c),
(430,1142,l)
);
},
{
closed = 1;
nodes = (
(1042,1892,o),
(1300,1713,o),
(1278,1537,cs),
(1254,1351,o),
(1145,1193,o),
(452,1162,c),
(523,1861,l)
);
}
);
vertWidth = 0;
width = 1556;
},
{
background = {
shapes = (
{
closed = 1;
nodes = (
(456,1749,o),
(466,1759,o),
(466,1771,cs),
(466,1782,o),
(456,1792,o),
(445,1792,cs),
(433,1792,o),
(423,1782,o),
(423,1771,cs),
(423,1759,o),
(433,1749,o),
(445,1749,cs)
);
}
);
};
layerId = m002;
shapes = (
{
closed = 1;
nodes = (
(112,82,o),
(183,1,o),
(288,1,cs),
(1029,1,o),
(1508,197,o),
(1549,575,cs),
(1572,780,o),
(1459,975,o),
(1225,1071,c),
(1480,1170,o),
(1530,1288,o),
(1551,1477,cs),
(1593,1865,o),
(1204,2049,o),
(484,2001,cs),
(379,1996,o),
(311,1978,o),
(296,1835,cs),
(123,187,ls)
);
},
{
closed = 1;
nodes = (
(348,1945,o),
(386,1956,o),
(486,1961,cs),
(1190,2008,o),
(1550,1841,o),
(1510,1481,cs),
(1489,1291,o),
(1441,1180,o),
(1163,1091,cs),
(1110,1074,o),
(1114,1069,o),
(1164,1051,cs),
(1415,960,o),
(1532,781,o),
(1510,579,cs),
(1471,227,o),
(1018,41,o),
(288,41,cs),
(204,41,o),
(154,98,o),
(163,183,cs),
(336,1831,ls)
);
},
{
closed = 1;
nodes = (
(910,304,o),
(1207,409,o),
(1235,615,cs),
(1259,792,o),
(986,938,o),
(499,925,c),
(433,300,l)
);
},
{
closed = 1;
nodes = (
(986,892,o),
(1214,760,o),
(1195,621,cs),
(1171,446,o),
(916,352,o),
(477,340,c),
(535,885,l)
);
},
{
closed = 1;
nodes = (
(458,1533,l),
(445,1534,l),
(468,1747,l),
(441,1750,l),
(418,1537,l),
(405,1538,l),
(425,1469,l)
);
},
{
closed = 1;
nodes = (
(496,1792,o),
(523,1819,o),
(523,1852,cs),
(523,1885,o),
(496,1912,o),
(463,1912,cs),
(430,1912,o),
(403,1885,o),
(403,1852,cs),
(403,1819,o),
(430,1792,o),
(463,1792,cs)
);
},
{
closed = 1;
nodes = (
(1124,1161,o),
(1222,1267,o),
(1245,1464,cs),
(1263,1621,o),
(1011,1754,o),
(578,1719,c),
(520,1130,l)
);
},
{
closed = 1;
nodes = (
(1007,1705,o),
(1220,1593,o),
(1205,1468,cs),
(1184,1290,o),
(1104,1207,o),
(564,1172,c),
(614,1681,l)
);
}
);
vertWidth = 0;
width = 1605;
}
);
metricLeft = B.ss02;
metricRight = B.ss02;
},
{
color = 6;
glyphname = C.ss05;
layers = (
{
layerId = m01;
shapes = (
{
closed = 1;
nodes = (
(1034,-20,o),
(1277,195,o),
(1373,389,cs),
(1414,471,o),
(1423,521,o),
(1364,553,cs),
(1304,582,o),
(1263,544,o),
(1225,471,cs),
(1148,319,o),
(983,143,o),
(738,143,cs),
(443,143,o),
(324,474,o),
(428,1031,cs),
(520,1546,o),
(756,1865,o),
(1047,1865,cs),
(1191,1865,o),
(1310,1756,o),
(1374,1708,cs),
(1408,1682,o),
(1471,1657,o),
(1515,1710,cs),
(1558,1762,o),
(1532,1813,o),
(1501,1840,cs),
(1416,1919,o),
(1283,2028,o),
(1037,2028,cs),
(667,2028,o),
(367,1659,o),
(252,1053,cs),
(126,389,o),
(314,-20,o),
(751,-20,cs)
);
},
{
closed = 1;
nodes = (
(327,0,o),
(147,394,o),
(272,1049,cs),
(385,1650,o),
(678,2008,o),
(1037,2008,cs),
(1275,2008,o),
(1402,1903,o),
(1487,1826,cs),
(1515,1801,o),
(1534,1764,o),
(1499,1722,cs),
(1465,1681,o),
(1417,1700,o),
(1386,1724,cs),
(1322,1772,o),
(1199,1885,o),
(1047,1885,cs),
(745,1885,o),
(502,1555,o),
(408,1035,cs),
(303,469,o),
(428,123,o),
(738,123,cs),
(992,123,o),
(1164,307,o),
(1243,461,cs),
(1279,531,o),
(1309,558,o),
(1354,535,cs),
(1400,510,o),
(1393,476,o),
(1355,399,cs),
(1260,208,o),
(1025,0,o),
(751,0,cs)
);
},
{
closed = 1;
nodes = (
(1341,1866,o),
(1270,1908,o),
(1203,1934,c),
(1207,1946,l),
(1137,1950,l),
(1193,1907,l),
(1197,1919,l),
(1263,1893,o),
(1331,1853,o),
(1388,1809,c),
(1398,1823,l)
);
},
{
closed = 1;
nodes = (
(1477,1728,o),
(1493,1745,o),
(1493,1766,cs),
(1493,1787,o),
(1477,1803,o),
(1456,1803,cs),
(1435,1803,o),
(1418,1787,o),
(1418,1766,cs),
(1418,1745,o),
(1435,1728,o),
(1456,1728,cs)
);
}
);
vertWidth = 0;
width = 1512;
},
{
layerId = m002;
shapes = (
{
closed = 1;
nodes = (
(1154,-20,o),
(1418,170,o),
(1525,365,cs),
(1602,507,o),
(1549,619,o),
(1464,663,cs),
(1375,711,o),
(1293,674,o),
(1250,584,cs),
(1181,436,o),
(1042,293,o),
(813,293,cs),
(595,293,o),
(508,507,o),
(573,1020,cs),
(626,1468,o),
(807,1709,o),
(1130,1709,cs),
(1244,1709,o),
(1365,1625,o),
(1430,1578,cs),
(1507,1525,o),
(1599,1537,o),
(1654,1633,cs),
(1712,1738,o),
(1668,1840,o),
(1605,1886,cs),
(1524,1945,o),
(1301,2028,o),
(1109,2028,cs),
(615,2028,o),
(313,1699,o),
(221,1062,cs),
(124,402,o),
(321,-20,o),
(808,-20,cs)
);
},
{
closed = 1;
nodes = (
(350,20,o),
(166,411,o),
(261,1056,cs),
(351,1679,o),
(635,1988,o),
(1109,1988,cs),
(1293,1988,o),
(1505,1909,o),
(1581,1854,cs),
(1634,1815,o),
(1667,1738,o),
(1620,1653,cs),
(1576,1576,o),
(1515,1568,o),
(1454,1610,cs),
(1388,1657,o),
(1256,1749,o),
(1130,1749,cs),
(784,1749,o),
(588,1485,o),
(533,1024,cs),
(467,498,o),
(565,253,o),
(813,253,cs),
(1060,253,o),
(1214,411,o),
(1286,566,cs),
(1322,641,o),
(1376,665,o),
(1446,627,cs),
(1516,591,o),
(1556,506,o),
(1489,385,cs),
(1388,199,o),
(1140,20,o),
(808,20,cs)
);
},
{
closed = 1;
nodes = (
(1359,1840,o),
(1271,1872,o),
(1201,1886,c),
(1203,1899,l),
(1132,1885,l),
(1193,1847,l),
(1196,1859,l),
(1266,1845,o),
(1346,1816,o),
(1409,1783,c),
(1422,1807,l)
);
},
{
closed = 1;
nodes = (
(1535,1678,o),
(1562,1705,o),
(1562,1738,cs),
(1562,1771,o),
(1535,1798,o),
(1502,1798,cs),
(1469,1798,o),
(1442,1771,o),
(1442,1738,cs),
(1442,1705,o),
(1469,1678,o),
(1502,1678,cs)
);
}
);
vertWidth = 0;
width = 1598;
}
);
metricLeft = C.ss02;
metricRight = C.ss02;
},
{
color = 6;
glyphname = D.ss05;
layers = (
{
layerId = m01;
shapes = (
{
closed = 1;
nodes = (
(1069,1,o),
(1406,390,o),
(1480,1050,cs),
(1546,1631,o),
(1214,2008,o),
(628,2008,cs),
(456,2008,ls),
(379,2008,o),
(360,1968,o),
(355,1916,cs),
(163,95,ls),
(157,42,o),
(191,1,o),
(251,1,cs),
(449,1,ls)
);
},
{
closed = 1;
nodes = (
(202,21,o),
(179,50,o),
(184,93,cs),
(375,1914,ls),
(380,1961,o),
(392,1988,o),
(456,1988,cs),
(628,1988,ls),
(1203,1988,o),
(1525,1623,o),
(1460,1052,cs),
(1387,399,o),
(1058,21,o),
(449,21,cs),
(251,21,ls)
);
},
{
closed = 1;
nodes = (
(438,144,ls),
(983,144,o),
(1261,466,o),
(1329,1063,cs),
(1382,1537,o),
(1116,1868,o),
(649,1868,cs),
(504,1868,l),
(322,144,l)
);
},
{
closed = 1;
nodes = (
(522,1848,l),
(649,1848,ls),
(1104,1848,o),
(1361,1529,o),
(1309,1065,cs),
(1242,475,o),
(972,164,o),
(438,164,cs),
(345,164,l)
);
},
{
closed = 1;
nodes = (
(430,1628,l),
(417,1629,l),
(439,1842,l),
(422,1844,l),
(400,1631,l),
(387,1632,l),
(402,1563,l)
);
},
{
closed = 1;
nodes = (
(459,1886,o),
(475,1903,o),
(475,1924,cs),
(475,1945,o),
(459,1961,o),
(438,1961,cs),
(417,1961,o),
(400,1945,o),
(400,1924,cs),
(400,1903,o),
(417,1886,o),
(438,1886,cs)
);
}
);
vertWidth = 0;
width = 1527;
},
{
layerId = m002;
shapes = (
{
closed = 1;
nodes = (
(1130,0,o),
(1526,387,o),
(1595,1036,cs),
(1656,1625,o),
(1291,2008,o),
(686,2008,cs),
(468,2008,ls),
(364,2008,o),
(309,1958,o),
(299,1863,cs),
(121,173,ls),
(111,78,o),
(185,0,o),
(290,0,cs),
(524,0,ls)
);
},
{
closed = 1;
nodes = (
(205,40,o),
(153,95,o),
(161,169,cs),
(339,1859,ls),
(347,1936,o),
(382,1968,o),
(468,1968,cs),
(686,1968,ls),
(1270,1968,o),
(1614,1608,o),
(1555,1040,cs),
(1488,407,o),
(1111,40,o),
(524,40,cs),
(290,40,ls)
);
},
{
closed = 1;
nodes = (
(505,276,ls),
(958,276,o),
(1248,524,o),
(1296,1046,cs),
(1339,1522,o),
(1077,1737,o),
(652,1737,cs),
(596,1737,l),
(442,276,l)
);
},
{
closed = 1;
nodes = (
(631,1697,l),
(652,1697,ls),
(1058,1697,o),
(1297,1503,o),
(1256,1050,cs),
(1210,546,o),
(940,316,o),
(505,316,cs),
(486,316,l)
);
},
{
closed = 1;
nodes = (
(458,1533,l),
(445,1534,l),
(468,1747,l),
(441,1750,l),
(418,1537,l),
(405,1538,l),
(425,1469,l)
);
},
{
closed = 1;
nodes = (
(496,1792,o),
(523,1819,o),
(523,1852,cs),
(523,1885,o),
(496,1912,o),
(463,1912,cs),
(430,1912,o),
(403,1885,o),
(403,1852,cs),
(403,1819,o),
(430,1792,o),
(463,1792,cs)
);
}
);
vertWidth = 0;
width = 1683;
}
);
metricLeft = D.ss02;
metricRight = D.ss02;
},
{
color = 6;
glyphname = E.ss05;
layers = (
{
layerId = m01;
shapes = (
{
closed = 1;
nodes = (
(1290,0,o),
(1315,42,o),
(1315,85,cs),
(1315,126,o),
(1290,163,o),
(1221,163,cs),
(346,163,l),
(434,999,l),
(1248,999,ls),
(1313,999,o),
(1349,1040,o),
(1349,1082,cs),
(1349,1122,o),
(1323,1162,o),
(1254,1162,cs),
(451,1162,l),
(524,1848,l),
(1415,1848,ls),
(1485,1848,o),
(1509,1887,o),
(1509,1928,cs),
(1509,1968,o),
(1485,2008,o),
(1415,2008,cs),
(456,2008,ls),
(378,2008,o),
(360,1967,o),
(355,1916,cs),
(163,94,ls),
(157,41,o),
(190,0,o),
(251,0,cs),
(1221,0,ls)
);
},
{
closed = 1;
nodes = (
(201,20,o),
(178,49,o),
(183,92,cs),
(375,1914,ls),
(380,1961,o),
(392,1988,o),
(456,1988,cs),
(1415,1988,ls),
(1472,1988,o),
(1489,1961,o),
(1489,1928,cs),
(1489,1894,o),
(1473,1868,o),
(1415,1868,cs),
(505,1868,l),
(429,1142,l),
(1254,1142,ls),
(1311,1142,o),
(1329,1115,o),
(1329,1082,cs),
(1329,1050,o),
(1303,1019,o),
(1248,1019,cs),
(416,1019,l),
(323,143,l),
(1221,143,ls),
(1278,143,o),
(1295,119,o),
(1295,85,cs),
(1295,49,o),
(1277,20,o),
(1221,20,cs),
(251,20,ls)
);
},
{
closed = 1;
nodes = (
(430,1628,l),
(417,1629,l),
(439,1842,l),
(422,1844,l),
(400,1631,l),
(387,1632,l),
(402,1563,l)
);
},
{
closed = 1;
nodes = (
(459,1886,o),
(475,1903,o),
(475,1924,cs),
(475,1945,o),
(459,1961,o),
(438,1961,cs),
(417,1961,o),
(400,1945,o),
(400,1924,cs),
(400,1903,o),
(417,1886,o),
(438,1886,cs)
);
}
);
vertWidth = 0;
width = 1444;
},
{
guides = (
{
angle = 264.0051;
pos = (1531,836);
}
);
layerId = m002;
shapes = (
{
closed = 1;
nodes = (
(1405,0,o),
(1462,93,o),
(1462,181,cs),
(1462,267,o),
(1396,318,o),
(1279,318,cs),
(487,318,l),
(545,870,l),
(1298,870,ls),
(1407,870,o),
(1476,938,o),
(1476,1022,cs),
(1476,1116,o),
(1398,1172,o),
(1295,1172,cs),
(577,1172,l),
(631,1690,l),
(1470,1690,ls),
(1572,1690,o),
(1638,1762,o),
(1638,1853,cs),
(1638,1943,o),
(1563,2008,o),
(1457,2008,cs),
(476,2008,ls),
(372,2008,o),
(310,1968,o),
(300,1870,cs),
(122,175,ls),
(112,81,o),
(157,0,o),
(264,0,cs),
(1292,0,ls)
);
},
{
closed = 1;
nodes = (
(183,40,o),
(154,92,o),
(162,171,cs),
(340,1866,ls),
(348,1943,o),
(386,1968,o),
(476,1968,cs),
(1457,1968,ls),
(1545,1968,o),
(1598,1922,o),
(1598,1853,cs),
(1598,1780,o),
(1552,1730,o),
(1470,1730,cs),
(595,1730,l),
(533,1132,l),
(1295,1132,ls),
(1382,1132,o),
(1436,1093,o),
(1436,1022,cs),
(1436,957,o),
(1388,910,o),
(1298,910,cs),
(509,910,l),
(443,278,l),
(1279,278,ls),
(1379,278,o),
(1422,244,o),
(1422,181,cs),
(1422,107,o),
(1380,40,o),
(1292,40,cs),
(264,40,ls)
);
},
{
closed = 1;
nodes = (
(458,1533,l),
(445,1534,l),
(468,1747,l),
(441,1750,l),
(418,1537,l),
(405,1538,l),
(425,1469,l)
);
},
{
closed = 1;
nodes = (
(496,1792,o),
(523,1819,o),
(523,1852,cs),
(523,1885,o),
(496,1912,o),
(463,1912,cs),
(430,1912,o),
(403,1885,o),
(403,1852,cs),
(403,1819,o),
(430,1792,o),
(463,1792,cs)
);
}
);
vertWidth = 0;
width = 1581;
}
);
metricLeft = E.ss02;
metricRight = E.ss02;
},
{
color = 6;
glyphname = F.ss05;
layers = (
{
layerId = m01;
shapes = (
{
closed = 1;
nodes = (
(1225,999,ls),
(1293,999,o),
(1323,1042,o),
(1323,1082,cs),
(1323,1124,o),
(1292,1162,o),
(1225,1162,cs),
(451,1162,l),
(523,1848,l),
(1415,1848,ls),
(1485,1848,o),
(1509,1887,o),
(1509,1928,cs),
(1509,1968,o),
(1485,2008,o),
(1415,2008,cs),
(456,2008,ls),
(378,2008,o),
(360,1967,o),
(355,1916,cs),
(163,94,ls),
(157,41,o),
(190,0,o),
(251,0,cs),
(327,0,o),
(335,56,o),
(338,87,cs),
(434,999,l)
);
},
{
closed = 1;
nodes = (
(380,1961,o),
(392,1988,o),
(456,1988,cs),
(1415,1988,ls),
(1472,1988,o),
(1489,1961,o),
(1489,1928,cs),
(1489,1894,o),
(1473,1868,o),
(1415,1868,cs),
(505,1868,l),
(429,1142,l),
(1225,1142,ls),
(1282,1142,o),
(1303,1115,o),
(1303,1082,cs),
(1303,1049,o),
(1282,1019,o),
(1225,1019,cs),
(416,1019,l),
(318,89,ls),
(315,58,o),
(309,20,o),
(251,20,cs),
(201,20,o),
(178,49,o),
(183,92,cs),
(375,1914,ls)
);
},
{
closed = 1;
nodes = (
(430,1628,l),
(417,1629,l),
(439,1842,l),
(422,1844,l),
(400,1631,l),
(387,1632,l),
(402,1563,l)
);
},
{
closed = 1;
nodes = (
(459,1886,o),
(475,1903,o),
(475,1924,cs),
(475,1945,o),
(459,1961,o),
(438,1961,cs),
(417,1961,o),
(400,1945,o),
(400,1924,cs),
(400,1903,o),
(417,1886,o),
(438,1886,cs)
);
}
);
vertWidth = 0;
width = 1444;
},
{
layerId = m002;
shapes = (
{
closed = 1;
nodes = (
(1264,838,ls),
(1376,838,o),
(1427,909,o),
(1427,991,cs),
(1427,1085,o),
(1351,1141,o),
(1249,1141,cs),
(574,1141,l),
(632,1690,l),
(1427,1690,ls),
(1529,1690,o),
(1605,1743,o),
(1605,1848,cs),
(1605,1945,o),
(1530,2008,o),
(1424,2008,cs),
(469,2008,ls),
(364,2008,o),
(309,1965,o),
(299,1868,cs),
(123,188,ls),
(113,96,o),
(162,0,o),
(262,0,cs),
(402,0,o),
(462,75,o),
(473,177,cs),
(542,838,l)
);
},
{
closed = 1;
nodes = (
(347,1942,o),
(380,1968,o),
(469,1968,cs),
(1424,1968,ls),
(1513,1968,o),
(1565,1924,o),
(1565,1848,cs),
(1565,1766,o),
(1514,1730,o),
(1427,1730,cs),
(595,1730,l),
(529,1101,l),
(1249,1101,ls),
(1335,1101,o),
(1387,1062,o),
(1387,991,cs),
(1387,925,o),
(1353,878,o),
(1264,878,cs),
(506,878,l),
(433,181,ls),
(424,93,o),
(380,40,o),
(262,40,cs),
(188,40,o),
(155,107,o),
(163,184,cs),
(339,1864,ls)
);
},
{
closed = 1;
nodes = (
(458,1533,l),
(445,1534,l),
(468,1747,l),
(441,1750,l),
(418,1537,l),
(405,1538,l),
(425,1469,l)
);
},
{
closed = 1;
nodes = (
(496,1792,o),
(523,1819,o),
(523,1852,cs),
(523,1885,o),
(496,1912,o),
(463,1912,cs),
(430,1912,o),
(403,1885,o),
(403,1852,cs),
(403,1819,o),
(430,1792,o),
(463,1792,cs)
);
}
);
vertWidth = 0;
width = 1549;
}
);
metricLeft = F.ss02;
metricRight = F.ss02;
},
{
color = 6;
glyphname = G.ss05;
layers = (
{
layerId = m01;
shapes = (
{
closed = 1;
nodes = (
(1167,56,o),
(1179,3,o),
(1250,0,cs),
(1329,-3,o),
(1342,57,o),
(1349,121,cs),
(1440,988,ls),
(1446,1047,o),
(1402,1082,o),
(1345,1082,cs),
(1283,1082,o),
(1265,1045,o),
(1254,1002,c),
(1057,422,o),
(788,143,o),
(599,143,cs),
(333,143,o),
(222,474,o),
(313,1031,cs),
(403,1554,o),
(651,1865,o),
(971,1865,cs),
(1183,1865,o),
(1273,1756,o),
(1346,1685,cs),
(1382,1650,o),
(1435,1626,o),
(1475,1662,cs),
(1516,1700,o),
(1506,1745,o),
(1473,1789,cs),
(1394,1890,o),
(1207,2028,o),
(992,2028,cs),
(578,2028,o),
(255,1660,o),
(142,1055,cs),
(21,391,o),
(180,-20,o),
(573,-20,cs),
(823,-20,o),
(1040,170,o),
(1218,542,c),
(1174,123,ls)
);
},
{
closed = 1;
nodes = (
(1322,61,o),
(1313,17,o),
(1250,20,cs),
(1196,23,o),
(1187,58,o),
(1194,121,cs),
(1241,570,ls),
(1246,621,o),
(1234,625,o),
(1211,574,cs),
(1034,191,o),
(819,0,o),
(573,0,cs),
(195,0,o),
(42,396,o),
(162,1051,cs),
(273,1650,o),
(589,2008,o),
(992,2008,cs),
(1200,2008,o),
(1380,1875,o),
(1457,1777,cs),
(1487,1738,o),
(1493,1706,o),
(1461,1676,cs),
(1432,1650,o),
(1393,1667,o),
(1360,1699,cs),
(1287,1770,o),
(1191,1885,o),
(971,1885,cs),
(640,1885,o),
(385,1563,o),
(293,1035,cs),
(201,469,o),
(318,123,o),
(599,123,cs),
(798,123,o),
(1075,412,o),
(1274,996,c),
(1283,1037,o),
(1296,1062,o),
(1345,1062,cs),
(1394,1062,o),
(1425,1037,o),
(1420,990,cs),
(1329,123,ls)
);
},
{
closed = 1;
nodes = (
(1318,1838,o),
(1250,1885,o),
(1185,1916,c),
(1190,1927,l),
(1120,1936,l),
(1173,1889,l),
(1178,1901,l),
(1242,1870,o),
(1307,1826,o),
(1361,1778,c),
(1372,1791,l)
);
},
{
closed = 1;
nodes = (
(1444,1689,o),
(1460,1706,o),
(1460,1727,cs),
(1460,1748,o),
(1444,1764,o),
(1423,1764,cs),
(1402,1764,o),
(1385,1748,o),
(1385,1727,cs),
(1385,1706,o),
(1402,1689,o),
(1423,1689,cs)
);
}
);
vertWidth = 0;
width = 1543;
},
{
layerId = m002;
shapes = (
{
closed = 1;
nodes = (
(1087,64,o),
(1167,0,o),
(1281,0,cs),
(1402,0,o),
(1442,66,o),
(1450,147,cs),
(1533,945,ls),
(1544,1055,o),
(1467,1123,o),
(1360,1123,cs),
(1230,1123,o),
(1212,1084,o),
(1053,799,cs),
(959,631,o),
(727,299,o),
(618,299,cs),
(478,299,o),
(425,529,o),
(482,1015,cs),
(532,1423,o),
(635,1709,o),
(972,1709,cs),
(1141,1709,o),
(1212,1675,o),
(1256,1585,cs),
(1306,1484,o),
(1358,1437,o),
(1474,1466,cs),
(1572,1493,o),
(1583,1591,o),
(1558,1673,cs),
(1487,1895,o),
(1264,2028,o),
(972,2028,cs),
(465,2028,o),
(225,1650,o),
(138,1059,cs),
(43,426,o),
(137,-20,o),
(600,-20,cs),
(814,-20,o),
(981,147,o),
(1119,373,c),
(1098,173,ls)
);
},
{
closed = 1;
nodes = (
(1403,82,o),
(1376,40,o),
(1281,40,cs),
(1184,40,o),
(1130,84,o),
(1139,169,cs),
(1168,449,ls),
(1177,534,o),
(1166,534,o),
(1125,463,cs),
(982,213,o),
(815,20,o),
(600,20,cs),
(171,20,o),
(84,430,o),
(178,1053,cs),
(263,1634,o),
(489,1988,o),
(972,1988,cs),
(1250,1988,o),
(1454,1867,o),
(1520,1661,cs),
(1542,1589,o),
(1534,1524,o),
(1464,1504,cs),
(1370,1481,o),
(1337,1510,o),
(1292,1603,cs),
(1241,1707,o),
(1153,1749,o),
(972,1749,cs),
(606,1749,o),
(493,1435,o),
(442,1019,cs),
(384,522,o),
(442,259,o),
(618,259,cs),
(754,259,o),
(993,611,o),
(1087,779,cs),
(1248,1066,o),
(1256,1083,o),
(1360,1083,cs),
(1448,1083,o),
(1502,1036,o),
(1493,949,cs),
(1410,153,ls)
);
},
{
closed = 1;
nodes = (
(1340,1767,o),
(1263,1824,o),
(1198,1849,c),
(1201,1862,l),
(1129,1861,l),
(1182,1812,l),
(1188,1824,l),
(1254,1798,o),
(1319,1750,o),
(1365,1694,c),
(1386,1711,l)
);
},
{
closed = 1;
nodes = (
(1453,1552,o),
(1480,1579,o),
(1480,1612,cs),
(1480,1645,o),
(1453,1672,o),
(1420,1672,cs),
(1387,1672,o),
(1360,1645,o),
(1360,1612,cs),
(1360,1579,o),
(1387,1552,o),
(1420,1552,cs)
);
}
);
vertWidth = 0;
width = 1611;
}
);
metricLeft = G.ss02;
metricRight = G.ss02;
},
{
color = 6;
glyphname = H.ss05;
layers = (
{
layerId = m01;
shapes = (
{
closed = 1;
nodes = (
(1298,999,l),
(1202,94,ls),
(1198,55,o),
(1213,0,o),
(1292,0,cs),
(1359,0,o),
(1377,46,o),
(1380,77,cs),
(1573,1909,ls),
(1579,1966,o),
(1553,2008,o),
(1485,2008,cs),
(1423,2008,o),
(1400,1966,o),
(1396,1931,cs),
(1315,1162,l),
(453,1162,l),
(530,1901,ls),
(536,1963,o),
(515,2008,o),
(456,2008,cs),
(390,2008,o),
(361,1969,o),
(355,1916,cs),
(163,94,ls),
(157,41,o),
(191,0,o),
(251,0,cs),
(328,0,o),
(336,56,o),
(339,87,cs),
(435,999,l)
);
},
{
closed = 1;
nodes = (
(380,1960,o),
(401,1988,o),
(456,1988,cs),
(502,1988,o),
(516,1957,o),
(510,1903,cs),
(429,1142,l),
(1333,1142,l),
(1416,1929,ls),
(1419,1959,o),
(1436,1988,o),
(1485,1988,cs),
(1541,1988,o),
(1558,1960,o),
(1553,1911,cs),
(1360,79,ls),
(1357,51,o),
(1345,20,o),
(1292,20,cs),
(1230,20,o),
(1218,58,o),
(1222,92,cs),
(1320,1019,l),
(417,1019,l),
(319,89,ls),
(316,58,o),
(310,20,o),
(251,20,cs),
(202,20,o),
(178,49,o),
(183,92,cs),
(375,1914,ls)
);
},
{
closed = 1;
nodes = (
(430,1628,l),
(417,1629,l),
(439,1842,l),
(422,1844,l),
(400,1631,l),
(387,1632,l),
(402,1563,l)
);
},
{
closed = 1;
nodes = (
(466,1886,o),
(482,1903,o),
(482,1924,cs),
(482,1945,o),
(466,1961,o),
(445,1961,cs),
(424,1961,o),
(407,1945,o),
(407,1924,cs),
(407,1903,o),
(424,1886,o),
(445,1886,cs)
);
}
);
vertWidth = 0;
width = 1639;
},
{
layerId = m002;
shapes = (
{
closed = 1;
nodes = (
(1231,854,l),
(1160,173,ls),
(1149,72,o),
(1214,0,o),
(1327,0,cs),
(1426,0,o),
(1495,59,o),
(1503,132,cs),
(1681,1830,ls),
(1693,1942,o),
(1617,2008,o),
(1511,2008,cs),
(1416,2008,o),
(1347,1954,o),
(1339,1876,cs),
(1265,1172,l),
(578,1172,l),
(646,1822,ls),
(659,1943,o),
(593,2008,o),
(491,2008,cs),
(401,2008,o),
(310,1964,o),
(299,1863,cs),
(121,173,ls),
(111,75,o),
(185,0,o),
(294,0,cs),
(414,0,o),
(462,73,o),
(469,143,cs),
(544,854,l)
);
},
{
closed = 1;
nodes = (
(347,1936,o),
(413,1968,o),
(491,1968,cs),
(574,1968,o),
(618,1926,o),
(607,1826,cs),
(534,1132,l),
(1300,1132,l),
(1378,1872,ls),
(1384,1930,o),
(1432,1968,o),
(1511,1968,cs),
(1599,1968,o),
(1650,1923,o),
(1641,1834,cs),
(1462,136,ls),
(1456,82,o),
(1409,40,o),
(1327,40,cs),
(1235,40,o),
(1191,89,o),
(1199,169,cs),
(1275,894,l),
(509,894,l),
(430,147,ls),
(424,89,o),
(390,40,o),
(294,40,cs),
(204,40,o),
(153,92,o),
(161,169,cs),
(339,1859,ls)
);
},
{
closed = 1;
nodes = (
(458,1533,l),
(445,1534,l),
(468,1747,l),
(441,1750,l),
(418,1537,l),
(405,1538,l),
(425,1469,l)
);
},
{
closed = 1;
nodes = (
(496,1792,o),
(523,1819,o),
(523,1852,cs),
(523,1885,o),
(496,1912,o),
(463,1912,cs),
(430,1912,o),
(403,1885,o),
(403,1852,cs),
(403,1819,o),
(430,1792,o),
(463,1792,cs)
);
}
);
vertWidth = 0;
width = 1706;
}
);
metricLeft = H.ss02;
metricRight = H.ss02;
},
{
color = 6;
glyphname = I.ss05;
layers = (
{
layerId = m01;
shapes = (
{
closed = 1;
nodes = (
(495,0,o),
(510,41,o),
(510,80,cs),
(510,123,o),
(482,163,o),
(417,163,cs),
(382,163,l),
(559,1848,l),
(617,1848,ls),
(688,1848,o),
(703,1888,o),
(703,1928,cs),
(703,1968,o),
(677,2008,o),
(607,2008,cs),
(334,2008,ls),
(265,2008,o),
(246,1967,o),
(246,1928,cs),
(246,1885,o),
(277,1848,o),
(342,1848,cs),
(381,1848,l),
(203,163,l),
(141,163,ls),
(70,163,o),
(53,122,o),
(53,80,cs),
(53,38,o),
(84,0,o),
(149,0,cs),
(424,0,ls)
);
},
{
closed = 1;
nodes = (
(94,20,o),
(73,47,o),
(73,80,cs),
(73,117,o),
(85,143,o),
(141,143,cs),
(221,143,l),
(403,1868,l),
(342,1868,ls),
(287,1868,o),
(266,1894,o),
(266,1928,cs),
(266,1962,o),
(278,1988,o),
(334,1988,cs),
(607,1988,ls),
(665,1988,o),
(683,1961,o),
(683,1928,cs),
(683,1893,o),
(673,1868,o),
(617,1868,cs),
(541,1868,l),
(360,143,l),
(417,143,ls),
(471,143,o),
(490,116,o),
(490,80,cs),
(490,46,o),
(480,20,o),
(424,20,cs),
(149,20,ls)
);
},
{
closed = 1;
nodes = (
(471,1624,l),
(458,1625,l),
(480,1838,l),
(463,1840,l),
(441,1627,l),
(428,1628,l),
(443,1559,l)
);
},
{
closed = 1;
nodes = (
(494,1882,o),
(510,1899,o),
(510,1920,cs),
(510,1941,o),
(494,1957,o),
(473,1957,cs),
(452,1957,o),
(435,1941,o),
(435,1920,cs),
(435,1899,o),
(452,1882,o),
(473,1882,cs)
);
}
);
vertWidth = 0;
width = 614;
},
{
layerId = m002;
shapes = (
{
closed = 1;
nodes = (
(769,0,o),
(847,63,o),
(847,163,cs),
(847,258,o),
(779,318,o),
(676,318,cs),
(646,318,l),
(793,1690,l),
(831,1690,ls),
(950,1690,o),
(1030,1755,o),
(1030,1853,cs),
(1030,1948,o),
(960,2008,o),
(857,2008,cs),
(440,2008,ls),
(319,2008,o),
(241,1945,o),
(241,1848,cs),
(241,1750,o),
(311,1690,o),
(412,1690,cs),
(444,1690,l),
(297,318,l),
(260,318,ls),
(138,318,o),
(60,256,o),
(60,155,cs),
(60,61,o),
(127,0,o),
(231,0,cs),
(647,0,ls)
);
},
{
closed = 1;
nodes = (
(145,40,o),
(100,81,o),
(100,155,cs),
(100,234,o),
(155,278,o),
(260,278,cs),
(333,278,l),
(488,1730,l),
(412,1730,ls),
(328,1730,o),
(281,1771,o),
(281,1848,cs),
(281,1923,o),
(336,1968,o),
(440,1968,cs),
(857,1968,ls),
(943,1968,o),
(990,1927,o),
(990,1853,cs),
(990,1777,o),
(933,1730,o),
(831,1730,cs),
(757,1730,l),
(602,278,l),
(676,278,ls),
(761,278,o),
(807,237,o),
(807,163,cs),
(807,85,o),
(752,40,o),
(647,40,cs),
(231,40,ls)
);
},
{
closed = 1;
nodes = (
(633,1533,l),
(620,1534,l),
(643,1748,l),
(616,1750,l),
(593,1537,l),
(580,1538,l),
(600,1469,l)
);
},
{
closed = 1;
nodes = (
(671,1792,o),
(698,1819,o),
(698,1852,cs),
(698,1885,o),
(671,1912,o),
(638,1912,cs),
(605,1912,o),
(578,1885,o),
(578,1852,cs),
(578,1819,o),
(605,1792,o),
(638,1792,cs)
);
}
);
vertWidth = 0;
width = 933;
}
);
metricLeft = I.ss02;
metricRight = I.ss02;
},
{
color = 6;
glyphname = J.ss05;
layers = (
{
layerId = m01;
shapes = (
{
closed = 1;
nodes = (
(1073,1848,ls),
(1143,1848,o),
(1156,1889,o),
(1156,1928,cs),
(1156,1968,o),
(1132,2008,o),
(1062,2008,cs),
(787,2008,ls),
(720,2008,o),
(701,1967,o),
(701,1928,cs),
(701,1887,o),
(729,1848,o),
(797,1848,cs),
(832,1848,l),
(704,636,ls),
(666,277,o),
(559,163,o),
(364,163,cs),
(239,163,o),
(164,250,o),
(101,329,cs),
(64,377,o),
(11,389,o),
(-28,350,cs),
(-70,310,o),
(-59,258,o),
(-29,220,cs),
(62,104,o),
(191,0,o),
(364,0,cs),
(679,0,o),
(828,172,o),
(877,634,cs),
(1005,1848,l)
);
},
{
closed = 1;
nodes = (
(797,1868,ls),
(740,1868,o),
(721,1894,o),
(721,1928,cs),
(721,1962,o),
(733,1988,o),
(787,1988,cs),
(1062,1988,ls),
(1119,1988,o),
(1136,1961,o),
(1136,1928,cs),
(1136,1893,o),
(1128,1868,o),
(1073,1868,cs),
(987,1868,l),
(857,636,ls),
(809,181,o),
(668,20,o),
(364,20,cs),
(199,20,o),
(76,118,o),
(-13,232,cs),
(-39,266,o),
(-47,304,o),
(-14,336,cs),
(16,366,o),
(53,358,o),
(85,317,cs),
(148,238,o),
(229,143,o),
(364,143,cs),
(570,143,o),
(685,268,o),
(724,634,cs),
(854,1868,l)
);
},
{
closed = 1;
nodes = (
(918,1624,l),
(905,1625,l),
(927,1838,l),
(910,1840,l),
(888,1627,l),
(875,1628,l),
(890,1559,l)
);
},
{
closed = 1;
nodes = (
(944,1882,o),
(960,1899,o),
(960,1920,cs),
(960,1941,o),
(944,1957,o),
(923,1957,cs),
(902,1957,o),
(885,1941,o),
(885,1920,cs),
(885,1899,o),
(902,1882,o),
(923,1882,cs)
);
}
);
vertWidth = 0;
width = 1031;
},
{
layerId = m002;
shapes = (
{
closed = 1;
nodes = (
(1220,1690,ls),
(1342,1690,o),
(1420,1755,o),
(1420,1853,cs),
(1420,1948,o),
(1352,2008,o),
(1249,2008,cs),
(833,2008,ls),
(711,2008,o),
(633,1945,o),
(633,1848,cs),
(633,1751,o),
(700,1690,o),
(804,1690,cs),
(835,1690,l),
(726,673,ls),
(692,354,o),
(614,296,o),
(507,296,cs),
(429,296,o),
(342,341,o),
(245,438,cs),
(170,515,o),
(59,505,o),
(-10,421,cs),
(-64,359,o),
(-53,250,o),
(1,194,cs),
(134,56,o),
(293,-20,o),
(468,-20,cs),
(780,-20,o),
(1017,166,o),
(1063,594,cs),
(1182,1690,l)
);
},
{
closed = 1;
nodes = (
(804,1730,ls),
(718,1730,o),
(673,1771,o),
(673,1848,cs),
(673,1923,o),
(728,1968,o),
(833,1968,cs),
(1249,1968,ls),
(1334,1968,o),
(1380,1927,o),
(1380,1853,cs),
(1380,1776,o),
(1325,1730,o),
(1220,1730,cs),
(1146,1730,l),
(1023,598,ls),
(979,190,o),
(763,20,o),
(468,20,cs),
(304,20,o),
(157,90,o),
(29,222,cs),
(-13,266,o),
(-21,347,o),
(20,395,cs),
(77,465,o),
(156,471,o),
(217,410,cs),
(319,308,o),
(418,256,o),
(507,256,cs),
(630,256,o),
(730,328,o),
(766,669,cs),
(879,1730,l)
);
},
{
closed = 1;
nodes = (
(1021,1533,l),
(1008,1534,l),
(1031,1748,l),
(1004,1750,l),
(981,1537,l),
(968,1538,l),
(988,1469,l)
);
},
{
closed = 1;
nodes = (
(1051,1792,o),
(1078,1819,o),
(1078,1852,cs),
(1078,1885,o),
(1051,1912,o),
(1018,1912,cs),
(985,1912,o),
(958,1885,o),
(958,1852,cs),
(958,1819,o),
(985,1792,o),
(1018,1792,cs)
);
}
);
vertWidth = 0;
width = 1294;
}
);
metricLeft = J.ss02;
metricRight = J.ss02;
},
{
color = 6;
glyphname = K.ss05;
layers = (
{
layerId = m01;
shapes = (
{
closed = 1;
nodes = (
(1186,64,ls),
(1211,33,o),
(1244,0,o),
(1287,0,cs),
(1334,0,o),
(1370,36,o),
(1370,80,cs),
(1370,107,o),
(1357,127,o),
(1342,146,cs),
(588,1084,l),
(1497,1842,ls),
(1539,1877,o),
(1557,1912,o),
(1557,1941,cs),
(1557,1983,o),
(1528,2008,o),
(1482,2008,cs),
(1454,2008,o),
(1425,1999,o),
(1387,1967,cs),
(455,1177,l),
(529,1901,ls),
(535,1961,o),
(521,2008,o),
(456,2008,cs),
(388,2008,o),
(361,1969,o),
(355,1916,cs),
(165,110,ls),
(160,59,o),
(192,0,o),
(253,0,cs),
(327,0,o),
(337,64,o),
(341,105,cs),
(436,1001,l)
);
},
{
closed = 1;
nodes = (
(380,1960,o),
(399,1988,o),
(456,1988,cs),
(506,1988,o),
(515,1958,o),
(509,1903,cs),
(433,1167,ls),
(429,1133,o),
(433,1133,o),
(457,1153,cs),
(1399,1951,ls),
(1435,1981,o),
(1458,1988,o),
(1482,1988,cs),
(1519,1988,o),
(1537,1972,o),
(1537,1941,cs),
(1537,1918,o),
(1522,1891,o),
(1483,1858,cs),
(560,1086,l),
(1326,134,ls),
(1341,115,o),
(1350,101,o),
(1350,80,cs),
(1350,45,o),
(1325,20,o),
(1287,20,cs),
(1252,20,o),
(1225,47,o),
(1202,76,cs),
(442,1026,ls),
(423,1050,o),
(422,1050,o),
(418,1014,cs),
(321,107,ls),
(317,66,o),
(309,20,o),
(253,20,cs),
(205,20,o),
(180,64,o),
(185,108,cs),
(375,1914,ls)
);
},
{
closed = 1;
nodes = (
(430,1628,l),
(417,1629,l),
(439,1842,l),
(422,1844,l),
(400,1631,l),
(387,1632,l),
(402,1563,l)
);
},
{
closed = 1;
nodes = (
(464,1886,o),
(480,1903,o),
(480,1924,cs),
(480,1945,o),
(464,1961,o),
(443,1961,cs),
(422,1961,o),
(405,1945,o),
(405,1924,cs),
(405,1903,o),
(422,1886,o),
(443,1886,cs)
);
}
);
vertWidth = 0;
width = 1489;
},
{
layerId = m002;
shapes = (
{
closed = 1;
nodes = (
(1165,85,ls),
(1209,34,o),
(1270,0,o),
(1333,0,cs),
(1419,0,o),
(1493,80,o),
(1493,163,cs),
(1493,208,o),
(1474,249,o),
(1436,293,cs),
(761,1076,l),
(1577,1701,ls),
(1624,1737,o),
(1660,1785,o),
(1663,1839,cs),
(1666,1922,o),
(1598,2008,o),
(1497,2008,cs),
(1443,2008,o),
(1393,1986,o),
(1346,1947,cs),
(596,1322,l),
(646,1822,ls),
(660,1959,o),
(566,2008,o),
(483,2008,cs),
(395,2008,o),
(310,1964,o),
(299,1863,cs),
(123,188,ls),
(112,85,o),
(194,0,o),
(304,0,cs),
(409,0,o),
(463,70,o),
(472,156,cs),
(542,815,l)
);
},
{
closed = 1;
nodes = (
(347,1936,o),
(407,1968,o),
(483,1968,cs),
(553,1968,o),
(617,1935,o),
(606,1826,cs),
(553,1297,ls),
(546,1231,o),
(550,1231,o),
(605,1277,cs),
(1372,1915,ls),
(1415,1950,o),
(1453,1968,o),
(1497,1968,cs),
(1576,1968,o),
(1626,1906,o),
(1623,1841,cs),
(1620,1800,o),
(1595,1765,o),
(1553,1733,cs),
(703,1082,l),
(1406,267,ls),
(1439,228,o),
(1453,197,o),
(1453,163,cs),
(1453,98,o),
(1399,40,o),
(1333,40,cs),
(1281,40,o),
(1233,66,o),
(1195,111,cs),
(559,856,ls),
(516,906,o),
(512,906,o),
(504,835,cs),
(432,160,ls),
(424,88,o),
(387,40,o),
(304,40,cs),
(213,40,o),
(154,102,o),
(163,184,cs),
(339,1859,ls)
);
},
{
closed = 1;
nodes = (
(459,1533,l),
(446,1534,l),
(469,1747,l),
(442,1750,l),
(419,1537,l),
(406,1538,l),
(426,1469,l)
);
},
{
closed = 1;
nodes = (
(496,1792,o),
(523,1819,o),
(523,1852,cs),
(523,1885,o),
(496,1912,o),
(463,1912,cs),
(430,1912,o),
(403,1885,o),
(403,1852,cs),
(403,1819,o),
(430,1792,o),
(463,1792,cs)
);
}
);
vertWidth = 0;
width = 1604;
}
);
metricLeft = K.ss02;
metricRight = K.ss02;
},
{
color = 6;
glyphname = L.ss05;
layers = (
{
layerId = m01;
shapes = (
{
closed = 1;
nodes = (
(1244,0,o),
(1270,40,o),
(1270,85,cs),
(1270,133,o),
(1240,163,o),
(1177,163,cs),
(348,163,l),
(528,1901,ls),
(534,1961,o),
(525,2008,o),
(456,2008,cs),
(387,2008,o),
(361,1969,o),
(355,1916,cs),
(163,94,ls),
(157,41,o),
(190,0,o),
(251,0,cs),
(1179,0,ls)
);
},
{
closed = 1;
nodes = (
(201,20,o),
(178,49,o),
(183,92,cs),
(375,1914,ls),
(380,1960,o),
(398,1988,o),
(456,1988,cs),
(508,1988,o),
(514,1958,o),
(508,1903,cs),
(326,143,l),
(1177,143,ls),
(1230,143,o),
(1250,123,o),
(1250,85,cs),
(1250,47,o),
(1232,20,o),
(1179,20,cs),
(251,20,ls)
);
},
{
closed = 1;
nodes = (
(430,1628,l),
(417,1629,l),
(439,1842,l),
(422,1844,l),
(400,1631,l),
(387,1632,l),
(402,1563,l)
);
},
{
closed = 1;
nodes = (
(464,1886,o),
(480,1903,o),
(480,1924,cs),
(480,1945,o),
(464,1961,o),
(443,1961,cs),
(422,1961,o),
(405,1945,o),
(405,1924,cs),
(405,1903,o),
(422,1886,o),
(443,1886,cs)
);
}
);
vertWidth = 0;
width = 1399;
},
{
layerId = m002;
shapes = (
{
closed = 1;
nodes = (
(1355,0,o),
(1415,79,o),
(1415,163,cs),
(1415,247,o),
(1335,321,o),
(1231,321,cs),
(483,321,l),
(644,1822,ls),
(660,1969,o),
(565,2008,o),
(483,2008,cs),
(384,2008,o),
(310,1963,o),
(299,1863,cs),
(121,173,ls),
(111,77,o),
(167,0,o),
(274,0,cs),
(1249,0,ls)
);
},
{
closed = 1;
nodes = (
(190,40,o),
(153,91,o),
(161,169,cs),
(339,1859,ls),
(347,1937,o),
(398,1968,o),
(483,1968,cs),
(555,1968,o),
(616,1941,o),
(604,1826,cs),
(439,281,l),
(1231,281,ls),
(1317,281,o),
(1375,227,o),
(1375,163,cs),
(1375,95,o),
(1333,40,o),
(1249,40,cs),
(274,40,ls)
);
},
{
closed = 1;
nodes = (
(458,1533,l),
(445,1534,l),
(468,1747,l),
(441,1750,l),
(418,1537,l),
(405,1538,l),
(425,1469,l)
);
},
{
closed = 1;
nodes = (
(496,1792,o),
(523,1819,o),
(523,1852,cs),
(523,1885,o),
(496,1912,o),
(463,1912,cs),
(430,1912,o),
(403,1885,o),
(403,1852,cs),
(403,1819,o),
(430,1792,o),
(463,1792,cs)
);
}
);
vertWidth = 0;
width = 1536;
}
);
metricLeft = L.ss02;
metricRight = L.ss02;
},
{
color = 6;
glyphname = M.ss05;
layers = (
{
layerId = m01;
shapes = (
{
closed = 1;
nodes = (
(1109,84,ls),
(1113,52,o),
(1126,0,o),
(1205,0,cs),
(1270,0,o),
(1298,56,o),
(1310,80,cs),
(2075,1644,l),
(2257,84,ls),
(2261,51,o),
(2278,0,o),
(2351,0,cs),
(2407,0,o),
(2437,40,o),
(2431,92,cs),
(2219,1913,ls),
(2213,1964,o),
(2204,2008,o),
(2110,2008,cs),
(2057,2008,o),
(2033,1955,o),
(2017,1921,cs),
(1250,349,l),
(1066,1942,ls),
(1063,1969,o),
(1036,2008,o),
(976,2008,cs),
(918,2008,o),
(894,1970,o),
(873,1928,cs),
(-4,131,ls),
(-39,60,o),
(-11,0,o),
(57,0,cs),
(94,0,o),
(135,23,o),
(165,84,cs),
(928,1637,l)
);
},
{
closed = 1;
nodes = (
(912,1960,o),
(930,1988,o),
(976,1988,cs),
(1025,1988,o),
(1044,1960,o),
(1046,1940,cs),
(1232,330,ls),
(1237,286,o),
(1241,285,o),
(1262,328,cs),
(2035,1913,ls),
(2051,1947,o),
(2069,1988,o),
(2110,1988,cs),
(2188,1988,o),
(2193,1960,o),
(2199,1911,cs),
(2411,90,ls),
(2416,47,o),
(2395,20,o),
(2351,20,cs),
(2293,20,o),
(2281,56,o),
(2277,86,cs),
(2093,1664,ls),
(2088,1708,o),
(2084,1708,o),
(2065,1669,cs),
(1292,90,ls),
(1280,66,o),
(1258,20,o),
(1205,20,cs),
(1141,20,o),
(1132,56,o),
(1129,86,cs),
(946,1656,ls),
(941,1702,o),
(938,1702,o),
(915,1656,cs),
(147,92,ls),
(121,38,o),
(88,20,o),
(57,20,cs),
(4,20,o),
(-16,62,o),
(14,123,cs),
(891,1918,ls)
);
},
{
closed = 1;
nodes = (
(83,44,o),
(99,61,o),
(99,82,cs),
(99,103,o),
(83,119,o),
(62,119,cs),
(41,119,o),
(24,103,o),
(24,82,cs),
(24,61,o),
(41,44,o),
(62,44,cs)
);
},
{
closed = 1;
nodes = (
(202,341,l),
(214,336,l),
(223,406,l),
(175,354,l),
(187,349,l),
(93,156,l),
(108,149,l)
);
}
);
vertWidth = 0;
width = 2631;
},
{
layerId = m002;
shapes = (
{
closed = 1;
nodes = (
(1079,143,ls),
(1088,64,o),
(1147,0,o),
(1249,0,cs),
(1387,0,o),
(1424,70,o),
(1442,107,cs),
(2034,1316,l),
(2150,143,ls),
(2157,68,o),
(2233,0,o),
(2339,0,cs),
(2439,0,o),
(2510,72,o),
(2500,165,cs),
(2312,1855,ls),
(2302,1947,o),
(2282,2008,o),
(2162,2008,cs),
(2058,2008,o),
(1997,1968,o),
(1960,1893,cs),
(1356,670,l),
(1228,1855,ls),
(1218,1951,o),
(1177,2008,o),
(1041,2008,cs),
(942,2008,o),
(908,1963,o),
(875,1896,cs),
(38,227,ls),
(-33,86,o),
(78,0,o),
(175,0,cs),
(235,0,o),
(334,31,o),
(373,112,cs),
(951,1311,l)
);
},
{
closed = 1;
nodes = (
(942,1941,o),
(963,1968,o),
(1041,1968,cs),
(1154,1968,o),
(1179,1934,o),
(1188,1851,cs),
(1320,635,ls),
(1331,536,o),
(1336,535,o),
(1383,630,cs),
(1996,1875,ls),
(2027,1938,o),
(2072,1968,o),
(2162,1968,cs),
(2252,1968,o),
(2262,1937,o),
(2272,1851,cs),
(2460,161,ls),
(2468,89,o),
(2420,40,o),
(2339,40,cs),
(2251,40,o),
(2196,90,o),
(2190,147,cs),
(2070,1360,ls),
(2061,1450,o),
(2054,1450,o),
(2012,1364,cs),
(1406,125,ls),
(1388,88,o),
(1362,40,o),
(1249,40,cs),
(1167,40,o),
(1126,84,o),
(1119,147,cs),
(985,1366,ls),
(976,1445,o),
(969,1445,o),
(932,1368,cs),
(337,130,ls),
(306,65,o),
(227,40,o),
(175,40,cs),
(99,40,o),
(18,97,o),
(74,209,cs),
(911,1878,ls)
);
},
{
closed = 1;
nodes = (
(211,97,o),
(238,124,o),
(238,157,cs),
(238,190,o),
(211,217,o),
(178,217,cs),
(145,217,o),
(118,190,o),
(118,157,cs),
(118,124,o),
(145,97,o),
(178,97,cs)
);
},
{
closed = 1;
nodes = (
(340,430,l),
(352,425,l),
(356,497,l),
(303,448,l),
(315,442,l),
(221,250,l),
(245,238,l)
);
}
);
vertWidth = 0;
width = 2657;
}
);
metricLeft = M.ss02;
metricRight = M.ss02;
},
